<svg xmlns="http://www.w3.org/2000/svg" viewBox="0 0 371.1 359.85"><title>Asset 2</title><g id="Layer_2" data-name="Layer 2"><g id="OBJECTS"><ellipse cx="168.2" cy="191.81" rx="168.2" ry="168.04" style="fill:#e9bb77"/><path d="M211.17,91.37s9.85,28.11,8.44,36.07-18.33,33.67-31,33.5-26.3-29-26.3-29Z" style="fill:#373061;fill-rule:evenodd"/><path d="M131.82,63.14l-.24,8.2,7.18,12.75s.56,7.63,8.06,20.51,11,18.5,9.62,22.49c-14.88,42.1-63.92,37.68-55.22,26.23,1.6-2.11,20.58-19.72,17.54-51.26h0A12.37,12.37,0,0,0,126.52,79Z" style="fill:#373061;fill-rule:evenodd"/><path d="M129.18,161.9s-21,.55-26.54,14.41c-2.92,7.33-19.72,49.27-28.57,73.68-18.78,51.79,16.61,78.64,36,33.35l-4.16-19.82,37.92-88.94Z" style="fill:#e6b5a3;fill-rule:evenodd"/><path d="M116,164.57c-1.45.52-4.42.65-11.73,7.14s-14.2,31.89-19.07,43.78S69.55,255.22,67.66,264.4s-7.31,37,8.38,41.08,22.18-.27,28.41-8.1,42.46-113.57,42.46-113.57Z" style="fill:#fff;fill-rule:evenodd"/><path d="M174.8,90.75h0a23.13,23.13,0,0,1,24.42,21.63l1.95,32.44a23.13,23.13,0,0,1-21.65,24.4h0a23.14,23.14,0,0,1-24.42-21.63l-1.95-32.45A23.12,23.12,0,0,1,174.8,90.75Z" style="fill:#d68982;fill-rule:evenodd"/><path d="M201.19,147.26,253,161.06s-13.86,32.7-.29,80.09c0,0-21,69.29-21.69,76.29s4,13.15,4.23,16.89-3.38,6.09-3.69,9.86a17,17,0,0,0,.5,3.11A168.8,168.8,0,0,1,103,346.75l1.81-6.21a54.61,54.61,0,0,1-1-6.43c0-2,2.68-5.72,2.68-5.72S91.43,247.14,91,239.93s14.72-27.13,21.93-36.67,12.4-47.88,12.4-47.88l29.78-7.8S172.25,164.62,201.19,147.26Z" style="fill:#6082a4;fill-rule:evenodd"/><path d="M205,229.68s-.29,34.87-36,32.48c-11.64-.78-23-1.65-33.08-2.47-14.84-1.17-10.4-11.88-10.4-11.88l24.35-63.94-3.94-4.19L122.4,191.09l-12.25,66.39c-6.5-.59-10.37-1-10.37-1s-3.61-.3-7-4.68h0c1.52,9.12,3.82,22.08,6.1,34.74,31.39.95,82.08.88,82.08.88s11.15-1,23.32,12.15c9.19,9.94,23.56,24.64,30.07,31.25-1.39-3.6-3.77-8.28-3.3-13.42.65-7,21.69-76.29,21.69-76.29A152.24,152.24,0,0,1,247,207l-35.08,63L205,229.68Zm13.75-77.75,20.16,5.36c-23,16.45-44.18,7.48-44.18,7.48l15-8.69S213.42,154.28,218.71,151.93Z" style="fill:#4d6a99;fill-rule:evenodd"/><path d="M253,161.06s16.55,8.23,16,29.63-21.71,60-34.64,96.47c-.94,2,.34-7-20.08-13.28s-18-16.64-18-16.64l22.34-70.76S227.1,154.16,253,161.06Z" style="fill:#e6b5a3;fill-rule:evenodd"/><path d="M148.64,149.56a1.18,1.18,0,0,1,.49-1.61,1.2,1.2,0,0,1,1.62.48s6.72,13.11,25.87,12.42a47,47,0,0,0,30.68-12.57,1.2,1.2,0,0,1,1.69,0,1.19,1.19,0,0,1,0,1.68,49.48,49.48,0,0,1-32.31,13.29C156,164,148.66,149.61,148.64,149.56Z" style="fill:#4d6a99;fill-rule:evenodd"/><path d="M112.66,205.58a1.2,1.2,0,0,1-1.75-1.63s16.87-18.11,21-27a1.2,1.2,0,0,1,2.18,1C129.79,187.18,112.7,205.52,112.66,205.58Z" style="fill:#4d6a99;fill-rule:evenodd"/><path d="M139.26,268.93a1.19,1.19,0,1,1-2.22.87s-5.42-14-4-21.77c1.4-7.58,10.86-30.28,10.89-30.34a1.2,1.2,0,1,1,2.21.91c0,.07-9.4,22.55-10.75,29.86C134.09,255.58,139.25,268.89,139.26,268.93Z" style="fill:#4d6a99;fill-rule:evenodd"/><path d="M103.68,340.93a1.2,1.2,0,1,1,2.27-.77l3.07,9c-1-.37-1.94-.74-2.91-1.13Z" style="fill:#4d6a99;fill-rule:evenodd"/><path d="M122.73,90.23l-.89.25h0a12.39,12.39,0,1,0,10.54,1.42c.68,3.6.57,8.16-4,9.09l-.6-7.11C127.51,91,124.7,90,122.73,90.23Z" style="fill:#d68982;fill-rule:evenodd"/><path d="M208.64,80.49c.31,0,.61,0,.91.06h0a12.39,12.39,0,1,1-10,3.53c.05,3.66,1.09,8.1,5.79,8.08l-.87-7.09C204.11,82.21,206.66,80.62,208.64,80.49Z" style="fill:#d68982;fill-rule:evenodd"/><path d="M155.76,24.78h0a42.5,42.5,0,0,0-37.85,46.48l3.94,38.33a42.53,42.53,0,0,0,46.52,37.82h0a42.51,42.51,0,0,0,37.86-46.48L202.28,62.6A42.51,42.51,0,0,0,155.76,24.78Z" style="fill:#e7baa8;fill-rule:evenodd"/><path d="M152.14,102.68c1.08,2.88,3,8.09,2.81,9-.21,1.23-6.46,2.47-8.12.88-1.1-1.06.22-5.8,1.38-9C149.8,99.16,150.69,98.81,152.14,102.68Z" style="fill:#f0d3c8;fill-rule:evenodd"/><path d="M180.82,30A42.1,42.1,0,0,0,158,24.61L123.93,75.06s.36,21.93,12,17.51c22.2-8.42,29.88-36.46,48.77-35.71C194.58,44,189.12,35.42,180.82,30Z" style="fill:#d68982;fill-rule:evenodd"/><path d="M200.5,112.3a.53.53,0,0,1-.68.3.52.52,0,0,1-.29-.68s1.66-3.94,2.69-13.12c.52-4.68,1-7.52,1.67-9.32a5.4,5.4,0,0,1,1.4-2.17,17,17,0,0,0-.12,1.71v.18a5.91,5.91,0,0,0-.29.66c-.67,1.71-1.1,4.47-1.61,9-1,9.34-2.76,13.38-2.76,13.39Zm9.17-7.14c-.36,0-.72.07-1.08.08-.72,2.79-1.85,5.22-3.52,6.65a.52.52,0,0,0,0,.74.51.51,0,0,0,.73.05C207.64,111.05,208.9,108.29,209.67,105.16Z" style="fill:#fff;fill-rule:evenodd"/><path d="M178.72,106.79a9.31,9.31,0,1,0,10.06,8.5A9.31,9.31,0,0,0,178.72,106.79Z" style="fill:#d68982;fill-rule:evenodd"/><path d="M133.76,110.49a9.31,9.31,0,1,0,10.07,8.5A9.31,9.31,0,0,0,133.76,110.49Z" style="fill:#d68982;fill-rule:evenodd"/><path d="M127.44,90.88a1.55,1.55,0,1,1-1.66-2.61C129.55,85.81,134.85,85,139,87a1.55,1.55,0,1,1-1.31,2.81C134.35,88.21,130.46,89,127.44,90.88Z" style="fill:#1a103a;fill-rule:evenodd"/><path d="M180.25,85.87c-3-1.84-6.92-2.66-10.26-1.09A1.55,1.55,0,0,1,168.68,82c4.14-1.94,9.44-1.17,13.22,1.29a1.54,1.54,0,0,1-1.65,2.61Z" style="fill:#373061;fill-rule:evenodd"/><path d="M123.58,118,142,108.68s11.53-5.17,27-.36,29.52,2.71,32.58,0c0,0,3.35-2.82,4.56,1.89s-2.56,19-14.83,30.54S168,150.92,157.48,150.85,126.32,132.92,123,120.31a5.89,5.89,0,0,1,.17-3.88Z" style="fill:#fff;fill-rule:evenodd"/><path d="M205.38,92.72a16.29,16.29,0,0,1-9.52-17.08c-10.94-.76-24.68-16.39-14.28-29.25-15.67-5.07-20,18.52-29.07,30.33C126,111.4,84.06,98.23,90.06,57.21,98.05,2.71,183.86-20,196.84,21c40-2.89,25.35,45.73,29.61,66.17l-7.17.07s-3.65-6.21-9.62-5.61S205.38,92.72,205.38,92.72Z" style="fill:#373061;fill-rule:evenodd"/><path d="M178.77,98.75a1.17,1.17,0,0,1,.61.76.46.46,0,0,0,.54.34.45.45,0,0,0,.33-.54,2,2,0,0,0-.66-1.07l0,0a2.13,2.13,0,0,1,.95,1,.44.44,0,0,0,.59.22.45.45,0,0,0,.23-.59,3,3,0,0,0-1-1.22h0a2.8,2.8,0,0,1,1.2.75.45.45,0,0,0,.65-.61A3.61,3.61,0,0,0,181,96.9l-1.53.12Z" style="fill:#373061;fill-rule:evenodd"/><path d="M170.47,96.41a1.56,1.56,0,1,0-1.35,2.81,11.24,11.24,0,0,0,11.45-1.46,1.56,1.56,0,1,0-1.93-2.46A8,8,0,0,1,170.47,96.41Z" style="fill:#373061;fill-rule:evenodd"/><path d="M128.36,101.78a1.14,1.14,0,0,0-.51.82.45.45,0,0,1-.49.4.44.44,0,0,1-.4-.49,1.91,1.91,0,0,1,.53-1.14l0,0a2.11,2.11,0,0,0-.83,1.1.46.46,0,0,1-.56.29.45.45,0,0,1-.29-.57,2.92,2.92,0,0,1,.89-1.33h0a2.78,2.78,0,0,0-1.1.9.45.45,0,0,1-.63.09.44.44,0,0,1-.09-.62,3.54,3.54,0,0,1,1.1-1l1.54-.06Z" style="fill:#373061;fill-rule:evenodd"/><path d="M136.33,98.45a1.56,1.56,0,0,1,1.68,2.64,11.29,11.29,0,0,1-11.55-.09,1.56,1.56,0,1,1,1.62-2.67A8,8,0,0,0,136.33,98.45Z" style="fill:#373061;fill-rule:evenodd"/><path d="M129.75,127.6s-14.85,6.51-18,8.75-4.43,6.71-1.74,16.19,7.71,21.88,7.64,25.32c-.3,14.45-27.6,56.87-42.05,79.05C52.32,292.59,94.67,327.28,109.7,281l19.16-59.05v-.06c5-14.8,12.73-39.1,13.1-40.16.44-1.23,4.86-5.87,6.1-8.77s.43-14.4.53-15.67,4.36-4.1,4.92-5.58.15-4.39-.07-5.27-4.19-2.83-4.19-2.83-2.45-5-3.88-5.56a9.4,9.4,0,0,0-3.45-.32s-2.12-5.17-3.6-5.89a8.13,8.13,0,0,0-3.74-.46S133,127.05,129.75,127.6Z" style="fill:#e7baa8;fill-rule:evenodd"/><path d="M134,206.48c4-12.15,7.74-24,8-24.77.44-1.23,4.86-5.87,6.1-8.77a16.37,16.37,0,0,0,.66-4.83l-3.4-9.7-21.55-2.81Z" style="fill:#d68982;fill-rule:evenodd"/><path d="M134.28,130.71a.72.72,0,1,1,.6,1.3l-12.34,5.78a.72.72,0,0,1-1-.35.71.71,0,0,1,.35-.95Z" style="fill:#d68982;fill-rule:evenodd"/><path d="M141.58,137.08a.71.71,0,1,1,.69,1.25l-11.44,6.28a.71.71,0,0,1-1-.28.72.72,0,0,1,.28-1Z" style="fill:#d68982;fill-rule:evenodd"/><path d="M148.89,143a.72.72,0,0,1,1,.26.7.7,0,0,1-.25,1l-9.94,5.86a.73.73,0,0,1-1-.26.72.72,0,0,1,.25-1Z" style="fill:#d68982;fill-rule:evenodd"/><path d="M148.59,155.82a.72.72,0,0,1,1-.16.71.71,0,0,1,.16,1s-3.76,5.17-4.46,7.12a.71.71,0,0,1-1.35-.47C144.71,161.16,148.58,155.84,148.59,155.82Z" style="fill:#d68982;fill-rule:evenodd"/><path d="M142.1,180.12a.72.72,0,0,1,1-.1.72.72,0,0,1,.09,1s-2.69,3.33-9.08,2.5a.72.72,0,0,1,.18-1.42C139.91,182.84,142.1,180.12,142.1,180.12Z" style="fill:#d68982;fill-rule:evenodd"/><path d="M129.54,222.16a.73.73,0,0,1-.91.45.72.72,0,0,1-.44-.91c3.5-10.09,8.85-26.89,11.5-35.23.91-2.88,1.52-4.77,1.6-5a17.48,17.48,0,0,1,2.21-3.14,32,32,0,0,0,3.9-5.67.71.71,0,0,1,.94-.38.72.72,0,0,1,.38.94,32.49,32.49,0,0,1-4.09,6,18.69,18.69,0,0,0-2,2.74c-.12.35-.7,2.17-1.59,4.94C138.4,195.24,133.05,212.05,129.54,222.16Z" style="fill:#d68982;fill-rule:evenodd"/><path d="M143.49,126.11s16.59,3.78,20.3,5.46,5.89,6,5,16.32-3.62,24.07-2.87,27.6c3.17,14.82,39.66,53.13,58.93,73.14,31,32.17-5.78,76.25-30.41,31.52l-31.4-57V223c-8.09-14.25-20.83-37.76-21.42-38.77-.7-1.19-6.16-5.1-8-7.84s-3.29-14.75-3.64-16-5.3-3.36-6.17-4.78-1-4.49-1-5.43,3.75-3.75,3.75-3.75,1.53-5.67,2.9-6.49a9.87,9.87,0,0,1,3.49-1s1.17-5.73,2.54-6.76a8.51,8.51,0,0,1,3.77-1.22S140.06,126.17,143.49,126.11Z" style="fill:#e7baa8;fill-rule:evenodd"/><path d="M139.08,131.63a.73.73,0,0,1-.52-.87.72.72,0,0,1,.88-.52l13.85,3.52a.72.72,0,1,1-.35,1.39Z" style="fill:#d68982;fill-rule:evenodd"/><path d="M132.73,139.6a.72.72,0,0,1,.44-1.37l13,4.22a.71.71,0,0,1-.44,1.36Z" style="fill:#d68982;fill-rule:evenodd"/><path d="M126.32,147.1a.72.72,0,0,1,.48-1.36l11.39,4.07a.72.72,0,0,1,.43.92.7.7,0,0,1-.91.43Z" style="fill:#d68982;fill-rule:evenodd"/><path d="M128.65,160a.71.71,0,0,1,0-1,.72.72,0,0,1,1,0s5.05,4.73,6.26,6.79a.71.71,0,1,1-1.23.72C133.56,164.55,128.66,160,128.65,160Z" style="fill:#d68982;fill-rule:evenodd"/><path d="M140.2,183.76a.71.71,0,1,1,.92-1.09s2.81,2.38,8.46.52a.72.72,0,0,1,.45,1.36C143.62,186.66,140.21,183.77,140.2,183.76Z" style="fill:#d68982;fill-rule:evenodd"/><path d="M163.65,222.74a.72.72,0,1,1-1.24.72c-5.66-9.81-14.46-26-18.82-34.05-1.5-2.77-2.49-4.58-2.61-4.79a20.42,20.42,0,0,0-2.6-2.44,34.15,34.15,0,0,1-5.39-5.36.73.73,0,0,1,.19-1,.72.72,0,0,1,1,.2,33.92,33.92,0,0,0,5.14,5.08,18.12,18.12,0,0,1,2.89,2.79c.21.35,1.17,2.13,2.64,4.83C149.25,196.82,158.1,213.14,163.65,222.74Z" style="fill:#d68982;fill-rule:evenodd"/><path d="M111.38,135.87a.6.6,0,1,1,.69,1,7,7,0,0,0-2.82,5c-.37,2.51,0,5.91,1.3,10.56,1.06,3.74,2.49,7.95,3.83,11.88,2.05,6.05,3.88,11.44,3.84,13.62-.16,7.34-7.09,21.65-15.8,36.91S83.3,246.14,76.07,257.24a.61.61,0,0,1-.83.17.59.59,0,0,1-.17-.82c7.22-11.09,17.65-27.23,26.31-42.4S116.88,185,117,177.85c0-2-1.76-7.27-3.78-13.22-1.34-3.94-2.78-8.16-3.85-11.93-1.37-4.83-1.73-8.4-1.34-11.06A8.09,8.09,0,0,1,111.38,135.87Z" style="fill:#d68982;fill-rule:evenodd"/><path d="M142.11,184a.6.6,0,0,1-1,.61,19.16,19.16,0,0,0-2.62-2.47,34.32,34.32,0,0,1-5.37-5.34c-1.47-2.18-2.65-9.63-3.3-13.71-.2-1.28-.35-2.22-.42-2.5-.12-.45-1.47-1.27-2.83-2.11a11.11,11.11,0,0,1-3.28-2.52,7.45,7.45,0,0,1-.81-2.44,17.59,17.59,0,0,1-.24-3.34c.06-1.08,3.1-3.5,3.83-4.06.29-1,1.71-5.8,3.11-6.65a9.86,9.86,0,0,1,3.3-1c.31-1.38,1.37-5.73,2.69-6.71l0,0a8.58,8.58,0,0,1,3.59-1.25c.31-1.27,1.48-4.82,4.71-4.88h.15c.05,0,16.64,3.8,20.4,5.51a8.42,8.42,0,0,1,4.55,5.28v0c.92,2.66,1.25,6.39.8,11.61-.35,4.06-1,8.71-1.6,13.05-.91,6.52-1.72,12.34-1.29,14.36,1.56,7.3,11.43,20.5,23.3,34.37s25.85,28.49,35.48,38.48a.6.6,0,1,1-.86.83c-9.64-10-23.59-24.6-35.53-38.54s-21.95-27.37-23.56-34.89c-.47-2.23.35-8.14,1.27-14.77.6-4.3,1.24-8.91,1.6-13,.43-5,.13-8.61-.73-11.11v0a7.28,7.28,0,0,0-3.91-4.58c-3.53-1.6-18.93-5.15-20.11-5.42-2.8.13-3.54,4.09-3.58,4.32a.6.6,0,0,1-.55.51,7.94,7.94,0,0,0-3.42,1.07l0,0c-1.14.86-2.21,5.91-2.31,6.38a.6.6,0,0,1-.55.51,9,9,0,0,0-3.22.94c-1.17.69-2.63,6.11-2.64,6.12a.57.57,0,0,1-.21.32s-3.48,2.65-3.52,3.31a15.63,15.63,0,0,0,.23,3.07,6.23,6.23,0,0,0,.65,2,11.41,11.41,0,0,0,2.89,2.12c1.56,1,3.11,1.91,3.35,2.82.09.35.25,1.31.45,2.63.63,4,1.78,11.26,3.11,13.22a33.75,33.75,0,0,0,5.16,5.11A18.39,18.39,0,0,1,142.11,184Z" style="fill:#d68982;fill-rule:evenodd"/><path d="M219.5,66.19l-.23,8.19,7.18,12.75s.55,7.63,8.05,20.51,11,18.51,9.62,22.49c-14.87,42.1-63.91,37.68-55.21,26.23a64.31,64.31,0,0,0,17.54-51.25h0a12.2,12.2,0,0,0,3.31,0A12.37,12.37,0,0,0,214.2,82Z" style="fill:#373061;fill-rule:evenodd"/><path d="M211.41,209.26l-5.76,18.23c3.8,4.11,7.53,8.07,11,11.74Z" style="fill:#d68982;fill-rule:evenodd"/><path d="M147.48,199.35a40.42,40.42,0,0,0,3,21.48c4.86,10.81,14.87,16.62,22.71,30.41s16.24,37.83,27.87,50,33.27,3.52,41.93-18.1,4.6-28.45,13-49.16,15.63-35.16,13.19-50.57S258.57,162.54,253,161.06c-31.46-8.38-36.68,32.35-46.58,64,0,0-11.07-10.67-14.05-20.67s-9.47-17.17-20-18.11S166,193.94,147.48,199.35Z" style="fill:#fff;fill-rule:evenodd"/><path d="M147.71,202.15a4.35,4.35,0,0,1-1.85-1.32s-3.52-8.1-3.38-8.78a9.05,9.05,0,0,1,1.36-2.18l1.26,2.32c13.77,2.58,23.61-11.11,23.61-11.11l-1-2.19a3.91,3.91,0,0,1,2.2.8,41.17,41.17,0,0,1,3.72,5.67,2.72,2.72,0,0,1-.19,1.89C170.89,194.22,155.37,205.36,147.71,202.15Z" style="fill:#fff;fill-rule:evenodd"/><path d="M116.48,191.3l-4.74-1s-2.63,1.31-6.62,6.85-5.07,17.09-14,30.07-20.19,29.31-22.72,38.5-2.74,25.48,4.6,33.11c5.88,6.13,22.1,6.72,25,4.91,21.51-13.25,17.73-35.86,23.41-54.78s22.42-28.1,16.87-49.58C135.21,191.63,132.78,198.66,116.48,191.3Z" style="fill:#fff;fill-rule:evenodd"/><path d="M137.94,201.56a4.1,4.1,0,0,0,1.57-1.46s2.31-8.06,2.1-8.68a8.28,8.28,0,0,0-1.54-1.88l-.9,2.34c-12.63,4.12-23.57-7.55-23.57-7.55l.7-2.19a3.72,3.72,0,0,0-2,1,38.84,38.84,0,0,0-2.8,5.79,2.62,2.62,0,0,0,.41,1.76C115.17,197,131.13,205.52,137.94,201.56Z" style="fill:#fff;fill-rule:evenodd"/><path d="M167.67,178.89a3.91,3.91,0,0,1,2.2.8,41.17,41.17,0,0,1,3.72,5.67,2.72,2.72,0,0,1-.19,1.89c-2.51,7-18,18.11-25.69,14.9a4.35,4.35,0,0,1-1.85-1.32s-3.52-8.1-3.38-8.78a9.05,9.05,0,0,1,1.36-2.18" style="fill:none;stroke:#cbd8f0;stroke-linecap:round;stroke-linejoin:round;stroke-width:0.7087px;fill-rule:evenodd"/><path d="M116.3,182.14a3.72,3.72,0,0,0-2,1,38.84,38.84,0,0,0-2.8,5.79,2.62,2.62,0,0,0,.41,1.76c3.22,6.24,19.18,14.81,26,10.85a4.1,4.1,0,0,0,1.57-1.46s2.31-8.06,2.1-8.68a8.28,8.28,0,0,0-1.54-1.88" style="fill:none;stroke:#cbd8f0;stroke-linecap:round;stroke-linejoin:round;stroke-width:0.7087px;fill-rule:evenodd"/><path d="M206.43,225S222.21,236.7,229.31,254" style="fill:none;stroke:#cbd8f0;stroke-linecap:round;stroke-linejoin:round;stroke-width:0.7087px;fill-rule:evenodd"/><line x1="249.51" y1="258.55" x2="257.13" y2="202.3" style="fill:none;stroke:#cbd8f0;stroke-linecap:round;stroke-linejoin:round;stroke-width:0.7087px"/><path d="M111.74,190.26s-2.63,1.31-6.62,6.85-5.07,17.09-14,30.07-20.19,29.31-22.72,38.5" style="fill:none;stroke:#cbd8f0;stroke-linecap:round;stroke-linejoin:round;stroke-width:0.7087px;fill-rule:evenodd"/><path d="M176.83,2A38.94,38.94,0,0,0,173,4.81C157.53,17.5,137.27,47.32,105.19,26A60.54,60.54,0,0,0,91.4,50.84c9.56,7.84,21.11,15.3,31.76,16.87,24,3.53,35-21.12,42.35-35.31,4.36-8.45,11.08-20.54,21-25.7A33.26,33.26,0,0,0,176.83,2Z" style="fill:#443e6f;fill-rule:evenodd"/><path d="M56.89,86.73h0a8.39,8.39,0,0,1,8.37,8.37v88.35a20,20,0,1,1-16.74,0V95.1A8.4,8.4,0,0,1,56.89,86.73Z" style="fill:#fff;fill-rule:evenodd"/><path d="M53.62,142.9v40.55a5,5,0,0,1-3,4.62,14.92,14.92,0,1,0,12.47,0,5,5,0,0,1-3-4.62V142.9Z" style="fill:#d28478;fill-rule:evenodd"/><path d="M54.8,141.54H59a1.19,1.19,0,0,0,1.19-1.18h0A1.19,1.19,0,0,0,59,139.18H54.8a1.18,1.18,0,0,0-1.18,1.18h0A1.18,1.18,0,0,0,54.8,141.54Z" style="fill:#d28478;fill-rule:evenodd"/><rect x="60.94" y="94.73" width="2.27" height="1.68" rx="0.84" style="fill:#d1cee6"/><rect x="60.94" y="99.82" width="2.27" height="1.68" rx="0.84" style="fill:#d1cee6"/><rect x="60.94" y="104.91" width="2.27" height="1.68" rx="0.84" style="fill:#d1cee6"/><path d="M61.79,111.68h.59a.84.84,0,0,0,.84-.84h0a.85.85,0,0,0-.84-.84h-.59a.85.85,0,0,0-.85.84h0A.84.84,0,0,0,61.79,111.68Z" style="fill:#d1cee6;fill-rule:evenodd"/><rect x="60.94" y="115.09" width="2.27" height="1.68" rx="0.84" style="fill:#d1cee6"/><rect x="60.94" y="120.18" width="2.27" height="1.68" rx="0.84" style="fill:#d1cee6"/><rect x="60.94" y="125.27" width="2.27" height="1.68" rx="0.84" style="fill:#d1cee6"/><rect x="60.94" y="130.36" width="2.27" height="1.68" rx="0.84" style="fill:#d1cee6"/><rect x="60.94" y="135.45" width="2.27" height="1.68" rx="0.84" style="fill:#d1cee6"/><rect x="60.94" y="140.54" width="2.27" height="1.68" rx="0.84" style="fill:#d1cee6"/><rect x="60.94" y="145.63" width="2.27" height="1.68" rx="0.84" style="fill:#d1cee6"/><rect x="60.94" y="150.72" width="2.27" height="1.68" rx="0.84" style="fill:#d1cee6"/><rect x="60.94" y="155.81" width="2.27" height="1.68" rx="0.84" style="fill:#d1cee6"/><rect x="60.94" y="160.9" width="2.27" height="1.68" rx="0.84" style="fill:#d1cee6"/><rect x="60.94" y="165.99" width="2.27" height="1.68" rx="0.84" style="fill:#d1cee6"/><rect x="60.94" y="171.08" width="2.27" height="1.68" rx="0.84" style="fill:#d1cee6"/><rect x="60.94" y="176.17" width="2.27" height="1.68" rx="0.84" style="fill:#d1cee6"/><path d="M277.73,83.92h52.95a11.47,11.47,0,0,0,11.45-11.43h0a11.48,11.48,0,0,0-11.45-11.44h1.15a5.38,5.38,0,0,1-5.37-5.36h0a5.38,5.38,0,0,1,5.37-5.37h27.82A11.48,11.48,0,0,0,371.1,38.89h0a11.48,11.48,0,0,0-11.45-11.44h-53a11.48,11.48,0,0,0-11.45,11.44h0a11.48,11.48,0,0,0,11.45,11.43h.09a5.39,5.39,0,0,1,5.37,5.37h0a5.38,5.38,0,0,1-5.37,5.36h-29a11.48,11.48,0,0,0-11.45,11.44h0A11.47,11.47,0,0,0,277.73,83.92Z" style="fill:#f4dcb1;fill-rule:evenodd"/></g></g></svg>