<svg xmlns="http://www.w3.org/2000/svg" xmlns:xlink="http://www.w3.org/1999/xlink" viewBox="0 0 1429 1574.81"><defs><linearGradient id="linear-gradient" x1="654.75" y1="1031.4" x2="654.75" y2="544.93" gradientUnits="userSpaceOnUse"><stop offset="0" stop-color="red"/><stop offset="0.18" stop-color="#fe1111"/><stop offset="0.55" stop-color="#fd3e3e"/><stop offset="1" stop-color="#fb7e7e"/></linearGradient><linearGradient id="linear-gradient-2" x1="720.18" y1="1030.08" x2="720.18" y2="544.69" xlink:href="#linear-gradient"/><linearGradient id="linear-gradient-3" x1="874.68" y1="1020.78" x2="874.68" y2="535.4" xlink:href="#linear-gradient"/><radialGradient id="radial-gradient" cx="3421.52" cy="-90.11" r="42.2" gradientTransform="matrix(0.49, 0, 0, -0.49, -1014.56, 732.53)" gradientUnits="userSpaceOnUse"><stop offset="0.31" stop-color="#fff"/><stop offset="0.34" stop-color="#f5fbff"/><stop offset="0.39" stop-color="#d8f2ff"/><stop offset="0.46" stop-color="#abe2fe"/><stop offset="0.54" stop-color="#6ccdfe"/><stop offset="0.55" stop-color="#64cafe"/><stop offset="0.61" stop-color="#5ab7e6"/><stop offset="0.72" stop-color="#4285a7"/><stop offset="0.89" stop-color="#1b3644"/><stop offset="1"/></radialGradient><radialGradient id="radial-gradient-2" cx="980.75" cy="756.79" r="18.47" gradientTransform="translate(-1161.92 -411.79) scale(1.81)" gradientUnits="userSpaceOnUse"><stop offset="0.01" stop-color="#2c66a1"/><stop offset="1"/></radialGradient><radialGradient id="radial-gradient-3" cx="588.35" cy="364.72" r="75.26" gradientUnits="userSpaceOnUse"><stop offset="0" stop-color="#fff"/><stop offset="0.13" stop-color="#e2e2e2"/><stop offset="0.43" stop-color="#999798"/><stop offset="0.85" stop-color="#252122"/><stop offset="0.86" stop-color="#231f20"/></radialGradient><radialGradient id="radial-gradient-4" cx="949.19" cy="69.98" r="160.25" xlink:href="#radial-gradient-3"/><radialGradient id="radial-gradient-5" cx="953.48" cy="165.94" r="129.86" gradientTransform="translate(396.6 -625.61) rotate(45)" gradientUnits="userSpaceOnUse"><stop offset="0.8"/><stop offset="1" stop-color="#fff"/></radialGradient><radialGradient id="radial-gradient-6" cx="1019.9" cy="893.26" r="52.9" xlink:href="#radial-gradient-3"/><radialGradient id="radial-gradient-7" cx="1117.61" cy="638.3" r="71.32" xlink:href="#radial-gradient-3"/><radialGradient id="radial-gradient-8" cx="1119.52" cy="681" r="57.79" gradientTransform="matrix(1, 0, 0, 1, 0, 0)" xlink:href="#radial-gradient-5"/><radialGradient id="radial-gradient-9" cx="250.78" cy="636.19" r="50.76" xlink:href="#radial-gradient-3"/></defs><title>chinese-woman-2</title><g style="isolation:isolate"><g id="Layer_2" data-name="Layer 2"><path d="M754,1025.05c7.3-4.64-10.46-17.2,16.89-25.2,34.8-10.19,50.23-5.67,66.16-22.64s41.2-55.73,41.2-55.73v-14.7L893,898.86s12.39-28.07-3.54-39.38-23.77-61.55-10.11-70.6c7.05-4.67,19.36-10.78,27.05-16.07,7.21-4.95,3.35-9.12,1.26-10.83s-32.29,13.89-39.12,8.24,13.65-41.59-6.83-43.29-18-5.42-2.61-16.73,32.19-30.78,40.16-24.56c5.62,4.39-.31,12.8,4.85,18.78a23.54,23.54,0,0,0,21.42,7.82c3.91-.65,15.48-5.87,8.49-10.23,2.75-10.23,15.74-9.76,23-13.94,8.86-5.09,11.16-16.47,21.07-19.94s18.37,3,28.26-3.68c1.67-1.12,4.38-9.78,7.66-19.34,4.36-12.68,9.72-27,15-27.3,11.38-.76,14.08,2.18,29.25-19.69s25.25-32.41,6.29-21.86C1048,585.5,1035,559.6,1023.82,552c-6.53-4.42-11.7-2.77-17.34-10.41-6-8.16-8.88-18.31-13.22-27.43-4-8.48-13.4-23-12.65-33,.32-4.12,1.1-14.91-1.31-16.81-4.78-3.77-18.58-11.27-24.73-10.7-4.53.42-7,5.51-11.05,6-11.08,1.43-19.38-13.41-27.8-18.08-9.49-5.25-21.32-3.31-24.93,7.92-2.73,8.47-3.13,17.91-8.46,25.29a118.88,118.88,0,0,1-23.59,23.51c-3.18,2.35-5.24,2.06-5,6.74.2,3.8,4.2,7.35,7.7,7.22,4.31-.17,10,7.27,15.08,8.35s5.57,6.87,5.3,11.26-47.21,21.43-46.74,27.67c.61,8-13.86,18.17-18.73,22.3-8.45,7.17-19.77,10.67-27,19.3-3,3.6-2.08,4.81-7.19,7.45-4.5,2.32-9.92,2.92-14.33,5.58-2.86,1.72-5.42,6.17-8.46,7.49-6.19,2.67-12.78-3.51-18.87-4-8.65-.65-18.89,6.51-26.86,9.21-5.57,1.89-12,5.39-17.93,5.42-4,0-7.78-1.87-11.81-2.06-10.24-.47-21,3.21-30.16,7.64-11.4,5.53-24.1,3.86-36,5.29-12.21,1.47-18.84-4-29.79-8.71-1.62-.69-22.32-7.67-23-6.06-1.41,3.08-69-24.55-63.56-32.47,2.42-3.54-1.81-10-2.48-13.78-.93-5.16.49-10.52-2.37-15.25-3-4.9-9.45-7-13.75-10.39-5.25-4.08-3.59-6-6-11.25-1.72-3.69-2.26-4.47-8-6.67-4.81-1.84-12.25-2.36-16.31-5.75-3.84-3.22-4.7-7.11-8.72-10.35-8.29-6.68-25.13-11.51-33.79-3.07-4.65,4.53-12.67,32.79-23.11,26.59-9.56-5.68-34.2,8.65-35.27,19.23-1.45,14.38,6.09,22.85-3,36.39-9.86,14.72-25.8,20-34.31,36.41-4.21,8.08-8.71,15.58-12.77,23.84-4.18,8.52-9.83,17.65-18.25,22.14,0,5.24,4.89,8.42,8.8,10.63-2.11,4-6.71,5.6-8.91,9.24-.67,1.1.09,2.51-.43,3.48-5,9.38-9.59,19.1-19.89,17.68-7.31-1-21.83-2.27-27.34,5.13-3.9,5.23,5.48,28.5,9.58,27.36s38.63,44.42,58,41,6.84,15.76,3.42,20.36,1.56,12.65,3.15,16.4,3.79,20.13,11.95,25.45c12.6,8.22,26.89,14.33,40.24,21,19.65,9.87,39.36,19.68,59.45,28.53,13.62,6,36.06,17.2,48.69,4.94,4.56-4.43,7.83-9.38,14.2-11.33,7.58-2.32,17.67-3.61,23.46-10a9.75,9.75,0,0,1-1.53-.08c.16-2.53,1.65-4.81,2.55-7.2,3.9-.09,8.13.56,12,0,5.37-.79,5-2.85,9-5.68,8.83-6.27,15.9,8.15,19.68,14.32,1.9,3.11,6.85,8,7.66,11.82,1.14,5.42-3.53,8.06-5.67,12.11-3.4,6.44-4.17,13.1-9.08,19-4.56,5.5-9.6,9-6.79,17.14,3.8,10.94,5.69,16.21,5.69,16.21s12.9,5.66,12.52,10.56-3.79,7.17,3.41,12.44c2.44,1.79,6,2.33,8.85,3,5.41,1.31,10.89,2.29,16.37,3.2,12.9,2.15,25.9,3.84,38.93,4.88,2.77.22,5.55.42,8.33.53a20.11,20.11,0,0,1,3.89.11c1.43.37,2.37,1.39,3.94,1.53,6,.55,12.58-5.32,16.43-9.5a6.72,6.72,0,0,1-.7-.09c1.78,1.9,4.38,2.34,6.84,2.59,3.2.33,6.78-.81,9.89-.23,1.6.3,2.73,1.25,4.22,1.75,2.33.79,5,.68,7.21,1.79,2,1,3.74,2.58,5.86,3.54,13.27,6,24.36,2.64,33.09-2.64S741,1033.29,754,1025.05Z" style="fill:url(#linear-gradient)"/><path d="M715.08,1039.65c-6.28,8.41-3.42,16-1.9,18.9s6.46,11.41,10.64,2.14,6.27-17.83,4.94-23.9S723.06,1029,715.08,1039.65Z" style="fill:url(#linear-gradient-2)"/><path d="M875.51,1000.46s10.06-38.74,10.63-40.84-7.43-5-10.63.12-17.64,36.19-10.24,40.72S875.51,1000.46,875.51,1000.46Z" style="fill:url(#linear-gradient-3)"/></g><g id="Layer_6" data-name="Layer 6"><g style="opacity:0.13"><ellipse cx="933.92" cy="782.83" rx="2.38" ry="2.43" style="fill:#fff"/><path d="M933.92,822.35a2.43,2.43,0,1,1,2.38-2.43A2.4,2.4,0,0,1,933.92,822.35Z" style="fill:#fff"/><ellipse cx="933.92" cy="857.01" rx="2.38" ry="2.43" style="fill:#fff"/><path d="M933.92,896.54a2.44,2.44,0,1,1,2.38-2.44A2.41,2.41,0,0,1,933.92,896.54Z" style="fill:#fff"/><ellipse cx="933.92" cy="931.2" rx="2.38" ry="2.43" style="fill:#fff"/><ellipse cx="909.21" cy="782.83" rx="2.38" ry="2.43" style="fill:#fff"/><path d="M909.21,822.35a2.43,2.43,0,1,1,2.39-2.43A2.41,2.41,0,0,1,909.21,822.35Z" style="fill:#fff"/><ellipse cx="909.21" cy="857.01" rx="2.38" ry="2.43" style="fill:#fff"/><path d="M909.21,896.54a2.44,2.44,0,1,1,2.39-2.44A2.41,2.41,0,0,1,909.21,896.54Z" style="fill:#fff"/><ellipse cx="909.21" cy="931.2" rx="2.38" ry="2.43" style="fill:#fff"/><path d="M884.51,785.26a2.43,2.43,0,1,1,2.38-2.43A2.41,2.41,0,0,1,884.51,785.26Z" style="fill:#fff"/><path d="M884.51,822.35a2.43,2.43,0,1,1,2.38-2.43A2.41,2.41,0,0,1,884.51,822.35Z" style="fill:#fff"/><path d="M884.51,859.45a2.44,2.44,0,1,1,2.38-2.44A2.41,2.41,0,0,1,884.51,859.45Z" style="fill:#fff"/><path d="M884.51,896.54a2.44,2.44,0,1,1,2.38-2.44A2.41,2.41,0,0,1,884.51,896.54Z" style="fill:#fff"/><path d="M884.51,933.63a2.44,2.44,0,1,1,2.38-2.43A2.41,2.41,0,0,1,884.51,933.63Z" style="fill:#fff"/><path d="M859.8,785.26a2.43,2.43,0,1,1,2.38-2.43A2.4,2.4,0,0,1,859.8,785.26Z" style="fill:#fff"/><path d="M859.8,822.35a2.43,2.43,0,1,1,2.38-2.43A2.4,2.4,0,0,1,859.8,822.35Z" style="fill:#fff"/><path d="M859.8,859.45a2.44,2.44,0,1,1,2.38-2.44A2.41,2.41,0,0,1,859.8,859.45Z" style="fill:#fff"/><path d="M859.8,896.54a2.44,2.44,0,1,1,2.38-2.44A2.41,2.41,0,0,1,859.8,896.54Z" style="fill:#fff"/><path d="M859.8,933.63a2.44,2.44,0,1,1,2.38-2.43A2.4,2.4,0,0,1,859.8,933.63Z" style="fill:#fff"/><path d="M835.09,785.26a2.43,2.43,0,1,1,2.39-2.43A2.41,2.41,0,0,1,835.09,785.26Z" style="fill:#fff"/><path d="M835.09,822.35a2.43,2.43,0,1,1,2.39-2.43A2.41,2.41,0,0,1,835.09,822.35Z" style="fill:#fff"/><path d="M835.09,859.45a2.44,2.44,0,1,1,2.39-2.44A2.41,2.41,0,0,1,835.09,859.45Z" style="fill:#fff"/><path d="M835.09,896.54a2.44,2.44,0,1,1,2.39-2.44A2.41,2.41,0,0,1,835.09,896.54Z" style="fill:#fff"/><path d="M835.09,933.63a2.44,2.44,0,1,1,2.39-2.43A2.41,2.41,0,0,1,835.09,933.63Z" style="fill:#fff"/><path d="M810.39,785.26a2.43,2.43,0,1,1,2.38-2.43A2.41,2.41,0,0,1,810.39,785.26Z" style="fill:#fff"/><path d="M810.39,822.35a2.43,2.43,0,1,1,2.38-2.43A2.41,2.41,0,0,1,810.39,822.35Z" style="fill:#fff"/><path d="M810.39,859.45a2.44,2.44,0,1,1,2.38-2.44A2.41,2.41,0,0,1,810.39,859.45Z" style="fill:#fff"/><path d="M810.39,896.54a2.44,2.44,0,1,1,2.38-2.44A2.41,2.41,0,0,1,810.39,896.54Z" style="fill:#fff"/><path d="M810.39,933.63a2.44,2.44,0,1,1,2.38-2.43A2.41,2.41,0,0,1,810.39,933.63Z" style="fill:#fff"/><path d="M785.68,785.26a2.43,2.43,0,1,1,2.38-2.43A2.4,2.4,0,0,1,785.68,785.26Z" style="fill:#fff"/><path d="M785.68,822.35a2.43,2.43,0,1,1,2.38-2.43A2.4,2.4,0,0,1,785.68,822.35Z" style="fill:#fff"/><path d="M785.68,859.45a2.44,2.44,0,1,1,2.38-2.44A2.41,2.41,0,0,1,785.68,859.45Z" style="fill:#fff"/><path d="M785.68,896.54a2.44,2.44,0,1,1,2.38-2.44A2.41,2.41,0,0,1,785.68,896.54Z" style="fill:#fff"/><path d="M785.68,933.63a2.44,2.44,0,1,1,2.38-2.43A2.4,2.4,0,0,1,785.68,933.63Z" style="fill:#fff"/><ellipse cx="760.97" cy="782.83" rx="2.38" ry="2.43" style="fill:#fff"/><ellipse cx="760.97" cy="819.92" rx="2.38" ry="2.43" style="fill:#fff"/><ellipse cx="760.97" cy="857.01" rx="2.38" ry="2.43" style="fill:#fff"/><ellipse cx="760.97" cy="894.1" rx="2.38" ry="2.43" style="fill:#fff"/><ellipse cx="760.97" cy="931.2" rx="2.38" ry="2.43" style="fill:#fff"/><ellipse cx="736.27" cy="782.83" rx="2.38" ry="2.43" style="fill:#fff"/><ellipse cx="736.27" cy="819.92" rx="2.38" ry="2.43" style="fill:#fff"/><ellipse cx="736.27" cy="857.01" rx="2.38" ry="2.43" style="fill:#fff"/><ellipse cx="736.27" cy="894.1" rx="2.38" ry="2.43" style="fill:#fff"/><ellipse cx="736.27" cy="931.2" rx="2.38" ry="2.43" style="fill:#fff"/><path d="M711.56,785.26a2.43,2.43,0,1,1,2.38-2.43A2.4,2.4,0,0,1,711.56,785.26Z" style="fill:#fff"/><path d="M711.56,822.35a2.43,2.43,0,1,1,2.38-2.43A2.4,2.4,0,0,1,711.56,822.35Z" style="fill:#fff"/><path d="M711.56,859.45a2.44,2.44,0,1,1,2.38-2.44A2.41,2.41,0,0,1,711.56,859.45Z" style="fill:#fff"/><path d="M711.56,896.54a2.44,2.44,0,1,1,2.38-2.44A2.41,2.41,0,0,1,711.56,896.54Z" style="fill:#fff"/><path d="M711.56,933.63a2.44,2.44,0,1,1,2.38-2.43A2.4,2.4,0,0,1,711.56,933.63Z" style="fill:#fff"/><path d="M686.85,785.26a2.43,2.43,0,1,1,2.39-2.43A2.41,2.41,0,0,1,686.85,785.26Z" style="fill:#fff"/><path d="M686.85,822.35a2.43,2.43,0,1,1,2.39-2.43A2.41,2.41,0,0,1,686.85,822.35Z" style="fill:#fff"/><path d="M686.85,859.45a2.44,2.44,0,1,1,2.39-2.44A2.41,2.41,0,0,1,686.85,859.45Z" style="fill:#fff"/><path d="M686.85,896.54a2.44,2.44,0,1,1,2.39-2.44A2.41,2.41,0,0,1,686.85,896.54Z" style="fill:#fff"/><path d="M686.85,933.63a2.44,2.44,0,1,1,2.39-2.43A2.41,2.41,0,0,1,686.85,933.63Z" style="fill:#fff"/><path d="M662.15,785.26a2.43,2.43,0,1,1,2.38-2.43A2.41,2.41,0,0,1,662.15,785.26Z" style="fill:#fff"/><path d="M662.15,822.35a2.43,2.43,0,1,1,2.38-2.43A2.41,2.41,0,0,1,662.15,822.35Z" style="fill:#fff"/><path d="M662.15,859.45a2.44,2.44,0,1,1,2.38-2.44A2.41,2.41,0,0,1,662.15,859.45Z" style="fill:#fff"/><path d="M662.15,896.54a2.44,2.44,0,1,1,2.38-2.44A2.41,2.41,0,0,1,662.15,896.54Z" style="fill:#fff"/><path d="M662.15,933.63a2.44,2.44,0,1,1,2.38-2.43A2.41,2.41,0,0,1,662.15,933.63Z" style="fill:#fff"/><path d="M637.44,785.26a2.43,2.43,0,1,1,2.38-2.43A2.4,2.4,0,0,1,637.44,785.26Z" style="fill:#fff"/><path d="M637.44,822.35a2.43,2.43,0,1,1,2.38-2.43A2.4,2.4,0,0,1,637.44,822.35Z" style="fill:#fff"/><path d="M637.44,859.45a2.44,2.44,0,1,1,2.38-2.44A2.41,2.41,0,0,1,637.44,859.45Z" style="fill:#fff"/><path d="M637.44,896.54a2.44,2.44,0,1,1,2.38-2.44A2.41,2.41,0,0,1,637.44,896.54Z" style="fill:#fff"/><path d="M637.44,933.63a2.44,2.44,0,1,1,2.38-2.43A2.4,2.4,0,0,1,637.44,933.63Z" style="fill:#fff"/></g><g style="opacity:0.24;mix-blend-mode:overlay"><path d="M518.76,833.49a17.33,17.33,0,1,1,17.33-17.33A17.34,17.34,0,0,1,518.76,833.49Zm0-32.51A15.19,15.19,0,1,0,534,816.16,15.2,15.2,0,0,0,518.76,801Z" style="fill:#fbf7ff"/><polygon points="322.95 711.3 328.38 711.3 305.54 734.13 305.54 728.71 322.95 711.3" style="fill:#fff"/><polygon points="341.72 711.3 305.54 747.48 305.54 742.05 336.3 711.3 341.72 711.3" style="fill:#fff"/><polygon points="355.07 711.3 305.54 760.83 305.54 755.4 349.64 711.3 355.07 711.3" style="fill:#fff"/><polygon points="368.4 711.3 305.54 774.16 305.54 768.75 362.99 711.3 368.4 711.3" style="fill:#fff"/><polygon points="381.74 711.3 305.54 787.5 305.54 782.08 376.32 711.3 381.74 711.3" style="fill:#fff"/><polygon points="395.08 711.3 305.54 800.84 305.54 795.42 389.66 711.3 395.08 711.3" style="fill:#fff"/><polygon points="408.43 711.3 305.54 814.19 305.54 808.76 403 711.3 408.43 711.3" style="fill:#fff"/><polygon points="410.4 717.24 410.4 722.66 316.9 816.16 311.48 816.16 410.4 717.24" style="fill:#fff"/><polygon points="410.4 730.58 410.4 736 330.25 816.16 324.82 816.16 410.4 730.58" style="fill:#fff"/><polygon points="410.4 743.91 410.4 749.34 343.59 816.16 338.17 816.16 410.4 743.91" style="fill:#fff"/><polygon points="410.4 757.26 410.4 762.69 356.93 816.16 351.51 816.16 410.4 757.26" style="fill:#fff"/><polygon points="410.4 770.61 410.4 776.03 370.26 816.16 364.85 816.16 410.4 770.61" style="fill:#fff"/><polygon points="410.4 783.95 410.4 789.38 383.61 816.16 378.18 816.16 410.4 783.95" style="fill:#fff"/><polygon points="410.4 797.29 410.4 802.7 396.95 816.16 391.53 816.16 410.4 797.29" style="fill:#fff"/><polygon points="410.4 810.62 410.4 816.06 410.3 816.16 404.87 816.16 410.4 810.62" style="fill:#fff"/><polygon points="311.08 711.3 305.65 711.3 305.54 711.4 305.54 716.83 311.08 711.3" style="fill:#fff"/><circle cx="506.53" cy="751.92" r="25.15" style="fill:#fff"/><circle cx="530.92" cy="804.45" r="14.83" transform="translate(-343.47 1210) rotate(-81.46)" style="fill:#fff"/><path d="M415,749.5h0A21.49,21.49,0,0,1,393.47,728V683.38A21.48,21.48,0,0,1,415,661.9h0a21.49,21.49,0,0,1,21.49,21.48V728A21.49,21.49,0,0,1,415,749.5Z" style="fill:#fff"/><circle cx="363.72" cy="700.64" r="2.03" style="fill:#7e99cc"/><circle cx="350.94" cy="700.64" r="2.03" style="fill:#7e99cc"/><circle cx="338.17" cy="700.64" r="2.03" style="fill:#7e99cc"/><path d="M323.36,700.64a2,2,0,1,1,2,2A2,2,0,0,1,323.36,700.64Z" style="fill:#7e99cc"/><path d="M310.58,700.64a2,2,0,1,1,2,2A2,2,0,0,1,310.58,700.64Z" style="fill:#7e99cc"/></g></g><g id="Layer_5" data-name="Layer 5"><g style="mix-blend-mode:color-dodge"><path d="M165.49,672.86l-4.86-4.23s.83-.94,2.35-2.55l4.68,4.42C166.25,672,165.52,672.84,165.49,672.86Z" style="fill:#72cdfb"/><path d="M663,767.91c-.79-2-1.63-4-2.51-6l5.92-2.55c.9,2.09,1.77,4.17,2.58,6.2Zm-5.17-12c-.9-2-1.84-4-2.79-5.93l5.8-2.81c1,2,1.93,4.05,2.85,6.06Zm-5.71-11.8c-1-1.94-2-3.89-3-5.81l5.68-3c1.05,2,2.09,3.95,3.1,5.93ZM646,732.52q-1.58-2.79-3.27-5.69l5.56-3.26c1.13,1.92,2.25,3.87,3.33,5.8Zm-6.65-11.31q-1.68-2.75-3.48-5.55l5.42-3.48q1.85,2.87,3.55,5.66Zm-7.07-11q-1.8-2.68-3.7-5.42l5.28-3.68c1.3,1.85,2.55,3.69,3.77,5.51Zm-7.5-10.75c-1.27-1.75-2.57-3.5-3.91-5.27l5.14-3.89c1.34,1.77,2.68,3.58,4,5.37ZM616.81,689c-1.34-1.69-2.71-3.4-4.11-5.1l5-4.09c1.4,1.7,2.82,3.45,4.2,5.2Zm-8.33-10.11c-1.41-1.65-2.86-3.31-4.31-4.93l4.8-4.3c1.48,1.66,3,3.35,4.41,5Zm-8.73-9.76c-1.49-1.61-3-3.2-4.51-4.75l4.62-4.49c1.53,1.58,3.08,3.2,4.61,4.84Zm-427.54-3.26-4.53-4.58c1.53-1.52,3.16-3.09,4.82-4.65l4.42,4.69C175.29,662.84,173.71,664.37,172.21,665.85Zm418.41-6.13c-1.56-1.53-3.14-3.06-4.71-4.54l4.42-4.69c1.61,1.51,3.22,3.07,4.82,4.64Zm-408.88-2.84-4.3-4.79c1.62-1.46,3.31-3,5-4.42l4.2,4.89C185,654,183.33,655.45,181.74,656.88Zm399.36-6.14c-1.6-1.45-3.25-2.91-4.9-4.34l4.21-4.87c1.69,1.46,3.38,3,5,4.43Zm-389.42-2.4-4.1-5c1.67-1.37,3.4-2.77,5.21-4.2l4,5.05Q194.13,646.34,191.68,648.34Zm379.52-6.16c-1.67-1.38-3.38-2.77-5.09-4.11l4-5.06c1.74,1.38,3.49,2.79,5.2,4.2Zm-369.24-2-3.89-5.13q2.6-2,5.36-4l3.8,5.21Q204.52,638.28,202,640.21Zm359-6.14c-1.73-1.29-3.5-2.6-5.27-3.87l3.76-5.24c1.81,1.31,3.62,2.64,5.39,4Zm-348.38-1.58-3.69-5.28q2.69-1.87,5.51-3.77l3.59,5.35Q215.2,630.65,212.56,632.49Zm337.76-6c-1.78-1.22-3.61-2.44-5.44-3.63l3.52-5.4c1.87,1.22,3.74,2.47,5.56,3.72Zm-326.87-1.25L220,619.77c1.85-1.19,3.73-2.37,5.66-3.56L229,621.7C227.11,622.86,225.26,624,223.45,625.19Zm315.91-5.89c-1.83-1.13-3.72-2.27-5.6-3.37l3.27-5.56c1.92,1.13,3.85,2.29,5.72,3.46Zm-304.75-1-3.27-5.55q2.83-1.68,5.79-3.34l3.16,5.62Q237.4,616.68,234.61,618.32Zm293.48-5.64c-1.91-1.06-3.85-2.11-5.75-3.12l3-5.7c1.95,1,3.93,2.1,5.88,3.19ZM246,611.9,243,606.22c2-1.06,4-2.1,5.92-3.1l2.93,5.74C249.91,609.84,248,610.86,246,611.9Zm270.49-5.32c-1.95-1-3.93-1.93-5.88-2.84l2.73-5.84c2,.94,4,1.92,6,2.91Zm-258.82-.64-2.82-5.8c2-1,4-1.92,6-2.85l2.7,5.85C261.64,604.05,259.65,605,257.7,605.94Zm247-4.91c-2-.88-4-1.75-6-2.57l2.46-6c2,.85,4.11,1.73,6.15,2.63Zm-235.1-.56L267,594.56c2-.88,4.1-1.76,6.16-2.6l2.44,6C273.61,598.75,271.58,599.61,269.59,600.47Zm223-4.45c-2-.78-4.09-1.55-6.13-2.29l2.2-6.06c2.08.76,4.19,1.54,6.26,2.34Zm-210.9-.52-2.32-6c2.08-.8,4.18-1.59,6.26-2.34l2.19,6.06C285.8,594,283.74,594.72,281.71,595.5Zm198.6-3.93c-2-.68-4.13-1.36-6.22-2l1.92-6.15c2.13.66,4.27,1.35,6.36,2.06ZM294,591.06,292,585c2.07-.7,4.21-1.39,6.36-2.07l1.92,6.15C298.14,589.69,296,590.37,294,591.06Zm173.81-3.38c-2.1-.61-4.22-1.19-6.31-1.74l1.65-6.23c2.13.56,4.29,1.16,6.44,1.78Zm-161.33-.53L304.72,581c2.14-.62,4.31-1.22,6.44-1.78l1.65,6.23C310.72,586,308.6,586.55,306.5,587.15Zm148.68-2.81c-2.11-.51-4.25-1-6.38-1.47l1.38-6.3c2.17.48,4.36,1,6.51,1.5Zm-136-.53-1.5-6.27c2.16-.51,4.35-1,6.51-1.48l1.37,6.29C323.41,582.81,321.26,583.3,319.15,583.81Zm123.25-2.27c-2.13-.42-4.3-.82-6.43-1.2l1.11-6.35c2.18.38,4.39.8,6.56,1.22ZM331.94,581l-1.23-6.33c2.19-.42,4.4-.82,6.59-1.18l1.07,6.35C336.23,580.24,334.07,580.63,331.94,581Zm97.57-1.75c-2.14-.33-4.32-.64-6.47-.92l.83-6.39c2.2.28,4.42.6,6.61.93Zm-84.68-.43-.93-6.37c2.22-.33,4.45-.63,6.63-.89l.78,6.4C349.18,578.26,347,578.55,344.83,578.86Zm71.71-1.27c-2.15-.23-4.34-.44-6.5-.63l.54-6.42c2.21.19,4.45.41,6.66.65Zm-58.73-.31-.64-6.41c2.23-.22,4.47-.42,6.67-.58l.48,6.42C362.17,576.87,360,577.07,357.81,577.28Zm45.71-.8c-2.18-.14-4.38-.25-6.53-.33l.25-6.44c2.21.08,4.45.2,6.68.34Zm-32.68-.18-.33-6.44c2.19-.11,4.43-.2,6.68-.27l.19,6.44C375.18,576.1,373,576.19,370.84,576.3Zm19.61-.34c-1.64,0-3.27,0-4.89,0h-1.65l0-6.44h1.68c1.66,0,3.33,0,5,0Z" style="fill:#72cdfb"/><path d="M666.37,777s-.35-1.1-1-3l6.06-2.19c.75,2.08,1.12,3.23,1.13,3.28Z" style="fill:#72cdfb"/></g><g style="mix-blend-mode:color-dodge"><path d="M252.43,980l-6.27-1.53c.27-1.08.54-2.17.82-3.27l6.24,1.59C253,977.84,252.69,978.91,252.43,980Z" style="fill:#72cdfb"/><path d="M254.92,970.34l-6.21-1.71c.6-2.18,1.23-4.38,1.86-6.53l6.18,1.84C256.13,966.05,255.51,968.2,254.92,970.34Zm3.79-12.76-6.14-2c.69-2.15,1.41-4.32,2.13-6.44l6.1,2.09C260.09,953.34,259.38,955.47,258.71,957.58ZM263,945l-6-2.21c.77-2.11,1.57-4.25,2.39-6.35l6,2.34C264.57,940.83,263.77,942.92,263,945Zm4.83-12.39-6-2.47c.86-2.09,1.76-4.19,2.66-6.24l5.9,2.6C269.58,928.49,268.7,930.55,267.85,932.6Zm5.36-12.17-5.84-2.72c.95-2,1.94-4.1,2.93-6.12l5.78,2.85C275.11,916.42,274.14,918.43,273.21,920.43Zm5.88-11.91-5.71-3c1-2,2.11-4,3.2-6l5.65,3.11C281.16,904.6,280.1,906.57,279.09,908.52Zm6.41-11.65-5.58-3.23c1.13-1.94,2.3-3.9,3.48-5.84l5.5,3.37C287.74,893.06,286.6,895,285.5,896.87Zm6.93-11.33L287,882.05c1.22-1.89,2.48-3.8,3.74-5.67l5.34,3.61C294.85,881.82,293.62,883.69,292.43,885.54Zm7.44-11-5.25-3.74c1.3-1.82,2.65-3.67,4-5.49l5.17,3.86C302.46,871,301.14,872.75,299.87,874.54Zm7.95-10.65-5.07-4c1.4-1.79,2.83-3.57,4.25-5.3l5,4.1C310.59,860.41,309.19,862.15,307.82,863.89Zm8.44-10.25-4.88-4.21c1.47-1.7,3-3.42,4.5-5.09l4.78,4.32C319.18,850.3,317.7,852,316.26,853.64Zm8.91-9.85-4.67-4.43c1.55-1.64,3.14-3.28,4.73-4.88L329.8,839C328.25,840.59,326.69,842.19,325.17,843.79Zm9.37-9.42-4.47-4.65c1.63-1.56,3.3-3.12,5-4.64l4.35,4.75C337.76,831.31,336.13,832.84,334.54,834.37Zm9.79-9-4.24-4.85c1.68-1.48,3.42-3,5.16-4.41l4.13,4.94C347.68,822.5,346,824,344.33,825.4Zm10.19-8.52-4-5c1.77-1.41,3.57-2.81,5.36-4.17l3.9,5.13C358,814.13,356.25,815.5,354.52,816.88Zm10.57-8-3.79-5.21c1.82-1.32,3.68-2.65,5.54-3.94l3.67,5.3C368.69,806.24,366.87,807.54,365.09,808.83ZM376,801.25l-3.56-5.37,1.29-.85c1.47-1,2.94-1.91,4.41-2.84l3.44,5.44q-2.16,1.36-4.32,2.79Zm11.24-7.11-3.33-5.52c1.93-1.16,3.9-2.31,5.86-3.44l3.2,5.6C391.06,791.87,389.13,793,387.25,794.14Zm11.53-6.6-3.08-5.67c2-1.07,4-2.14,6-3.17l3,5.73C402.7,785.44,400.72,786.48,398.78,787.54Zm11.82-6.08-2.82-5.8c2-1,4.1-2,6.14-2.9l2.68,5.86C414.61,779.53,412.59,780.49,410.6,781.46Zm251.55-3.54c-2-.85-4-1.7-6.13-2.53l2.38-6c2.15.85,4.27,1.73,6.29,2.59Zm-239.48-2L420.13,770c2.08-.9,4.18-1.78,6.27-2.62l2.4,6C426.77,774.19,424.71,775.05,422.67,775.93ZM649.81,773c-2.06-.76-4.17-1.52-6.26-2.24l2.11-6.09c2.13.74,4.28,1.51,6.39,2.29ZM435,771l-2.27-6c2.11-.79,4.26-1.57,6.39-2.32l2.13,6.08C439.15,769.42,437.05,770.19,435,771Zm202.25-2.3c-2.07-.67-4.21-1.33-6.35-2l1.85-6.18c2.19.66,4.37,1.34,6.48,2Zm-189.71-2.08-2-6.14c2.15-.69,4.33-1.37,6.48-2l1.84,6.18C451.77,765.23,449.63,765.89,447.53,766.58Zm177-1.74c-2.08-.58-4.23-1.16-6.43-1.72l1.6-6.24c2.2.56,4.4,1.15,6.56,1.75Zm-164.23-2.05-1.69-6.22c2.17-.59,4.38-1.17,6.57-1.71l1.55,6.26C464.55,761.65,462.38,762.21,460.26,762.79Zm151.34-1.27q-3.18-.75-6.5-1.46l1.36-6.3q3.38.72,6.62,1.49ZM473.15,759.6l-1.4-6.29c2.19-.49,4.42-1,6.65-1.4l1.25,6.32C477.48,758.66,475.29,759.12,473.15,759.6Zm125.43-.88c-2.17-.42-4.37-.83-6.54-1.21l1.11-6.35c2.2.39,4.45.8,6.67,1.24ZM486.19,757l-1.11-6.35c2.23-.39,4.49-.76,6.71-1.09l.95,6.37C490.58,756.28,488.37,756.64,486.19,757Zm99.28-.58c-2.17-.34-4.38-.65-6.58-1l.85-6.38c2.24.29,4.5.62,6.71,1ZM499.32,755l-.81-6.39c2.25-.29,4.52-.55,6.75-.78l.66,6.41C503.74,754.5,501.52,754.76,499.32,755Zm73-.36c-2.21-.25-4.44-.47-6.62-.67l.59-6.42c2.22.2,4.49.44,6.75.69Zm-59.74-1-.52-6.42c2.26-.18,4.54-.34,6.77-.47l.38,6.43C517,753.33,514.75,753.48,512.54,753.66Zm46.49-.19c-2.22-.16-4.46-.29-6.63-.4l.32-6.44c2.22.11,4.5.25,6.77.41Zm-33.22-.59-.24-6.44c2.26-.08,4.54-.14,6.79-.17l.09,6.44C530.25,752.75,528,752.8,525.81,752.88Zm19.94-.07c-2.19-.06-4.42-.11-6.65-.12l0-6.44c2.27,0,4.55,0,6.78.12Z" style="fill:#72cdfb"/><path d="M671.11,782s-1-.52-2.89-1.4L671,774.8c2,.94,3.07,1.49,3.12,1.51Z" style="fill:#72cdfb"/></g><g style="mix-blend-mode:color-dodge"><path d="M1032.65,754.94l-1.74-1.88,3.65-3.4,1.77,1.91Z" style="fill:#72cdfb"/><path d="M679.21,770.75l-3.93-3.07c1.05-1.34,2.16-2.72,3.31-4.12l3.85,3.18C681.32,768.1,680.23,769.45,679.21,770.75Zm6.55-7.94L682,759.54c1.08-1.25,2.25-2.57,3.49-3.94l3.7,3.34C688,760.29,686.83,761.58,685.76,762.81Zm6.92-7.65-3.63-3.43q1.74-1.85,3.64-3.79l3.56,3.5Q694.39,753.35,692.68,755.16Zm334.68-5.83q-1.77-1.82-3.63-3.65l3.51-3.56c1.26,1.25,2.49,2.49,3.7,3.74ZM699.9,747.8l-3.48-3.57q1.83-1.8,3.79-3.64l3.42,3.64C702.34,745.43,701.1,746.63,699.9,747.8ZM1020,742.09q-1.85-1.76-3.77-3.51l3.36-3.68c1.31,1.18,2.59,2.38,3.85,3.57Zm-312.61-1.36-3.34-3.7q1.9-1.72,3.93-3.48l3.27,3.77Q709.3,739,707.42,740.73Zm305-5.57q-1.92-1.68-3.91-3.35l3.2-3.82c1.35,1.13,2.69,2.27,4,3.41ZM715.21,734l-3.2-3.83c1.33-1.1,2.68-2.21,4.07-3.32l3.12,3.89Q717.16,732.34,715.21,734Zm289.3-5.42q-2-1.59-4-3.17l3-4q2.1,1.61,4.14,3.24Zm-281.26-1-3-4c1.37-1.05,2.77-2.11,4.19-3.16l3,4C726,725.46,724.6,726.5,723.25,727.53Zm273.09-5.24c-1.38-1-2.77-2-4.19-3l2.86-4.09c1.44,1,2.87,2,4.27,3.06Zm-264.79-.87-2.87-4.08q2.12-1.5,4.32-3l2.79,4.14C734.36,719.46,732.94,720.44,731.55,721.42Zm256.35-5c-1.42-.94-2.86-1.88-4.32-2.8l2.67-4.22c1.49,1,3,1.9,4.41,2.87Zm-247.81-.75-2.71-4.19c1.46-1,2.94-1.88,4.45-2.81l2.62,4.25C743,713.81,741.52,714.72,740.09,715.65Zm239.12-4.76c-1.46-.88-2.94-1.74-4.44-2.6l2.48-4.33q2.29,1.31,4.53,2.66Zm-230.35-.65-2.53-4.3q2.25-1.32,4.56-2.61l2.44,4.35Q751.07,709,748.86,710.24Zm221.41-4.45c-1.5-.81-3-1.61-4.55-2.4L968,699c1.56.8,3.12,1.62,4.65,2.45Zm-212.42-.57-2.34-4.41c1.53-.81,3.09-1.62,4.67-2.41l2.24,4.45C760.88,703.63,759.35,704.42,757.85,705.22Zm203.27-4.12q-2.31-1.11-4.66-2.18l2.06-4.55q2.41,1.1,4.77,2.24Zm-194.07-.51-2.15-4.51c1.57-.74,3.16-1.48,4.77-2.2l2.05,4.55Q769.35,699.5,767.05,700.59Zm184.7-3.74q-2.36-1-4.75-2l1.85-4.63q2.46,1,4.86,2Zm-175.32-.47-1.93-4.6q2.4-1,4.86-2l1.84,4.64C779.59,695.07,778,695.72,776.43,696.38ZM942.2,693q-2.4-.9-4.84-1.74l1.63-4.72q2.49.87,5,1.78ZM786,692.6l-1.72-4.69q2.44-.9,5-1.76l1.62,4.72Q788.41,691.71,786,692.6Zm146.48-2.92c-1.63-.52-3.26-1-4.92-1.51l1.41-4.79q2.53.75,5,1.54Zm-136.74-.42-1.51-4.76q2.49-.78,5-1.53l1.4,4.79Q798.17,688.5,795.74,689.26Zm126.87-2.48c-1.65-.44-3.31-.87-5-1.27l1.18-4.85q2.57.63,5.09,1.3Zm-117-.4-1.28-4.82q2.52-.67,5.09-1.3l1.17,4.86Q808.08,685.72,805.61,686.38Zm107-2q-2.5-.55-5-1.05l1-4.9c1.73.34,3.44.7,5.15,1.07Zm-97-.38-1.06-4.88q2.55-.55,5.15-1.05l.94,4.9C819,683.26,817.27,683.61,815.61,684Zm86.91-1.6c-1.68-.29-3.37-.56-5.08-.82l.74-4.93q2.61.39,5.19.83ZM825.71,682l-.83-4.93q2.58-.42,5.2-.81l.71,4.94C829.08,681.48,827.38,681.74,825.71,682Zm66.63-1.18c-1.69-.21-3.39-.41-5.11-.59l.52-5q2.63.27,5.22.6Zm-56.46-.29-.59-4.95c1.73-.21,3.47-.4,5.23-.57l.48,5C839.28,680.17,837.57,680.36,835.88,680.56Zm46.23-.78-1.17-.09c-1.33-.11-2.65-.2-4-.28l.31-5c1.34.08,2.69.18,4.05.28l1.19.1Zm-36-.21-.36-5c1.73-.13,3.48-.24,5.24-.33l.25,5C849.53,679.34,847.82,679.45,846.12,679.57Zm25.71-.42c-1.73-.07-3.44-.12-5.15-.15l.09-5c1.74,0,3.49.08,5.25.15Zm-15.44-.09-.13-5q2.61-.08,5.25-.09l0,5C859.81,679,858.1,679,856.39,679.06Z" style="fill:#72cdfb"/><path d="M674.7,776.85l-4.15-2.77s.52-.78,1.55-2.19l4,2.93C675.19,776.11,674.71,776.83,674.7,776.85Z" style="fill:#72cdfb"/></g><g style="mix-blend-mode:color-dodge"><path d="M950.64,1131.49c0-1.11-.06-2.22-.1-3.32L957,1128c0,1.11.07,2.23.1,3.36Z" style="fill:#72cdfb"/><path d="M950.29,1121.56q-.15-3.33-.33-6.6l6.43-.36q.2,3.32.34,6.67Zm-.74-13.2q-.22-3.31-.49-6.59l6.42-.51c.18,2.2.35,4.43.5,6.66Zm-1.06-13.17q-.3-3.32-.65-6.57l6.41-.68q.35,3.3.66,6.65Zm-1.39-13.14q-.39-3.3-.83-6.55l6.39-.85q.44,3.3.84,6.64ZM945.36,1069q-.48-3.29-1-6.52l6.37-1c.35,2.19.69,4.39,1,6.62Zm-2.1-13c-.38-2.18-.78-4.35-1.19-6.49l6.33-1.21c.41,2.17.82,4.37,1.21,6.58Zm-2.48-13q-.67-3.24-1.38-6.45l6.29-1.4q.72,3.26,1.4,6.55Zm-2.87-12.88q-.76-3.22-1.58-6.4l6.24-1.6q.82,3.23,1.61,6.51Zm-3.27-12.77c-.58-2.14-1.18-4.25-1.79-6.35l6.19-1.8q.93,3.2,1.82,6.45ZM931,1004.65q-1-3.17-2-6.28l6.12-2c.69,2.11,1.37,4.23,2,6.38Zm-4.11-12.52q-1.1-3.14-2.23-6.2l6-2.23q1.15,3.12,2.26,6.31Zm-4.56-12.36q-1.2-3.09-2.45-6.12l6-2.45c.85,2.06,1.68,4.13,2.49,6.23Zm-5-12.19q-1.32-3-2.67-6l5.86-2.68c.92,2,1.83,4.07,2.72,6.13Zm-5.46-12q-1.44-3-2.91-5.91l5.76-2.9c1,2,2,4,3,6Zm-5.93-11.76q-1.54-2.93-3.14-5.78l5.64-3.13c1.08,2,2.16,3.94,3.2,5.9Zm-6.39-11.5c-1.1-1.89-2.23-3.79-3.37-5.66l5.5-3.35c1.16,1.9,2.32,3.84,3.44,5.76Zm-6.85-11.24c-1.18-1.84-2.4-3.7-3.61-5.5l5.36-3.59c1.24,1.85,2.47,3.74,3.68,5.62Zm-7.32-10.93c-1.26-1.8-2.55-3.6-3.83-5.35l5.2-3.81c1.31,1.79,2.63,3.63,3.91,5.46Zm-7.77-10.62c-1.34-1.75-2.71-3.49-4.06-5.18l5-4c1.38,1.73,2.77,3.5,4.14,5.29Zm-8.22-10.27c-1.4-1.67-2.84-3.36-4.28-5l4.86-4.24c1.47,1.68,2.93,3.4,4.36,5.1Zm-8.66-9.91c-1.48-1.63-3-3.25-4.48-4.81l4.66-4.45c1.53,1.6,3.07,3.25,4.58,4.91Zm-9.07-9.53c-1.56-1.56-3.13-3.11-4.69-4.61l4.47-4.65c1.59,1.54,3.2,3.12,4.79,4.72Zm-9.48-9.13c-1.59-1.46-3.23-2.94-4.89-4.4l4.27-4.83c1.69,1.49,3.37,3,5,4.5ZM832.25,852c-1.65-1.4-3.35-2.81-5.07-4.2l4.06-5c1.75,1.41,3.49,2.85,5.18,4.28ZM822,843.72c-1.73-1.34-3.5-2.68-5.25-4l3.84-5.18c1.79,1.33,3.59,2.7,5.36,4.06Zm-10.57-7.85c-1.77-1.25-3.59-2.52-5.41-3.76l3.62-5.33c1.86,1.27,3.72,2.56,5.52,3.84Zm-10.9-7.4c-1.82-1.19-3.69-2.37-5.56-3.53l3.4-5.48c1.9,1.18,3.81,2.4,5.67,3.61Zm-11.19-7c-1.9-1.13-3.81-2.23-5.7-3.3l3.18-5.61c1.93,1.09,3.87,2.22,5.81,3.37ZM777.91,815C776,814,774,813,772.08,812l2.95-5.73c2,1,4,2.07,5.94,3.13Zm-11.72-6q-3-1.46-6-2.84l2.72-5.84c2,.93,4,1.9,6.06,2.89Zm-12-5.56q-3.06-1.35-6.06-2.6l2.49-6q3,1.27,6.17,2.66Zm-12.17-5.09q-3.12-1.23-6.15-2.36l2.25-6q3.09,1.15,6.28,2.41Zm-12.35-4.61q-3.19-1.11-6.24-2.12l2-6.12c2.1.69,4.24,1.41,6.36,2.16Zm-12.53-4.12c-2.08-.63-4.21-1.26-6.33-1.87l1.77-6.19c2.16.61,4.33,1.25,6.45,1.9ZM704.5,786c-2.13-.56-4.29-1.1-6.4-1.6l1.5-6.27c2.15.51,4.35,1.06,6.53,1.63Zm-12.83-3c-2.2-.47-4.37-.9-6.46-1.29l1.17-6.34c2.14.4,4.38.84,6.63,1.32Z" style="fill:#72cdfb"/><path d="M678.78,780.6c-2-.31-3.17-.43-3.18-.43l.69-6.41c.05,0,1.24.14,3.44.46Z" style="fill:#72cdfb"/></g><g style="mix-blend-mode:color-dodge"><path d="M1074.45,444.68s-1.07-.41-3-1.08l2.08-6.1c2.1.72,3.22,1.16,3.27,1.17Z" style="fill:#72cdfb"/><path d="M672,761.1c-.22-2.14-.43-4.39-.6-6.67l6.42-.5c.17,2.23.37,4.41.59,6.5Zm-1-13.34c-.12-2.2-.22-4.44-.29-6.68l6.44-.21c.07,2.18.17,4.38.29,6.53Zm-.44-13.36c0-1.36,0-2.74,0-4.16,0-.83,0-1.67,0-2.52l6.44,0v2.47c0,1.39,0,2.75,0,4.08Zm6.54-13.18-6.44-.18c.06-2.17.14-4.4.24-6.67l6.44.3C677.23,716.9,677.15,719.09,677.09,721.22Zm.61-13.1-6.43-.42c.15-2.18.31-4.4.51-6.66l6.42.55Q677.92,704.92,677.7,708.12Zm1.12-13.06-6.41-.67c.24-2.18.49-4.4.77-6.64l6.4.8Q679.16,691.85,678.82,695.06Zm1.63-13-6.37-.93q.46-3.25,1-6.6l6.36,1.05C681.1,677.77,680.76,679.92,680.45,682.06Zm2.15-12.93L676.26,668c.4-2.17.84-4.37,1.29-6.55l6.31,1.31C683.42,664.84,683,667,682.6,669.13Zm2.65-12.82L679,654.87c.49-2.14,1-4.33,1.56-6.5l6.25,1.57C686.25,652.06,685.73,654.2,685.25,656.31Zm3.18-12.71-6.21-1.69c.58-2.15,1.2-4.32,1.82-6.43l6.18,1.82C689.61,639.38,689,641.5,688.43,643.6Zm3.71-12.55-6.14-2c.68-2.12,1.38-4.26,2.1-6.35l6.1,2.09C693.5,626.88,692.8,629,692.14,631.05Zm4.24-12.39-6-2.22c.77-2.08,1.57-4.18,2.37-6.24l6,2.35C697.91,614.56,697.13,616.62,696.38,618.66Zm4.78-12.18L695.21,604c.85-2,1.74-4.11,2.65-6.14l5.89,2.62C702.86,602.46,702,604.49,701.16,606.48Zm5.31-12-5.83-2.75c.94-2,1.93-4,2.92-6l5.76,2.88C708.35,590.59,707.39,592.57,706.47,594.53Zm5.84-11.7-5.69-3c1-2,2.11-3.94,3.19-5.88l5.62,3.14C714.38,579,713.33,580.91,712.31,582.83Zm6.38-11.42-5.56-3.27c1.13-1.91,2.29-3.84,3.46-5.73l5.48,3.4C720.92,567.66,719.79,569.54,718.69,571.41Zm6.89-11.12-5.4-3.52c1.21-1.86,2.46-3.73,3.72-5.55l5.31,3.64C728,556.65,726.76,558.48,725.58,560.29ZM733,549.51l-5.23-3.76c1.3-1.81,2.64-3.62,4-5.38l5.14,3.88C735.55,546,734.24,547.75,733,549.51Zm7.89-10.43-5.05-4c1.39-1.74,2.8-3.49,4.22-5.19l5,4.12C743.6,535.67,742.21,537.38,740.86,539.08ZM749.22,529l-4.86-4.23c1.45-1.67,2.95-3.35,4.45-5l4.76,4.34C752.1,525.75,750.64,527.4,749.22,529Zm8.81-9.66-4.66-4.45c1.53-1.61,3.1-3.22,4.66-4.79l4.56,4.56C761.06,516.22,759.53,517.8,758,519.37Zm9.23-9.26-4.46-4.66c1.61-1.54,3.25-3.07,4.87-4.57l4.36,4.75C770.44,507.09,768.83,508.6,767.26,510.11Zm9.64-8.85-4.26-4.84c1.66-1.46,3.37-2.93,5.07-4.36l4.15,4.93C780.19,498.39,778.52,499.83,776.9,501.26Zm10-8.43-4-5c1.73-1.39,3.49-2.78,5.25-4.14l3.94,5.1C790.33,490.1,788.6,491.46,786.91,492.83Zm10.36-8-3.83-5.18c1.77-1.31,3.6-2.63,5.42-3.92l3.71,5.27C800.79,482.26,799,483.55,797.27,484.83ZM808,477.29l-3.6-5.34c1.84-1.24,3.72-2.47,5.59-3.67l3.48,5.42C811.59,474.88,809.75,476.09,808,477.29Zm11-7.05-3.36-5.5c1.89-1.16,3.83-2.31,5.75-3.42l3.23,5.58C822.72,468,820.83,469.11,819,470.24Zm11.31-6.55L827.2,458c1.94-1.07,3.93-2.12,5.9-3.15l3,5.73C834.14,461.61,832.2,462.65,830.29,463.69Zm11.61-6-2.83-5.79c2-1,4-1.93,6-2.87l2.7,5.85C845.82,455.78,843.84,456.72,841.9,457.67Zm11.87-5.48-2.56-5.91c2-.88,4.11-1.75,6.17-2.59l2.42,6C857.79,450.48,855.76,451.33,853.77,452.19Zm12.12-4.92-2.29-6c2.08-.79,4.2-1.56,6.28-2.3L872,445C870,445.74,867.93,446.5,865.89,447.27Zm12.33-4.36-2-6.12c2.09-.69,4.24-1.37,6.38-2l1.86,6.16C882.36,441.58,880.26,442.24,878.22,442.91Zm187-1.3c-2-.62-4.13-1.23-6.28-1.83l1.72-6.21c2.2.61,4.36,1.24,6.44,1.87Zm-174.51-2.49L889,432.91c2.12-.59,4.29-1.16,6.46-1.71l1.58,6.24C894.93,438,892.81,438.54,890.73,439.12Zm161.91-1c-2.1-.52-4.24-1-6.36-1.53l1.44-6.28c2.17.5,4.35,1,6.5,1.57Zm-149.23-2.2L902,429.62c2.15-.49,4.35-1,6.53-1.42l1.3,6.31C907.67,435,905.52,435.42,903.41,435.91Zm136.47-.72c-2.12-.44-4.28-.87-6.43-1.27l1.18-6.33c2.19.4,4.39.84,6.56,1.29Zm-123.66-1.93-1.16-6.34c2.2-.4,4.41-.78,6.59-1.13l1,6.36C920.54,432.49,918.37,432.86,916.22,433.26Zm110.78-.48c-2.1-.35-4.26-.68-6.47-1l.93-6.37c2.25.32,4.46.67,6.6,1Zm-97.86-1.6-.88-6.39c2.21-.3,4.44-.59,6.63-.84l.75,6.4C933.49,430.6,931.31,430.88,929.14,431.18Zm84.9-.29c-2.13-.27-4.3-.53-6.51-.76l.68-6.41q3.39.36,6.63.77Zm-71.9-1.23-.61-6.42c2.2-.21,4.43-.4,6.66-.56l.48,6.43C946.49,429.27,944.29,429.45,942.14,429.66Zm58.87-.16c-2.15-.19-4.32-.36-6.54-.51l.44-6.43c2.25.15,4.47.33,6.66.52Zm-45.81-.81-.34-6.44c2.2-.11,4.44-.21,6.67-.28l.21,6.44C959.56,428.48,957.36,428.58,955.2,428.69Zm32.73-.08q-3.23-.15-6.54-.24l.18-6.45c2.25.07,4.47.15,6.67.26Zm-19.64-.35-.08-6.44q3.38,0,6.68,0l0,6.44C972.68,428.23,970.5,428.24,968.29,428.26Z" style="fill:#72cdfb"/><path d="M673.38,771.24s-.22-1.23-.53-3.42l6.38-.89c.29,2,.48,3.14.49,3.17Z" style="fill:#72cdfb"/></g><rect x="650.94" y="755.31" width="43.31" height="43.31" style="mix-blend-mode:screen;fill:url(#radial-gradient)"/><g style="mix-blend-mode:color-dodge"><path d="M575.62,63.53c-2.71-1.41-4.21-2.11-4.22-2.12l3.22-6.85c.06,0,1.63.77,4.49,2.26Z" style="fill:#72cdfb"/><path d="M686.52,769.84l-5.31-5.39c2.26-2.24,4.54-4.53,6.77-6.82l5.42,5.27C691.14,765.23,688.82,767.57,686.52,769.84Zm13.62-14-5.54-5.16c2.17-2.33,4.35-4.72,6.47-7.1l5.65,5C704.56,751,702.35,753.45,700.14,755.82Zm13-14.58-5.75-4.92c2.07-2.42,4.15-4.9,6.17-7.37l5.85,4.79C717.36,736.25,715.25,738.77,713.14,741.24Zm12.38-15.12-6-4.67c2-2.53,4-5.09,5.85-7.62l6.05,4.54C729.53,720.94,727.53,723.55,725.52,726.12Zm11.72-15.63-6.14-4.41c1.86-2.6,3.72-5.24,5.51-7.87l6.24,4.28C741,705.16,739.14,707.85,737.24,710.49Zm11-16.11L742,690.23c1.75-2.66,3.49-5.38,5.18-8.09l6.42,4C751.84,688.9,750.07,691.67,748.29,694.38Zm10.35-16.57-6.5-3.87c1.63-2.75,3.25-5.54,4.81-8.31l6.59,3.72C762,672.17,760.3,675,758.64,677.81Zm9.62-17-6.67-3.58c1.52-2.83,3-5.69,4.45-8.51l6.74,3.43C771.32,655,769.8,657.92,768.26,660.8Zm8.85-17.42-6.81-3.28c1.38-2.88,2.75-5.81,4.06-8.7l6.89,3.13C779.92,637.47,778.53,640.45,777.11,643.38Zm8.08-17.79-7-3c1.25-2.94,2.49-5.93,3.67-8.87l7,2.81C787.72,619.56,786.47,622.6,785.19,625.59Zm7.26-18.14-7.08-2.66c1.11-3,2.21-6,3.26-9l7.14,2.5C794.7,601.33,793.59,604.42,792.45,607.45ZM798.89,589l-7.2-2.33c1-3,1.94-6.11,2.85-9.16l7.25,2.16C800.86,582.77,799.89,585.91,798.89,589Zm5.59-18.72-7.3-2c.84-3.08,1.66-6.2,2.42-9.28l7.35,1.83C806.17,564,805.33,567.13,804.48,570.27Zm4.72-19-7.38-1.66c.7-3.12,1.38-6.27,2-9.39l7.41,1.49C810.6,544.93,809.92,548.14,809.2,551.31Zm3.87-19.15-7.45-1.33c.56-3.13,1.09-6.31,1.58-9.47l7.48,1.16C814.18,525.73,813.64,529,813.07,532.16Zm3-19.31-7.51-1c.42-3.15.81-6.36,1.16-9.53l7.52.83C816.89,506.39,816.49,509.65,816.07,512.85Zm2.13-19.41-7.53-.67c.27-3.16.52-6.38.73-9.57l7.55.5C818.74,486.94,818.49,490.22,818.2,493.44ZM819.49,474l-7.56-.34c.14-3.17.25-6.4.32-9.6l7.57.18C819.74,467.44,819.63,470.73,819.49,474Zm.45-19.53h-7.57v-.92c0-2.87,0-5.79-.08-8.69l7.57-.14c0,2.95.08,5.92.08,8.83ZM812,435.2c-.12-3.19-.28-6.42-.47-9.6l7.55-.45c.2,3.23.36,6.51.48,9.75ZM810.87,416c-.25-3.18-.54-6.4-.86-9.56l7.52-.77c.33,3.22.63,6.49.89,9.73Zm-1.94-19.1c-.39-3.18-.82-6.38-1.27-9.52l7.48-1.09c.47,3.19.91,6.45,1.3,9.68Zm-2.76-19c-.53-3.15-1.1-6.33-1.7-9.45L811.9,367c.61,3.18,1.19,6.41,1.73,9.61Zm-3.61-18.85c-.67-3.14-1.39-6.28-2.12-9.36l7.36-1.76c.75,3.13,1.47,6.34,2.16,9.53Zm-4.46-18.67c-.81-3.08-1.67-6.19-2.55-9.25l7.28-2.09c.89,3.11,1.77,6.28,2.59,9.42ZM792.79,322c-.95-3.05-1.95-6.12-3-9.12L797,310.4c1,3.06,2,6.19,3,9.29Zm-6.15-18.18c-1.09-3-2.23-6-3.39-9l7-2.76c1.19,3,2.35,6.1,3.46,9.14Zm-7-17.87c-1.23-2.94-2.51-5.9-3.81-8.81l6.91-3.08c1.32,3,2.63,6,3.88,9Zm-7.82-17.53c-1.36-2.87-2.78-5.78-4.2-8.62l6.76-3.4c1.45,2.9,2.89,5.85,4.28,8.78Zm-8.61-17.15c-1.49-2.81-3-5.65-4.6-8.43l6.6-3.7c1.59,2.83,3.16,5.72,4.68,8.58Zm-9.39-16.75c-1.61-2.72-3.28-5.49-5-8.21l6.43-4c1.72,2.77,3.42,5.58,5.06,8.35ZM743.7,218.16c-1.74-2.66-3.54-5.35-5.34-8l6.25-4.27c1.83,2.67,3.66,5.4,5.43,8.12Zm-10.85-15.85c-1.85-2.58-3.76-5.19-5.68-7.74l6.06-4.54c1.94,2.59,3.89,5.24,5.77,7.87Zm-11.52-15.37c-2-2.5-4-5-6-7.49l5.86-4.8c2.05,2.51,4.1,5.07,6.1,7.63Zm-12.17-14.87c-2.07-2.41-4.19-4.85-6.32-7.24l5.65-5c2.16,2.43,4.32,4.9,6.42,7.36Zm-12.79-14.35c-2.17-2.35-4.4-4.69-6.61-7l5.45-5.26c2.24,2.32,4.5,4.71,6.71,7.09ZM683,143.89c-2.27-2.25-4.59-4.51-6.89-6.71l5.23-5.47c2.34,2.23,4.69,4.53,7,6.81ZM669.11,130.6c-2.35-2.16-4.76-4.33-7.14-6.43l5-5.67c2.42,2.13,4.86,4.33,7.25,6.53Zm-14.42-12.73c-2.42-2.05-4.91-4.12-7.39-6.15l4.79-5.86c2.52,2,5,4.16,7.5,6.24Zm-14.9-12.16c-2.51-2-5.08-3.94-7.63-5.86l4.55-6c2.6,2,5.2,4,7.75,6ZM624.42,94.14c-2.61-1.88-5.25-3.75-7.86-5.56l4.31-6.22c2.65,1.83,5.33,3.73,8,5.64Zm-15.83-11c-2.67-1.77-5.39-3.53-8.08-5.22l4-6.4c2.73,1.72,5.5,3.51,8.22,5.31ZM592.32,72.93c-2.8-1.68-5.6-3.31-8.3-4.83l3.71-6.6c2.77,1.56,5.62,3.22,8.48,4.94Z" style="fill:#72cdfb"/><path d="M675.92,779.93l-5.12-5.57,3.54-3.29,5.18,5.5Q677.71,778.3,675.92,779.93Z" style="fill:#72cdfb"/></g></g><g id="Layer_4" data-name="Layer 4"><g style="opacity:0.36;mix-blend-mode:color-dodge"><polygon points="750.36 786.86 711.19 786.86 730.78 747.7 750.36 786.86" style="fill:#835353"/><polygon points="750.36 834.35 711.19 834.35 730.78 795.19 750.36 834.35" style="fill:#835353"/></g><rect x="576.5" y="918.9" width="74.44" height="74.44" style="mix-blend-mode:color-dodge;fill:url(#radial-gradient-2)"/><ellipse cx="530.92" cy="1497.53" rx="383.8" ry="24.09" style="fill:#231f20;opacity:0.15;mix-blend-mode:multiply"/><rect x="456.41" y="259.06" width="289.01" height="273.53" style="fill:#fff"/><rect x="594.04" y="532.59" width="13.74" height="396.39" style="fill:#9e8d8d"/><path d="M382.89,704.36H477a49.58,49.58,0,0,1,49.58,49.58V918.39a0,0,0,0,1,0,0H382.89a0,0,0,0,1,0,0v-214A0,0,0,0,1,382.89,704.36Z" style="fill:#29212e"/><polygon points="348.49 1267.01 528.87 1252.41 495.76 1073.65 370.66 1105.61 348.49 1267.01" style="fill:#ab6b22"/><path d="M394.37,1462.12H435s12.42-30.14,27.16-81.82c5.31-18.62,10.95-40.06,16.38-63.91,8.24-36.06,16.89-77.57,23.53-123.25,6.73-46.37,11.39-97,11.39-150.43H418.14l-15.5,273.68-3.25,57.11v0Z" style="fill:#c9646b"/><path d="M437.43,1462.1H394.38L392,1497.72h79.15C470.81,1478,455.86,1462.1,437.43,1462.1Z" style="fill:#29212e"/><path d="M362.16,1193.14c5.47,34.37,15.59,69.38,23.3,110.83.79,4.25,1.56,8.42,2.33,12.42,4.22,22.14,8.06,41,11.6,57.14,16,73.16,24.86,88.59,24.86,88.59h37.88V1042.71H383.18C355.91,1101.31,354.78,1146.64,362.16,1193.14Z" style="fill:#fa9a8b"/><path d="M466.79,1462.1H423.73l9,35.62h67.74C500.17,1478,485.21,1462.1,466.79,1462.1Z" style="fill:#524359"/><path d="M362.16,1193.14h100V1042.71H383.18C355.91,1101.31,354.78,1146.64,362.16,1193.14Z" style="fill:#647487"/><path d="M410.72,1042.78h29.7a0,0,0,0,1,0,0v27.66a0,0,0,0,1,0,0H387.74a0,0,0,0,1,0,0v-4.68A23,23,0,0,1,410.72,1042.78Z" transform="translate(828.16 2113.22) rotate(180)" style="fill:#6a5575"/><path d="M462.13,1042.71v150.43H502c6.73-46.37,11.39-97,11.39-150.43Z" style="fill:#4c5a69"/><path d="M484.07,1042.71h.73a0,0,0,0,1,0,0v95.9a0,0,0,0,1,0,0H462.13a0,0,0,0,1,0,0v-74A21.95,21.95,0,0,1,484.07,1042.71Z" transform="translate(946.92 2181.31) rotate(-180)" style="fill:#647487"/><path d="M571.39,894.45l-64.26-67a19.54,19.54,0,1,0-23.8,31l63.15,64.34c8.74,6.8,22,3.79,28-5.52l1.24-1.92C580.34,908.09,575.9,898.33,571.39,894.45Z" style="fill:#f5dddd"/><path d="M330.5,948.31,363.67,836a19.54,19.54,0,1,1,37.23,11.9L367.1,957.34C363.8,967.92,351.21,973,341,968.76l-2.11-.87C330.93,964.61,329,954.06,330.5,948.31Z" style="fill:#f5dddd"/><circle cx="451.02" cy="702.76" r="68.14" transform="translate(-364.83 524.76) rotate(-45)" style="fill:#29212e"/><path d="M468.25,816.39s1.81,11.91-20.39,11.91S408,816.39,408,816.39v-77.1h60.23Z" style="fill:#fa9a8b"/><path d="M468.28,801.43V752.8h-55S423,796.57,468.28,801.43Z" style="fill:#29212e"/><path d="M452.66,659.41h0a44.79,44.79,0,0,0-44.09,45.48l.63,40.26a44.79,44.79,0,0,0,45.49,44.08h0a44.79,44.79,0,0,0,44.08-45.48l-.63-40.26A44.79,44.79,0,0,0,452.66,659.41Z" style="fill:#fa9a8b"/><polygon points="430.56 741.77 428.03 744.96 405.35 722.61 407.88 719.41 430.56 741.77" style="fill:#fff"/><polygon points="437.23 768.1 435.44 771.86 408.02 750.18 408.02 745.38 437.23 768.1" style="fill:#fff"/><path d="M423.87,737.87h77.4a0,0,0,0,1,0,0v33.18a25.58,25.58,0,0,1-25.58,25.58H452.12a28.26,28.26,0,0,1-28.26-28.26V737.87A0,0,0,0,1,423.87,737.87Z" style="fill:#fff"/><path d="M453.4,734a9.8,9.8,0,0,0,10.05-5.5l-18-2.74A9.8,9.8,0,0,0,453.4,734Z" style="fill:#29212e"/><path d="M492.31,734.78c2.42-.33,4.07-3.49,4.31-7.6l-10.51,1.44C487.45,732.52,489.89,735.11,492.31,734.78Z" style="fill:#29212e"/><path d="M412.06,652.48h16.65a0,0,0,0,1,0,0v35a9,9,0,0,1-9,9h-7.64a0,0,0,0,1,0,0v-44A0,0,0,0,1,412.06,652.48Z" transform="translate(-10.49 6.65) rotate(-0.9)" style="fill:#29212e"/><path d="M534.88,895.87v99.9a20.69,20.69,0,0,1-20.69,20.7h-135a17.13,17.13,0,0,1-17.13-17.13V844.5a28.1,28.1,0,0,1,20-26.91h0l29-8.7,57.05-2.67,34.39,14h0a39.15,39.15,0,0,1,23.69,29.11Z" style="fill:#f5dddd"/><path d="M502.59,820.22C500,835.38,490,853.31,459.07,853.31c-32.68,0-73.09-20.37-76.92-35.72l29-8.7,57.05-2.67Z" style="fill:#f5dddd"/><path d="M396,813.46s16.47,25.42,64.28,24.14c29.73-.8,26-24,26-24l-18.08-7.36-57.53,1.89Z" style="fill:#fa9a8b"/><path d="M443.22,1042.71s3.95,53.67-13.64,112.15S348.2,1267,348.2,1267s-7.95-85.5-.73-125.79,32.62-98.51,32.62-98.51Z" style="fill:#e38e2d"/><polygon points="453.9 1066.37 451.68 1124.07 475.07 1128.48 473.46 1063.3 453.9 1066.37" style="fill:#e38e2d"/><path d="M380.09,1042.71H484.8l.25,21.67s-126.39,36.16-125.66,34S370.89,1057.51,380.09,1042.71Z" style="fill:#ffb966"/><rect x="380.09" y="1016.47" width="133.34" height="26.24" style="fill:#29212e"/><path d="M457.24,950.47h26a0,0,0,0,1,0,0V969A14.25,14.25,0,0,1,469,983.22H443a0,0,0,0,1,0,0V964.71A14.24,14.24,0,0,1,457.24,950.47Z" transform="translate(764.05 1995.78) rotate(-170.71)" style="fill:#fa9a8b"/><path d="M442.29,979.66l4.58-25.15-94-11.47a18.09,18.09,0,0,0-19.69,13.33h0a18.12,18.12,0,0,0,17,22.74C422,981.34,442.29,979.66,442.29,979.66Z" style="fill:#fa9a8b"/><path d="M599.38,784.47h26a0,0,0,0,1,0,0V803a14.25,14.25,0,0,1-14.25,14.25h-26a0,0,0,0,1,0,0V798.71a14.25,14.25,0,0,1,14.25-14.25Z" transform="matrix(-0.52, 0.85, -0.85, -0.52, 1604.18, 701.58)" style="fill:#fa9a8b"/><path d="M609.74,824.26l-21.58-13.71-46,82.77a18.09,18.09,0,0,0,4.94,23.26h0a18.12,18.12,0,0,0,27.45-7.15C603.66,843.68,609.74,824.26,609.74,824.26Z" style="fill:#fa9a8b"/><path d="M497.42,1042.78s2.88,73.79,6.5,101a629.27,629.27,0,0,0,24.95,108.59l-15.44-209.7Z" style="fill:#e38e2d"/><polygon points="458.04 1042.7 513.43 1042.7 516.46 1083.77 459.41 1056.61 458.04 1042.7" style="fill:#ffb966"/><polygon points="467.79 1042.78 471.61 1182.96 499.67 1169.32 490.4 1042.7 467.79 1042.78" style="fill:#ffc887"/><path d="M441.93,710l23.1,3.49h0a6.73,6.73,0,0,0-6.74-6.73h-9.63C444.94,706.73,441.93,710,441.93,710Z" style="fill:#29212e"/><path d="M498.18,709.8l-11.43,3.63h0c0-3.72,1.68-6.74,3.76-6.74h5.38C498,706.68,498.18,709.8,498.18,709.8Z" style="fill:#29212e"/><path d="M508.44,696.6S486.79,656.49,463,678.67s-57.61,27-54.68,21.52,13.37-55.09,55.13-51.33S510.39,683.26,508.44,696.6Z" style="fill:#29212e"/><path d="M400.36,713h1.47a7.12,7.12,0,0,1,7.12,7.12v25.3a0,0,0,0,1,0,0h-6.68a9,9,0,0,1-9-9V720.09a7.12,7.12,0,0,1,7.12-7.12Z" transform="translate(-11.37 6.37) rotate(-0.9)" style="fill:#fa9a8b"/><polygon points="424.82 671.45 407.04 674.67 406.96 712.96 410.28 762.78 424.82 671.45" style="fill:#29212e"/><path d="M667.32,406.59c1.94,0,3.5-5.18,3.5-11.56s-1.56-11.56-3.5-11.56c-1,0-1.9,1.39-2.54,3.62a7,7,0,0,1-6.68,5.14H645v5.6H658.1a7,7,0,0,1,6.68,5.13C665.42,405.2,666.32,406.59,667.32,406.59Z" style="fill:#c3d446"/><path d="M650.44,441.34c1.62,1.06,5.75-2.43,9.23-7.79s5-10.55,3.36-11.6c-.84-.55-2.36.13-4.11,1.65a7,7,0,0,1-8.4.67l-10.95-7.11-3.05,4.7,11,7.11a7,7,0,0,1,2.81,7.95C649.6,439.14,649.59,440.8,650.44,441.34Z" style="fill:#c3d446"/><path d="M617.35,461.29c.78,1.77,6.15,1.09,12-1.51s9.93-6.13,9.14-7.9c-.41-.91-2.05-1.17-4.34-.84a7,7,0,0,1-7.41-4l-5.32-11.93-5.11,2.28,5.31,11.93a7,7,0,0,1-2,8.19C617.84,459,616.94,460.37,617.35,461.29Z" style="fill:#c3d446"/><path d="M578.73,460c-.3,1.91,4.57,4.26,10.87,5.26s11.67.26,12-1.65c.16-1-1.08-2.1-3.18-3.07a7,7,0,0,1-4-7.4l2-12.9-5.53-.88-2,12.9a7,7,0,0,1-6.12,5.79C580.41,458.33,578.89,459,578.73,460Z" style="fill:#c3d446"/><path d="M547.05,437.88c-1.29,1.44,1.51,6.07,6.25,10.34s9.64,6.57,10.94,5.13c.67-.74.23-2.34-1-4.31a7,7,0,0,1,.65-8.4l8.74-9.71-4.16-3.74-8.74,9.7a7,7,0,0,1-8.28,1.53C549.36,437.4,547.72,437.14,547.05,437.88Z" style="fill:#c3d446"/><path d="M532.53,402.08c-1.87.5-2,5.91-.39,12.07s4.5,10.77,6.37,10.27c1-.26,1.48-1.84,1.52-4.16a7,7,0,0,1,5.12-6.7l12.62-3.38-1.45-5.4-12.62,3.38a7,7,0,0,1-7.78-3.24C534.73,402.93,533.49,401.82,532.53,402.08Z" style="fill:#c3d446"/><path d="M539.84,364.14c-1.84-.6-4.93,3.84-6.9,9.92s-2.08,11.48-.24,12.08c.95.31,2.24-.74,3.54-2.67a7,7,0,0,1,7.93-2.82l12.43,4,1.73-5.33-12.43-4a7,7,0,0,1-4.76-6.95C541.22,366.06,540.8,364.45,539.84,364.14Z" style="fill:#c3d446"/><path d="M566.64,336.31c-1.21-1.5-6.22.54-11.19,4.56s-8,8.49-6.78,10c.63.78,2.28.61,4.42-.3a7,7,0,0,1,8.19,1.95l8.22,10.15,4.35-3.52L565.63,349a7,7,0,0,1-.21-8.42C566.76,338.67,567.27,337.09,566.64,336.31Z" style="fill:#c3d446"/><path d="M604.28,327.56c-.21-1.92-5.52-2.94-11.87-2.27s-11.34,2.77-11.13,4.69c.1,1,1.58,1.75,3.87,2.15a7,7,0,0,1,5.81,6.11l1.36,13,5.57-.59-1.37-13a7,7,0,0,1,4.41-7.18C603.09,329.61,604.38,328.56,604.28,327.56Z" style="fill:#c3d446"/><path d="M640.6,340.73c.88-1.73-3-5.47-8.71-8.37s-11-3.85-11.89-2.13c-.46.89.37,2.33,2.07,3.91a7,7,0,0,1,1.55,8.28l-5.93,11.64,5,2.54L628.61,345a7,7,0,0,1,7.61-3.61C638.49,341.79,640.15,341.62,640.6,340.73Z" style="fill:#c3d446"/><path d="M663.9,371.55c1.67-1,.44-6.23-2.75-11.76s-7.14-9.23-8.82-8.27c-.86.5-1,2.16-.38,4.41a7,7,0,0,1-3.22,7.79l-11.31,6.53,2.8,4.85,11.31-6.53a7,7,0,0,1,8.35,1.11C661.55,371.3,663,372.05,663.9,371.55Z" style="fill:#c3d446"/><circle cx="599.81" cy="395.03" r="47.73" transform="translate(-103.65 539.83) rotate(-45)" style="fill:#818d2e"/><circle cx="624.66" cy="380.12" r="11.98" transform="translate(149.73 936.12) rotate(-80.82)" style="fill:#c3d446"/><path d="M617.15,406.18a6.1,6.1,0,1,1,6.09-6.1A6.09,6.09,0,0,1,617.15,406.18Z" style="fill:#c3d446"/><path d="M605.7,395.6a3.84,3.84,0,1,1,3.84-3.83A3.84,3.84,0,0,1,605.7,395.6Z" style="fill:#c3d446"/><circle cx="580.28" cy="411.86" r="11.78" transform="translate(45.55 881.35) rotate(-76.65)" style="fill:#c3d446"/><circle cx="598.29" cy="429.55" r="4.86" style="fill:#c3d446"/><circle cx="578.24" cy="369.72" r="4.86" style="fill:#c3d446"/><path d="M601.57,463.61c.16-1-1.08-2.1-3.18-3.07a7,7,0,0,1-4-7.4L596,442.6c1.25.1,2.51.16,3.78.16a47.55,47.55,0,0,0,17.42-3.29l4.37,9.83a7,7,0,0,1-2,8.19c-1.79,1.49-2.69,2.88-2.28,3.8.78,1.77,6.15,1.09,12-1.51s9.93-6.13,9.14-7.9c-.41-.91-2.05-1.17-4.34-.84a7,7,0,0,1-7.41-4l-4.41-9.89a47.85,47.85,0,0,0,16.11-14l9.05,5.88a7,7,0,0,1,2.81,7.95c-.68,2.22-.69,3.88.16,4.42,1.62,1.06,5.75-2.43,9.23-7.79s5-10.55,3.36-11.6c-.84-.55-2.36.13-4.11,1.65a7,7,0,0,1-8.4.67l-9.08-5.89a47.48,47.48,0,0,0,6-20.55H658.1a7,7,0,0,1,6.68,5.13c.64,2.24,1.54,3.63,2.54,3.63,1.94,0,3.5-5.18,3.5-11.56s-1.56-11.56-3.5-11.56c-1,0-1.9,1.39-2.54,3.62a7,7,0,0,1-6.68,5.14H647.46a47.27,47.27,0,0,0-4.92-18.47l9-5.19a7,7,0,0,1,8.35,1.11c1.67,1.62,3.15,2.37,4,1.87,1.67-1,.44-6.23-2.75-11.76s-7.14-9.23-8.82-8.27c-.86.5-1,2.16-.38,4.41a7,7,0,0,1-3.22,7.79l-9,5.18a48.1,48.1,0,0,0-15.71-15l4.56-9a7,7,0,0,1,7.61-3.61c2.27.44,3.93.27,4.38-.62.88-1.73-3-5.47-8.71-8.37s-11-3.85-11.89-2.13c-.46.89.37,2.33,2.07,3.91a7,7,0,0,1,1.55,8.28l-4.55,8.93a47.56,47.56,0,0,0-19.26-4.06c-.76,0-1.51,0-2.27.06l-1-9.7a7,7,0,0,1,4.41-7.18c2.16-.86,3.45-1.91,3.35-2.91-.21-1.92-5.52-2.94-11.87-2.27s-11.34,2.77-11.13,4.69c.1,1,1.58,1.75,3.87,2.15a7,7,0,0,1,5.81,6.11l1,9.71a47.33,47.33,0,0,0-20.29,8.52L565.63,349a7,7,0,0,1-.21-8.42c1.34-1.9,1.85-3.48,1.22-4.26-1.21-1.5-6.22.54-11.19,4.56s-8,8.49-6.78,10c.63.78,2.28.61,4.42-.3a7,7,0,0,1,8.19,1.95l6.09,7.52a47.83,47.83,0,0,0-12.28,18.28l-9.19-3a7,7,0,0,1-4.76-6.95c.08-2.32-.34-3.93-1.3-4.24-1.84-.6-4.93,3.84-6.9,9.92s-2.08,11.48-.24,12.08c.95.31,2.24-.74,3.54-2.67a7,7,0,0,1,7.93-2.82l9.28,3a47.66,47.66,0,0,0-.18,21.93l-9.57,2.57a7,7,0,0,1-7.78-3.24c-1.19-2-2.43-3.1-3.39-2.84-1.87.5-2,5.91-.39,12.07s4.5,10.77,6.37,10.27c1-.26,1.48-1.84,1.52-4.16a7,7,0,0,1,5.12-6.7l9.67-2.59a47.69,47.69,0,0,0,11.76,18.31l-6.85,7.61a7,7,0,0,1-8.28,1.53c-2.09-1-3.73-1.28-4.4-.54-1.29,1.44,1.51,6.07,6.25,10.34s9.64,6.57,10.94,5.13c.67-.74.23-2.34-1-4.31a7,7,0,0,1,.65-8.4l6.93-7.7a47.51,47.51,0,0,0,19.66,8.9l-1.65,10.42a7,7,0,0,1-6.12,5.79c-2.3.28-3.82,1-4,1.95-.3,1.91,4.57,4.26,10.87,5.26S601.27,465.52,601.57,463.61Z" style="opacity:0.51;mix-blend-mode:overlay;fill:url(#radial-gradient-3)"/><path d="M600.91,512.38a117,117,0,1,1,117-117A117.12,117.12,0,0,1,600.91,512.38Zm0-214.77A97.79,97.79,0,1,0,698.7,395.4,97.89,97.89,0,0,0,600.91,297.61Z" style="fill:#dd2b36"/><rect x="491.02" y="388.1" width="218.72" height="19.2" transform="translate(-105.37 541.04) rotate(-45)" style="fill:#dd2b36"/><path d="M536.67,903.82a14.83,14.83,0,0,1-.07,8.87l-1.72-1.75V916l-.78,1.2c-6,9.31-19.24,12.33-28,5.52l-11.59-11.81v84.83a20.7,20.7,0,0,1-20.69,20.7h-.75v26.23l15.42,209.72-37.42,3c-4.2,21.69-8.62,42.07-12.93,61-5.43,23.85-11.07,45.29-16.39,63.9v81.8h4.67c18.43,0,33.38,15.89,33.73,35.63H392l2.37-35.6h0l5-88.59c-3.54-16.1-7.38-35-11.6-57.14-.77-4-1.54-8.17-2.33-12.42-2.55-13.74-5.38-26.75-8.2-39.28L348.5,1267l0-.3-.34.3s-7.95-85.52-.73-125.8c3-16.59,9-36.2,15.12-53.55,4-13.11,11.14-34.74,17.5-45v-26.23h-.85a17.12,17.12,0,0,1-17.12-17.13V979.46q-5.75-.15-12-.35a18.14,18.14,0,0,1-17.53-16.88,19.9,19.9,0,0,1-2.11-13.92l32-108.21a28.09,28.09,0,0,1,19.69-22.51l.74-.22v-113h0c0-.18,0-.35,0-.53a68.17,68.17,0,0,1,48-66.17,68.19,68.19,0,0,1,44.79,85.63,49.39,49.39,0,0,1,10.62,30.65v93.8l25.86,27,14.81-26.63,23.33,24.32C546.48,881.34,542,891.74,536.67,903.82Z" style="fill:#945561;opacity:0.38;mix-blend-mode:multiply"/><path d="M980.14,25.42c0-4.09-10.95-7.41-24.46-7.41s-24.47,3.32-24.47,7.41c0,2.12,2.95,4,7.68,5.38a14.77,14.77,0,0,1,10.87,14.13V72.57H961.6V44.93A14.76,14.76,0,0,1,972.47,30.8C977.19,29.45,980.14,27.54,980.14,25.42Z" style="fill:#c3d446"/><path d="M1053.67,61.15c2.23-3.43-5.15-12.18-16.48-19.54s-22.33-10.54-24.55-7.11c-1.16,1.78.27,5,3.5,8.69A14.76,14.76,0,0,1,1017.56,61l-15,23.18,9.93,6.45,15-23.18a14.79,14.79,0,0,1,16.82-5.93C1049,62.93,1052.52,62.93,1053.67,61.15Z" style="fill:#c3d446"/><path d="M1095.88,131.16c3.74-1.66,2.31-13-3.18-25.36s-13-21-16.72-19.34c-1.94.87-2.49,4.34-1.8,9.2a14.75,14.75,0,0,1-8.49,15.68l-25.24,11.24,4.82,10.82,25.24-11.24a14.76,14.76,0,0,1,17.33,4.18C1091,130.11,1093.94,132,1095.88,131.16Z" style="fill:#c3d446"/><path d="M1093.14,212.87c4,.64,9-9.66,11.15-23s.55-24.68-3.49-25.32c-2.1-.33-4.44,2.28-6.51,6.74a14.76,14.76,0,0,1-15.66,8.52l-27.3-4.32-1.85,11.7,27.29,4.32A14.77,14.77,0,0,1,1089,204.45C1089.62,209.33,1091.05,212.54,1093.14,212.87Z" style="fill:#c3d446"/><path d="M1046.35,279.9c3,2.74,12.83-3.18,21.88-13.22s13.9-20.4,10.86-23.14c-1.57-1.42-5-.5-9.13,2.1a14.77,14.77,0,0,1-17.78-1.37l-20.53-18.5-7.93,8.81,20.54,18.49a14.76,14.76,0,0,1,3.23,17.53C1045.33,275,1044.77,278.49,1046.35,279.9Z" style="fill:#c3d446"/><path d="M970.6,310.64c1,3.95,12.49,4.32,25.54.82s22.78-9.53,21.72-13.49c-.55-2.05-3.89-3.13-8.8-3.21a14.75,14.75,0,0,1-14.16-10.83l-7.15-26.7L976.3,260.3,983.46,287a14.79,14.79,0,0,1-6.84,16.47C972.4,306,970.05,308.59,970.6,310.64Z" style="fill:#c3d446"/><path d="M890.32,295.16c-1.26,3.89,8.13,10.42,21,14.6s24.3,4.41,25.56.52c.66-2-1.56-4.75-5.64-7.49a14.76,14.76,0,0,1-6-16.8l8.54-26.28-11.26-3.66L914,282.33a14.76,14.76,0,0,1-14.71,10.08C894.37,292.23,891,293.14,890.32,295.16Z" style="fill:#c3d446"/><path d="M831.43,238.45c-3.17,2.58,1.14,13.17,9.65,23.68s18,16.92,21.15,14.35c1.65-1.34,1.28-4.83-.65-9.35a14.76,14.76,0,0,1,4.14-17.34L887.2,232.4l-7.46-9.21-21.47,17.39a14.76,14.76,0,0,1-17.83.45C836.42,238.21,833.08,237.12,831.43,238.45Z" style="fill:#c3d446"/><path d="M812.93,158.82c-4.07.43-6.22,11.67-4.81,25.11s5.86,24,9.92,23.56c2.11-.23,3.71-3.36,4.55-8.2A14.79,14.79,0,0,1,835.51,187L863,184.11l-1.24-11.77-27.49,2.88a14.76,14.76,0,0,1-15.19-9.33C817.25,161.33,815,158.6,812.93,158.82Z" style="fill:#c3d446"/><path d="M840.78,82c-3.65-1.86-11.57,6.4-17.71,18.44s-8.15,23.3-4.5,25.16c1.89,1,4.93-.8,8.27-4.4a14.78,14.78,0,0,1,17.53-3.27L869,130.44l5.38-10.55-24.62-12.55a14.76,14.76,0,0,1-7.66-16.1C843,86.42,842.67,82.92,840.78,82Z" style="fill:#c3d446"/><path d="M906,32.67c-2-3.55-13.19-.94-24.89,5.81s-19.53,15.11-17.49,18.65c1.06,1.84,4.57,2,9.34.82a14.78,14.78,0,0,1,16.48,6.81l13.82,23.93,10.25-5.92L899.69,58.84A14.78,14.78,0,0,1,902,41.16C905.46,37.63,907.06,34.5,906,32.67Z" style="fill:#c3d446"/><circle cx="955.68" cy="168.27" r="101" transform="translate(160.93 725.05) rotate(-45)" style="fill:#818d2e"/><circle cx="924.13" cy="115.68" r="25.35" style="fill:#c3d446"/><circle cx="966.37" cy="131.58" r="12.89" style="fill:#c3d446"/><circle cx="948.77" cy="155.8" r="8.11" transform="translate(568.02 1038.67) rotate(-76)" style="fill:#c3d446"/><circle cx="991.29" cy="209.6" r="24.92" transform="translate(142.13 762.34) rotate(-45)" style="fill:#c3d446"/><circle cx="1028.73" cy="171.49" r="10.28" transform="translate(624.47 1132.87) rotate(-76.66)" style="fill:#c3d446"/><circle cx="902.13" cy="213.91" r="10.28" transform="translate(546.92 1070.31) rotate(-80.81)" style="fill:#c3d446"/><path d="M1100.8,164.54c-2.1-.33-4.44,2.28-6.51,6.74a14.76,14.76,0,0,1-15.66,8.52l-22.3-3.53c.21-2.64.35-5.31.35-8a100.87,100.87,0,0,0-7-36.85l20.79-9.26a14.76,14.76,0,0,1,17.33,4.18c3.16,3.77,6.1,5.69,8,4.82,3.74-1.66,2.31-13-3.18-25.36s-13-21-16.72-19.34c-1.94.87-2.49,4.34-1.8,9.2a14.75,14.75,0,0,1-8.49,15.68l-20.93,9.32a101.4,101.4,0,0,0-29.71-34.08l12.44-19.17a14.79,14.79,0,0,1,16.82-5.93c4.69,1.45,8.21,1.45,9.36-.33,2.23-3.43-5.15-12.18-16.48-19.54s-22.33-10.54-24.55-7.11c-1.16,1.78.27,5,3.5,8.69A14.76,14.76,0,0,1,1017.56,61l-12.48,19.22A100.4,100.4,0,0,0,961.6,67.45V44.93A14.76,14.76,0,0,1,972.47,30.8c4.72-1.35,7.67-3.26,7.67-5.38,0-4.09-10.95-7.41-24.46-7.41s-24.47,3.32-24.47,7.41c0,2.12,2.95,4,7.68,5.38a14.77,14.77,0,0,1,10.87,14.13V67.45a100.4,100.4,0,0,0-39.09,10.4l-11-19A14.78,14.78,0,0,1,902,41.16c3.42-3.53,5-6.66,4-8.49-2-3.55-13.19-.94-24.89,5.81s-19.53,15.11-17.49,18.65c1.06,1.84,4.57,2,9.34.82a14.78,14.78,0,0,1,16.48,6.81l11,19A101.62,101.62,0,0,0,868.67,117l-18.92-9.64a14.76,14.76,0,0,1-7.66-16.1c.94-4.82.58-8.32-1.31-9.28-3.65-1.86-11.57,6.4-17.71,18.44s-8.15,23.3-4.5,25.16c1.89,1,4.93-.8,8.27-4.4a14.78,14.78,0,0,1,17.53-3.27l18.89,9.63a100.69,100.69,0,0,0-8.58,40.75c0,1.61,0,3.2.12,4.8l-20.53,2.15a14.76,14.76,0,0,1-15.19-9.33c-1.83-4.56-4-7.29-6.15-7.07-4.07.43-6.22,11.67-4.81,25.11s5.86,24,9.92,23.56c2.11-.23,3.71-3.36,4.55-8.2A14.79,14.79,0,0,1,835.51,187l20.54-2.16a100.39,100.39,0,0,0,18,42.93l-15.82,12.81a14.76,14.76,0,0,1-17.83.45c-4-2.82-7.36-3.91-9-2.58-3.17,2.58,1.14,13.17,9.65,23.68s18,16.92,21.15,14.35c1.65-1.34,1.28-4.83-.65-9.35a14.76,14.76,0,0,1,4.14-17.34l15.9-12.88a101,101,0,0,0,38.69,26L914,282.33a14.76,14.76,0,0,1-14.71,10.08c-4.91-.18-8.3.73-9,2.75-1.26,3.89,8.13,10.42,21,14.6s24.3,4.41,25.56.52c.66-2-1.56-4.75-5.63-7.49a14.75,14.75,0,0,1-6-16.8l6.38-19.63a100.61,100.61,0,0,0,46.4.39L983.46,287a14.79,14.79,0,0,1-6.84,16.47c-4.22,2.52-6.57,5.13-6,7.18,1,3.95,12.49,4.32,25.54.82s22.78-9.53,21.72-13.49c-.55-2.05-3.89-3.13-8.8-3.21a14.75,14.75,0,0,1-14.16-10.83l-5.48-20.46a101,101,0,0,0,38.74-24.9l16.1,14.5a14.76,14.76,0,0,1,3.23,17.53c-2.16,4.42-2.72,7.89-1.14,9.3,3,2.74,12.83-3.18,21.88-13.22s13.9-20.4,10.86-23.14c-1.57-1.42-5-.5-9.13,2.1a14.77,14.77,0,0,1-17.78-1.37L1035.9,229.6A100.51,100.51,0,0,0,1054.74,188l22,3.49A14.77,14.77,0,0,1,1089,204.45c.59,4.88,2,8.09,4.11,8.42,4,.64,9-9.66,11.15-23S1104.84,165.18,1100.8,164.54Z" style="opacity:0.51;mix-blend-mode:overlay;fill:url(#radial-gradient-4)"/><circle cx="953.48" cy="165.94" r="129.86" transform="translate(161.93 722.81) rotate(-45)" style="mix-blend-mode:screen;fill:url(#radial-gradient-5)"/><path d="M1075.4,922.69c1.36,0,2.46-3.64,2.46-8.13s-1.1-8.13-2.46-8.13c-.7,0-1.34,1-1.78,2.55a4.91,4.91,0,0,1-4.7,3.61h-9.18v3.94h9.18a4.91,4.91,0,0,1,4.7,3.61C1074.06,921.71,1074.7,922.69,1075.4,922.69Z" style="fill:#c3d446"/><path d="M1063.53,947.11c1.14.74,4-1.71,6.49-5.47s3.51-7.42,2.37-8.16c-.59-.38-1.66.09-2.89,1.17a4.91,4.91,0,0,1-5.9.47l-7.7-5-2.15,3.3,7.7,5a4.89,4.89,0,0,1,2,5.58C1062.94,945.56,1062.94,946.73,1063.53,947.11Z" style="fill:#c3d446"/><path d="M1040.28,961.13c.55,1.24,4.32.77,8.42-1s7-4.32,6.43-5.56c-.29-.64-1.44-.82-3.06-.59a4.91,4.91,0,0,1-5.21-2.82l-3.73-8.39-3.6,1.6,3.74,8.39a4.9,4.9,0,0,1-1.39,5.75C1040.63,959.51,1040,960.49,1040.28,961.13Z" style="fill:#c3d446"/><path d="M1013.13,960.22c-.21,1.35,3.21,3,7.65,3.71s8.2.18,8.41-1.16c.11-.7-.76-1.48-2.24-2.17a4.88,4.88,0,0,1-2.83-5.2l1.43-9.07-3.88-.61-1.44,9.07a4.9,4.9,0,0,1-4.3,4.07C1014.31,959.06,1013.24,959.53,1013.13,960.22Z" style="fill:#c3d446"/><path d="M990.87,944.68c-.91,1,1,4.26,4.39,7.27s6.78,4.62,7.69,3.61c.47-.53.16-1.65-.7-3a4.9,4.9,0,0,1,.45-5.9l6.15-6.82-2.93-2.64L999.78,944a4.91,4.91,0,0,1-5.82,1.07C992.49,944.34,991.34,944.16,990.87,944.68Z" style="fill:#c3d446"/><path d="M980.66,919.52c-1.32.35-1.44,4.15-.28,8.48s3.17,7.57,4.48,7.22c.68-.19,1-1.3,1.07-2.93a4.91,4.91,0,0,1,3.6-4.7l8.87-2.38-1-3.8-8.87,2.38a4.91,4.91,0,0,1-5.47-2.27C982.2,920.12,981.34,919.33,980.66,919.52Z" style="fill:#c3d446"/><path d="M985.8,892.85c-1.29-.42-3.46,2.7-4.85,7s-1.47,8.07-.17,8.49c.67.22,1.57-.52,2.48-1.87a4.92,4.92,0,0,1,5.59-2l8.73,2.84,1.21-3.74-8.73-2.84a4.91,4.91,0,0,1-3.35-4.88C986.77,894.2,986.47,893.07,985.8,892.85Z" style="fill:#c3d446"/><path d="M1004.64,873.29c-.86-1.06-4.38.38-7.87,3.2s-5.62,6-4.77,7c.45.55,1.61.42,3.11-.22a4.91,4.91,0,0,1,5.76,1.38l5.78,7.13,3.06-2.47-5.78-7.14a4.89,4.89,0,0,1-.15-5.92C1004.72,875,1005.08,873.84,1004.64,873.29Z" style="fill:#c3d446"/><path d="M1031.09,867.14c-.14-1.35-3.88-2.07-8.34-1.6s-8,2-7.83,3.3c.08.7,1.12,1.23,2.73,1.51a4.91,4.91,0,0,1,4.08,4.29l1,9.13,3.91-.41-1-9.13a4.92,4.92,0,0,1,3.1-5.05C1030.25,868.58,1031.16,867.84,1031.09,867.14Z" style="fill:#c3d446"/><path d="M1056.62,876.39c.62-1.21-2.12-3.84-6.12-5.88s-7.74-2.71-8.36-1.5c-.32.63.26,1.64,1.46,2.75a4.9,4.9,0,0,1,1.08,5.82l-4.16,8.18,3.5,1.79,4.17-8.18a4.9,4.9,0,0,1,5.35-2.54C1055.14,877.14,1056.3,877,1056.62,876.39Z" style="fill:#c3d446"/><path d="M1073,898.06c1.17-.68.31-4.38-1.94-8.27s-5-6.49-6.19-5.81c-.61.35-.67,1.52-.27,3.1a4.93,4.93,0,0,1-2.26,5.48l-8,4.59,2,3.4,8-4.59a4.91,4.91,0,0,1,5.87.78C1071.35,897.88,1072.39,898.41,1073,898.06Z" style="fill:#c3d446"/><circle cx="1027.95" cy="914.56" r="33.55" style="fill:#818d2e"/><circle cx="1045.42" cy="904.08" r="8.42" transform="translate(-333.09 1004.02) rotate(-45)" style="fill:#c3d446"/><path d="M1040.14,922.4a4.29,4.29,0,1,1,4.28-4.29A4.29,4.29,0,0,1,1040.14,922.4Z" style="fill:#c3d446"/><path d="M1032.09,915a2.7,2.7,0,1,1,2.7-2.69A2.7,2.7,0,0,1,1032.09,915Z" style="fill:#c3d446"/><circle cx="1014.22" cy="926.39" r="8.28" transform="translate(-358 988.5) rotate(-45)" style="fill:#c3d446"/><path d="M1026.88,942.24a3.42,3.42,0,1,1,3.41-3.41A3.41,3.41,0,0,1,1026.88,942.24Z" style="fill:#c3d446"/><path d="M1012.79,900.19a3.42,3.42,0,1,1,3.41-3.42A3.42,3.42,0,0,1,1012.79,900.19Z" style="fill:#c3d446"/><path d="M1029.19,962.77c.11-.7-.76-1.48-2.24-2.17a4.88,4.88,0,0,1-2.83-5.2l1.17-7.4c.88.07,1.77.11,2.66.11a33.39,33.39,0,0,0,12.24-2.31l3.08,6.91a4.9,4.9,0,0,1-1.39,5.75c-1.25,1-1.89,2-1.6,2.67.55,1.24,4.32.77,8.42-1s7-4.32,6.43-5.56c-.29-.64-1.44-.82-3.06-.59a4.91,4.91,0,0,1-5.21-2.82l-3.09-7a33.7,33.7,0,0,0,11.32-9.87l6.36,4.14a4.89,4.89,0,0,1,2,5.58c-.48,1.56-.48,2.73.11,3.11,1.14.74,4-1.71,6.49-5.47s3.51-7.42,2.37-8.16c-.59-.38-1.66.09-2.89,1.17a4.91,4.91,0,0,1-5.9.47l-6.39-4.15a33.24,33.24,0,0,0,4.23-14.44h7.48a4.91,4.91,0,0,1,4.7,3.61c.44,1.57,1.08,2.55,1.78,2.55,1.36,0,2.46-3.64,2.46-8.13s-1.1-8.13-2.46-8.13c-.7,0-1.34,1-1.78,2.55a4.91,4.91,0,0,1-4.7,3.61h-7.48a33.37,33.37,0,0,0-3.45-13l6.31-3.65a4.91,4.91,0,0,1,5.87.78c1.18,1.14,2.22,1.67,2.83,1.32,1.17-.68.31-4.38-1.94-8.27s-5-6.49-6.19-5.81c-.61.35-.67,1.52-.27,3.1a4.93,4.93,0,0,1-2.26,5.48L1056,896.2a33.61,33.61,0,0,0-11-10.54l3.2-6.29a4.9,4.9,0,0,1,5.35-2.54c1.6.31,2.76.19,3.08-.44.62-1.21-2.12-3.84-6.12-5.88s-7.74-2.71-8.36-1.5c-.32.63.26,1.64,1.46,2.75a4.9,4.9,0,0,1,1.08,5.82l-3.19,6.28A33.41,33.41,0,0,0,1028,881c-.53,0-1.06,0-1.59,0l-.72-6.82a4.92,4.92,0,0,1,3.1-5.05c1.51-.6,2.42-1.34,2.35-2-.14-1.35-3.88-2.07-8.34-1.6s-8,2-7.83,3.3c.08.7,1.12,1.23,2.73,1.51a4.91,4.91,0,0,1,4.08,4.29l.71,6.83a33.28,33.28,0,0,0-14.26,6l-4.25-5.26a4.89,4.89,0,0,1-.15-5.92c.94-1.33,1.3-2.44.86-3-.86-1.06-4.38.38-7.87,3.2s-5.62,6-4.77,7c.45.55,1.61.42,3.11-.22a4.91,4.91,0,0,1,5.76,1.38l4.28,5.28a33.58,33.58,0,0,0-8.63,12.85l-6.46-2.1a4.91,4.91,0,0,1-3.35-4.88c.06-1.63-.24-2.76-.91-3-1.29-.42-3.46,2.7-4.85,7s-1.47,8.07-.17,8.49c.67.22,1.57-.52,2.48-1.87a4.92,4.92,0,0,1,5.59-2l6.51,2.12a33.7,33.7,0,0,0-.13,15.42l-6.72,1.8a4.91,4.91,0,0,1-5.47-2.27c-.84-1.4-1.7-2.19-2.38-2-1.32.35-1.44,4.15-.28,8.48s3.17,7.57,4.48,7.22c.68-.19,1-1.3,1.07-2.93a4.91,4.91,0,0,1,3.6-4.7l6.79-1.82a33.65,33.65,0,0,0,8.28,12.87L999.78,944a4.91,4.91,0,0,1-5.82,1.07c-1.47-.72-2.62-.9-3.09-.38-.91,1,1,4.26,4.39,7.27s6.78,4.62,7.69,3.61c.47-.53.16-1.65-.7-3a4.9,4.9,0,0,1,.45-5.9l4.88-5.41a33.4,33.4,0,0,0,13.81,6.26l-1.16,7.32a4.9,4.9,0,0,1-4.3,4.07c-1.62.2-2.69.67-2.8,1.36-.21,1.35,3.21,3,7.65,3.71S1029,964.11,1029.19,962.77Z" style="opacity:0.51;mix-blend-mode:overlay;fill:url(#radial-gradient-6)"/><path d="M1131.39,618.47c0-1.82-4.88-3.3-10.89-3.3s-10.89,1.48-10.89,3.3c0,.94,1.31,1.79,3.41,2.39a6.57,6.57,0,0,1,4.84,6.29v12.3h5.27v-12.3a6.57,6.57,0,0,1,4.84-6.29C1130.07,620.26,1131.39,619.41,1131.39,618.47Z" style="fill:#b0a03a"/><path d="M1164.11,634.37c1-1.53-2.29-5.42-7.34-8.7s-9.93-4.69-10.92-3.16c-.52.79.12,2.22,1.56,3.87a6.59,6.59,0,0,1,.63,7.91l-6.7,10.31,4.42,2.87,6.7-10.31a6.56,6.56,0,0,1,7.48-2.64C1162,635.16,1163.59,635.16,1164.11,634.37Z" style="fill:#b0a03a"/><path d="M1182.89,665.53c1.67-.74,1-5.8-1.41-11.29s-5.78-9.35-7.44-8.61c-.87.39-1.11,1.93-.8,4.1a6.58,6.58,0,0,1-3.78,7l-11.24,5,2.15,4.81,11.23-5a6.58,6.58,0,0,1,7.72,1.86C1180.72,665.06,1182,665.91,1182.89,665.53Z" style="fill:#b0a03a"/><path d="M1181.68,701.89c1.79.29,4-4.3,5-10.24s.25-11-1.55-11.27c-.93-.15-2,1-2.9,3a6.55,6.55,0,0,1-7,3.79l-12.14-1.92-.83,5.21,12.15,1.92a6.56,6.56,0,0,1,5.45,5.76C1180.11,700.31,1180.74,701.74,1181.68,701.89Z" style="fill:#b0a03a"/><path d="M1160.85,731.72c1.35,1.22,5.71-1.41,9.74-5.88s6.18-9.08,4.83-10.3c-.7-.63-2.21-.22-4.06.94a6.57,6.57,0,0,1-7.91-.62l-9.14-8.23-3.53,3.92,9.14,8.23a6.58,6.58,0,0,1,1.44,7.8C1160.39,729.55,1160.15,731.09,1160.85,731.72Z" style="fill:#b0a03a"/><path d="M1127.14,745.4c.47,1.76,5.56,1.92,11.37.37s10.13-4.25,9.66-6c-.24-.92-1.73-1.4-3.92-1.43a6.59,6.59,0,0,1-6.3-4.83l-3.18-11.88-5.09,1.37,3.18,11.88a6.57,6.57,0,0,1-3,7.33C1127.94,743.33,1126.89,744.49,1127.14,745.4Z" style="fill:#b0a03a"/><path d="M1091.41,738.51c-.56,1.73,3.62,4.64,9.34,6.5s10.81,2,11.37.23c.29-.9-.69-2.11-2.51-3.33a6.57,6.57,0,0,1-2.65-7.48l3.8-11.7-5-1.62-3.8,11.69a6.56,6.56,0,0,1-6.54,4.49C1093.21,737.21,1091.7,737.61,1091.41,738.51Z" style="fill:#b0a03a"/><path d="M1065.2,713.27c-1.41,1.15.51,5.87,4.29,10.54s8,7.53,9.42,6.39c.73-.6.57-2.15-.29-4.16a6.57,6.57,0,0,1,1.84-7.72l9.56-7.74-3.32-4.1-9.56,7.74a6.56,6.56,0,0,1-7.93.2C1067.42,713.17,1065.94,712.68,1065.2,713.27Z" style="fill:#b0a03a"/><path d="M1057,677.84c-1.81.19-2.77,5.19-2.14,11.17s2.6,10.67,4.41,10.48c.94-.09,1.65-1.49,2-3.64a6.57,6.57,0,0,1,5.75-5.47l12.23-1.29-.55-5.24-12.23,1.29a6.6,6.6,0,0,1-6.77-4.16C1058.89,679,1057.91,677.74,1057,677.84Z" style="fill:#b0a03a"/><path d="M1069.36,643.63c-1.62-.83-5.15,2.85-7.88,8.2s-3.63,10.38-2,11.2c.85.43,2.2-.35,3.69-1.95a6.57,6.57,0,0,1,7.8-1.46l11,5.59,2.39-4.7-11-5.59a6.57,6.57,0,0,1-3.41-7.16C1070.36,645.61,1070.2,644.06,1069.36,643.63Z" style="fill:#b0a03a"/><path d="M1098.39,621.69c-.91-1.58-5.87-.42-11.08,2.59s-8.69,6.72-7.78,8.3c.47.82,2,.9,4.15.37a6.58,6.58,0,0,1,7.34,3l6.15,10.65,4.56-2.63-6.15-10.65a6.57,6.57,0,0,1,1.05-7.87C1098.15,623.9,1098.86,622.51,1098.39,621.69Z" style="fill:#b0a03a"/><circle cx="1120.5" cy="682.04" r="44.95" transform="translate(199.27 1615.86) rotate(-76.72)" style="fill:#696022"/><circle cx="1106.46" cy="658.64" r="11.28" style="fill:#b0a03a"/><path d="M1131,665.71a5.74,5.74,0,1,1-5.73-5.73A5.73,5.73,0,0,1,1131,665.71Z" style="fill:#b0a03a"/><path d="M1121,676.49a3.61,3.61,0,1,1-3.61-3.61A3.61,3.61,0,0,1,1121,676.49Z" style="fill:#b0a03a"/><circle cx="1136.34" cy="700.43" r="11.09" style="fill:#b0a03a"/><path d="M1157.58,683.47a4.58,4.58,0,1,1-4.57-4.57A4.58,4.58,0,0,1,1157.58,683.47Z" style="fill:#b0a03a"/><path d="M1101.24,702.35a4.58,4.58,0,1,1-4.57-4.57A4.58,4.58,0,0,1,1101.24,702.35Z" style="fill:#b0a03a"/><path d="M1185.08,680.38c-.93-.15-2,1-2.9,3a6.55,6.55,0,0,1-7,3.79l-9.92-1.57c.1-1.17.16-2.36.16-3.56a44.87,44.87,0,0,0-3.1-16.4l9.25-4.12a6.58,6.58,0,0,1,7.72,1.86c1.4,1.68,2.71,2.53,3.57,2.15,1.67-.74,1-5.8-1.41-11.29s-5.78-9.35-7.44-8.61c-.87.39-1.11,1.93-.8,4.1a6.58,6.58,0,0,1-3.78,7l-9.32,4.15a45.19,45.19,0,0,0-13.22-15.17l5.54-8.52a6.56,6.56,0,0,1,7.48-2.64c2.09.64,3.65.64,4.17-.15,1-1.53-2.29-5.42-7.34-8.7s-9.93-4.69-10.92-3.16c-.52.79.12,2.22,1.56,3.87a6.59,6.59,0,0,1,.63,7.91l-5.56,8.55a44.73,44.73,0,0,0-19.35-5.67v-10a6.57,6.57,0,0,1,4.84-6.29c2.1-.6,3.42-1.45,3.42-2.39,0-1.82-4.88-3.3-10.89-3.3s-10.89,1.48-10.89,3.3c0,.94,1.31,1.79,3.41,2.39a6.57,6.57,0,0,1,4.84,6.29v10a44.65,44.65,0,0,0-17.39,4.63l-4.89-8.46a6.57,6.57,0,0,1,1.05-7.87c1.52-1.57,2.23-3,1.76-3.78-.91-1.58-5.87-.42-11.08,2.59s-8.69,6.72-7.78,8.3c.47.82,2,.9,4.15.37a6.58,6.58,0,0,1,7.34,3l4.88,8.46a45.11,45.11,0,0,0-14.13,14.79l-8.42-4.3a6.57,6.57,0,0,1-3.41-7.16c.42-2.15.26-3.7-.58-4.13-1.62-.83-5.15,2.85-7.88,8.2s-3.63,10.38-2,11.2c.85.43,2.2-.35,3.69-1.95a6.57,6.57,0,0,1,7.8-1.46l8.41,4.29a44.71,44.71,0,0,0-3.82,18.13c0,.72,0,1.43,0,2.14l-9.13,1a6.6,6.6,0,0,1-6.77-4.16c-.81-2-1.79-3.24-2.73-3.14-1.81.19-2.77,5.19-2.14,11.17s2.6,10.67,4.41,10.48c.94-.09,1.65-1.49,2-3.64a6.57,6.57,0,0,1,5.75-5.47l9.14-1a44.7,44.7,0,0,0,8,19.1l-7,5.7a6.56,6.56,0,0,1-7.93.2c-1.79-1.25-3.27-1.74-4-1.15-1.41,1.15.51,5.87,4.29,10.54s8,7.53,9.42,6.39c.73-.6.57-2.15-.29-4.16a6.57,6.57,0,0,1,1.84-7.72l7.08-5.73a44.94,44.94,0,0,0,17.21,11.56l-2.81,8.65a6.56,6.56,0,0,1-6.54,4.49c-2.19-.08-3.7.32-4,1.22-.56,1.73,3.62,4.64,9.34,6.5s10.81,2,11.37.23c.29-.9-.69-2.11-2.51-3.33a6.57,6.57,0,0,1-2.65-7.48l2.83-8.73a44.94,44.94,0,0,0,20.66.17l2.41,9a6.57,6.57,0,0,1-3,7.33c-1.87,1.12-2.92,2.28-2.67,3.19.47,1.76,5.56,1.92,11.37.37s10.13-4.25,9.66-6c-.24-.92-1.73-1.4-3.92-1.43a6.59,6.59,0,0,1-6.3-4.83l-2.44-9.1a44.85,44.85,0,0,0,17.24-11.08l7.17,6.45a6.58,6.58,0,0,1,1.44,7.8c-1,2-1.21,3.51-.51,4.14,1.35,1.22,5.71-1.41,9.74-5.88s6.18-9.08,4.83-10.3c-.7-.63-2.21-.22-4.06.94a6.57,6.57,0,0,1-7.91-.62l-7.25-6.52a44.7,44.7,0,0,0,8.38-18.51l9.81,1.55a6.56,6.56,0,0,1,5.45,5.76c.27,2.17.9,3.6,1.84,3.75,1.79.29,4-4.3,5-10.24S1186.88,680.67,1185.08,680.38Z" style="opacity:0.51;mix-blend-mode:overlay;fill:url(#radial-gradient-7)"/><circle cx="1119.52" cy="681" r="57.79" style="mix-blend-mode:screen;fill:url(#radial-gradient-8)"/><path d="M304,664.43c1.31,0,2.36-3.49,2.36-7.8s-1-7.8-2.36-7.8c-.67,0-1.28.95-1.71,2.45a4.71,4.71,0,0,1-4.51,3.47H289v3.77h8.81a4.7,4.7,0,0,1,4.51,3.47C302.76,663.49,303.37,664.43,304,664.43Z" style="fill:#c3d446"/><path d="M292.65,687.87c1.1.71,3.88-1.64,6.23-5.25s3.36-7.12,2.27-7.83c-.57-.37-1.59.09-2.77,1.12a4.71,4.71,0,0,1-5.67.45l-7.39-4.8-2.05,3.17,7.39,4.8a4.71,4.71,0,0,1,1.89,5.36C292.09,686.38,292.09,687.5,292.65,687.87Z" style="fill:#c3d446"/><path d="M270.33,701.33c.53,1.19,4.15.73,8.09-1s6.69-4.14,6.16-5.33c-.27-.62-1.38-.79-2.93-.57a4.71,4.71,0,0,1-5-2.71l-3.58-8-3.45,1.53,3.58,8a4.7,4.7,0,0,1-1.33,5.52C270.67,699.77,270.06,700.71,270.33,701.33Z" style="fill:#c3d446"/><path d="M244.29,700.45c-.21,1.29,3.08,2.88,7.33,3.56s7.87.17,8.07-1.12c.11-.66-.72-1.41-2.14-2.07a4.71,4.71,0,0,1-2.72-5l1.38-8.7-3.73-.6-1.38,8.71a4.7,4.7,0,0,1-4.13,3.9C245.42,699.33,244.39,699.79,244.29,700.45Z" style="fill:#c3d446"/><path d="M222.92,685.54c-.87,1,1,4.09,4.22,7s6.5,4.43,7.37,3.46c.45-.5.16-1.58-.67-2.91a4.71,4.71,0,0,1,.44-5.66l5.9-6.55-2.81-2.53-5.9,6.55a4.69,4.69,0,0,1-5.58,1C224.48,685.21,223.37,685,222.92,685.54Z" style="fill:#c3d446"/><path d="M213.12,661.39c-1.26.34-1.37,4-.26,8.14s3,7.26,4.3,6.93c.65-.18,1-1.25,1-2.81a4.71,4.71,0,0,1,3.46-4.51l8.51-2.28-1-3.65-8.51,2.28a4.71,4.71,0,0,1-5.25-2.18C214.61,662,213.78,661.21,213.12,661.39Z" style="fill:#c3d446"/><path d="M218.06,635.8c-1.24-.4-3.33,2.59-4.66,6.69s-1.4,7.74-.16,8.15c.64.2,1.51-.5,2.39-1.8a4.69,4.69,0,0,1,5.35-1.9l8.38,2.72,1.17-3.59-8.38-2.73a4.71,4.71,0,0,1-3.22-4.68C219,637.09,218.7,636,218.06,635.8Z" style="fill:#c3d446"/><path d="M236.13,617c-.82-1-4.2.36-7.54,3.07s-5.4,5.73-4.58,6.74c.43.53,1.54.41,3-.2a4.71,4.71,0,0,1,5.53,1.32l5.54,6.84,2.94-2.37-5.55-6.85a4.71,4.71,0,0,1-.14-5.68C236.21,618.62,236.56,617.55,236.13,617Z" style="fill:#c3d446"/><path d="M261.52,611.13c-.14-1.3-3.72-2-8-1.53s-7.64,1.86-7.5,3.16c.07.67,1.06,1.18,2.61,1.45a4.7,4.7,0,0,1,3.91,4.12l.93,8.76,3.75-.4-.92-8.76a4.7,4.7,0,0,1,3-4.84C260.72,612.51,261.59,611.8,261.52,611.13Z" style="fill:#c3d446"/><path d="M286,620c.59-1.16-2-3.69-5.88-5.65s-7.43-2.6-8-1.43c-.31.6.26,1.57,1.4,2.63a4.71,4.71,0,0,1,1,5.59l-4,7.85,3.37,1.72,4-7.85a4.69,4.69,0,0,1,5.13-2.44C284.6,620.73,285.71,620.61,286,620Z" style="fill:#c3d446"/><path d="M301.73,640.8c1.13-.65.3-4.21-1.85-7.94s-4.82-6.22-5.95-5.57c-.58.34-.64,1.46-.26,3a4.7,4.7,0,0,1-2.17,5.25l-7.63,4.4,1.89,3.27,7.63-4.4a4.69,4.69,0,0,1,5.63.75C300.15,640.63,301.15,641.14,301.73,640.8Z" style="fill:#c3d446"/><circle cx="258.51" cy="656.63" r="32.2" transform="translate(-431.06 806.62) rotate(-80.78)" style="fill:#818d2e"/><circle cx="275.27" cy="646.58" r="8.08" style="fill:#c3d446"/><circle cx="270.2" cy="660.04" r="4.11" style="fill:#c3d446"/><path d="M262.48,657a2.59,2.59,0,1,1,2.59-2.59A2.58,2.58,0,0,1,262.48,657Z" style="fill:#c3d446"/><circle cx="245.33" cy="667.99" r="7.94" transform="translate(-400.48 369.12) rotate(-45)" style="fill:#c3d446"/><path d="M257.48,683.2a3.28,3.28,0,1,1,3.28-3.28A3.28,3.28,0,0,1,257.48,683.2Z" style="fill:#c3d446"/><path d="M244,642.84a3.28,3.28,0,1,1,3.27-3.28A3.28,3.28,0,0,1,244,642.84Z" style="fill:#c3d446"/><path d="M259.69,702.89c.11-.66-.72-1.41-2.14-2.07a4.71,4.71,0,0,1-2.72-5l1.12-7.11c.85.07,1.7.11,2.56.11a32,32,0,0,0,11.74-2.22l2.95,6.63a4.7,4.7,0,0,1-1.33,5.52c-1.2,1-1.81,2-1.54,2.57.53,1.19,4.15.73,8.09-1s6.69-4.14,6.16-5.33c-.27-.62-1.38-.79-2.93-.57a4.71,4.71,0,0,1-5-2.71l-3-6.67a32.37,32.37,0,0,0,10.87-9.47l6.11,4a4.71,4.71,0,0,1,1.89,5.36c-.46,1.49-.46,2.61.1,3,1.1.71,3.88-1.64,6.23-5.25s3.36-7.12,2.27-7.83c-.57-.37-1.59.09-2.77,1.12a4.71,4.71,0,0,1-5.67.45l-6.12-4a32.06,32.06,0,0,0,4.05-13.86h7.18a4.7,4.7,0,0,1,4.51,3.47c.43,1.5,1,2.44,1.71,2.44,1.31,0,2.36-3.49,2.36-7.8s-1-7.8-2.36-7.8c-.67,0-1.28.95-1.71,2.45a4.71,4.71,0,0,1-4.51,3.47h-7.18a31.86,31.86,0,0,0-3.31-12.46l6.06-3.5a4.69,4.69,0,0,1,5.63.75c1.13,1.09,2.13,1.6,2.71,1.26,1.13-.65.3-4.21-1.85-7.94s-4.82-6.22-5.95-5.57c-.58.34-.64,1.46-.26,3a4.7,4.7,0,0,1-2.17,5.25L285.45,639a32.42,32.42,0,0,0-10.6-10.11l3.08-6a4.69,4.69,0,0,1,5.13-2.44c1.54.3,2.65.18,3-.42.59-1.16-2-3.69-5.88-5.65s-7.43-2.6-8-1.43c-.31.6.26,1.57,1.4,2.63a4.71,4.71,0,0,1,1,5.59l-3.06,6a32.18,32.18,0,0,0-13-2.73c-.52,0-1,0-1.53,0l-.69-6.55a4.7,4.7,0,0,1,3-4.84c1.46-.58,2.33-1.29,2.26-2-.14-1.3-3.72-2-8-1.53s-7.64,1.86-7.5,3.16c.07.67,1.06,1.18,2.61,1.45a4.7,4.7,0,0,1,3.91,4.12l.69,6.55a32,32,0,0,0-13.68,5.74l-4.09-5a4.71,4.71,0,0,1-.14-5.68c.9-1.28,1.25-2.35.82-2.87-.82-1-4.2.36-7.54,3.07s-5.4,5.73-4.58,6.74c.43.53,1.54.41,3-.2a4.71,4.71,0,0,1,5.53,1.32l4.1,5.07a32.23,32.23,0,0,0-8.27,12.33l-6.2-2a4.71,4.71,0,0,1-3.22-4.68c.06-1.57-.23-2.65-.87-2.86-1.24-.4-3.33,2.59-4.66,6.69s-1.4,7.74-.16,8.15c.64.2,1.51-.5,2.39-1.8a4.69,4.69,0,0,1,5.35-1.9l6.26,2a32.09,32.09,0,0,0-.13,14.79l-6.45,1.73a4.71,4.71,0,0,1-5.25-2.18c-.8-1.35-1.63-2.1-2.29-1.92-1.26.34-1.37,4-.26,8.14s3,7.26,4.3,6.93c.65-.18,1-1.25,1-2.81a4.71,4.71,0,0,1,3.46-4.51l6.52-1.75a32.11,32.11,0,0,0,7.94,12.35l-4.63,5.13a4.69,4.69,0,0,1-5.58,1c-1.41-.69-2.52-.87-3-.36-.87,1,1,4.09,4.22,7s6.5,4.43,7.37,3.46c.45-.5.16-1.58-.67-2.91a4.71,4.71,0,0,1,.44-5.66l4.67-5.19a32.12,32.12,0,0,0,13.26,6l-1.11,7a4.7,4.7,0,0,1-4.13,3.9c-1.55.19-2.58.65-2.68,1.31-.21,1.29,3.08,2.88,7.33,3.56S259.49,704.18,259.69,702.89Z" style="opacity:0.51;mix-blend-mode:overlay;fill:url(#radial-gradient-9)"/></g></g></svg>