<svg xmlns="http://www.w3.org/2000/svg" xmlns:xlink="http://www.w3.org/1999/xlink" viewBox="0 0 870.13 1086.64"><defs><radialGradient id="radial-gradient" cx="244.25" cy="30.75" r="45.15" gradientTransform="translate(16.79 12.78) scale(0.97)" gradientUnits="userSpaceOnUse"><stop offset="0" stop-color="#fff"/><stop offset="0.13" stop-color="#e2e2e2"/><stop offset="0.43" stop-color="#999798"/><stop offset="0.85" stop-color="#252122"/><stop offset="0.86" stop-color="#231f20"/></radialGradient><radialGradient id="radial-gradient-2" cx="616.69" cy="38.53" r="126.05" xlink:href="#radial-gradient"/><radialGradient id="radial-gradient-3" cx="620.06" cy="114" r="102.14" gradientTransform="translate(16.79 12.78) scale(0.97)" gradientUnits="userSpaceOnUse"><stop offset="0.8"/><stop offset="1" stop-color="#fff"/></radialGradient><radialGradient id="radial-gradient-4" cx="787.33" cy="52.25" r="46.1" xlink:href="#radial-gradient"/><radialGradient id="radial-gradient-5" cx="83.24" cy="131.05" r="82.89" xlink:href="#radial-gradient"/><radialGradient id="radial-gradient-6" cx="467.33" cy="389.36" r="44.15" xlink:href="#radial-gradient"/><radialGradient id="radial-gradient-7" cx="468.51" cy="415.79" r="35.78" gradientTransform="translate(272.48 -158.25) rotate(29.26) scale(0.97)" xlink:href="#radial-gradient-3"/><radialGradient id="radial-gradient-8" cx="342.31" cy="235.16" r="25.53" xlink:href="#radial-gradient"/><radialGradient id="radial-gradient-9" cx="342.99" cy="250.45" r="20.69" xlink:href="#radial-gradient-3"/><radialGradient id="radial-gradient-10" cx="355.77" cy="214.47" r="57.18" gradientTransform="matrix(1, 0, 0, 1, 0, 0)" xlink:href="#radial-gradient"/></defs><title>medical-scientist-blue [Converted] [Recovered]</title><g style="isolation:isolate"><g id="Layer_4" data-name="Layer 4"><circle cx="777.27" cy="247.53" r="51.52" style="fill:#2aa5eb"/><circle cx="823.51" cy="343.95" r="16.82" style="fill:#2aa5eb"/><circle cx="201.8" cy="279.13" r="12.7" transform="translate(-116.05 411.81) rotate(-76.79)" style="fill:#2aa5eb"/><circle cx="422.16" cy="94.61" r="24.77" style="fill:#2aa5eb"/><circle cx="111.68" cy="363.76" r="24.77" transform="translate(-265.2 416.2) rotate(-80.85)" style="fill:#2aa5eb"/><path d="M300.25,67.09c1.13,0,2-3,2-6.74s-.91-6.74-2-6.74c-.58,0-1.11.81-1.48,2.11a4.07,4.07,0,0,1-3.9,3h-7.61V62h7.61a4.07,4.07,0,0,1,3.9,3C299.14,66.28,299.67,67.09,300.25,67.09Z" style="fill:#c3d446"/><path d="M290.4,87.36c1,.61,3.36-1.42,5.39-4.55s2.9-6.15,2-6.76c-.49-.32-1.38.07-2.4,1a4.06,4.06,0,0,1-4.9.39l-6.38-4.14L282.29,76l6.39,4.15a4.07,4.07,0,0,1,1.63,4.63C289.91,86.07,289.91,87,290.4,87.36Z" style="fill:#c3d446"/><path d="M271.11,99c.46,1,3.59.63,7-.88s5.79-3.58,5.33-4.61c-.24-.53-1.2-.68-2.54-.49a4.07,4.07,0,0,1-4.32-2.34l-3.1-7-3,1.33,3.1,7a4.07,4.07,0,0,1-1.15,4.77C271.4,97.64,270.87,98.45,271.11,99Z" style="fill:#c3d446"/><path d="M248.59,98.23c-.17,1.12,2.66,2.49,6.34,3.07s6.8.16,7-1c.09-.58-.63-1.22-1.86-1.79a4.09,4.09,0,0,1-2.35-4.32l1.2-7.52-3.23-.51-1.19,7.52a4.06,4.06,0,0,1-3.57,3.38C249.57,97.26,248.68,97.65,248.59,98.23Z" style="fill:#c3d446"/><path d="M230.12,85.34c-.76.83.88,3.53,3.64,6s5.63,3.83,6.38,3c.39-.43.14-1.37-.58-2.52a4.07,4.07,0,0,1,.38-4.9l5.1-5.66-2.43-2.18-5.1,5.66a4.07,4.07,0,0,1-4.83.89C231.47,85.06,230.51,84.9,230.12,85.34Z" style="fill:#c3d446"/><path d="M221.65,64.46c-1.09.29-1.19,3.44-.23,7s2.63,6.28,3.72,6c.56-.16.86-1.08.88-2.43a4.06,4.06,0,0,1,3-3.9l7.36-2L235.52,66l-7.35,2a4.05,4.05,0,0,1-4.54-1.88C222.93,65,222.21,64.31,221.65,64.46Z" style="fill:#c3d446"/><path d="M225.92,42.34c-1.08-.35-2.88,2.24-4,5.78s-1.21,6.7-.14,7c.55.18,1.31-.43,2.06-1.55A4.07,4.07,0,0,1,228.44,52l7.24,2.36,1-3.11-7.24-2.35a4.07,4.07,0,0,1-2.78-4C226.72,43.46,226.47,42.52,225.92,42.34Z" style="fill:#c3d446"/><path d="M241.54,26.11c-.71-.88-3.63.31-6.52,2.66s-4.67,4.95-4,5.83c.37.45,1.33.35,2.58-.18a4.06,4.06,0,0,1,4.78,1.14l4.79,5.92,2.54-2.06L241,33.5a4.07,4.07,0,0,1-.12-4.91C241.61,27.49,241.91,26.56,241.54,26.11Z" style="fill:#c3d446"/><path d="M263.49,21c-.12-1.12-3.22-1.71-6.92-1.32s-6.61,1.61-6.49,2.73c.06.58.92,1,2.25,1.25a4.08,4.08,0,0,1,3.39,3.56l.8,7.58,3.24-.34L259,26.89a4.06,4.06,0,0,1,2.57-4.18C262.79,22.2,263.55,21.59,263.49,21Z" style="fill:#c3d446"/><path d="M284.67,28.69c.51-1-1.76-3.19-5.08-4.88s-6.42-2.25-6.94-1.25c-.26.52.22,1.36,1.21,2.28a4.07,4.07,0,0,1,.91,4.83l-3.46,6.79,2.91,1.48,3.45-6.78a4.07,4.07,0,0,1,4.44-2.11C283.44,29.31,284.4,29.21,284.67,28.69Z" style="fill:#c3d446"/><path d="M298.25,46.66c1-.57.26-3.64-1.6-6.86s-4.16-5.38-5.14-4.82c-.51.29-.56,1.26-.23,2.57a4.05,4.05,0,0,1-1.87,4.54l-6.6,3.81,1.64,2.83L291,44.92a4.08,4.08,0,0,1,4.87.65C296.88,46.51,297.75,47,298.25,46.66Z" style="fill:#c3d446"/><circle cx="260.88" cy="60.35" r="27.83" style="fill:#818d2e"/><circle cx="275.38" cy="51.66" r="6.99" transform="translate(15.3 155.88) rotate(-32.46)" style="fill:#c3d446"/><circle cx="270.99" cy="63.3" r="3.55" style="fill:#c3d446"/><path d="M264.32,60.68a2.24,2.24,0,1,1,2.23-2.23A2.23,2.23,0,0,1,264.32,60.68Z" style="fill:#c3d446"/><path d="M249.49,77a6.87,6.87,0,1,1,6.87-6.87A6.87,6.87,0,0,1,249.49,77Z" style="fill:#c3d446"/><path d="M260,83.31a2.83,2.83,0,1,1,2.83-2.83A2.84,2.84,0,0,1,260,83.31Z" style="fill:#c3d446"/><path d="M248.3,48.42a2.83,2.83,0,1,1,2.84-2.83A2.83,2.83,0,0,1,248.3,48.42Z" style="fill:#c3d446"/><path d="M261.91,100.34c.09-.58-.63-1.22-1.86-1.79a4.09,4.09,0,0,1-2.35-4.32l1-6.14c.73.06,1.46.09,2.2.09A27.65,27.65,0,0,0,271,86.26L273.59,92a4.07,4.07,0,0,1-1.15,4.77c-1,.87-1.57,1.68-1.33,2.22.46,1,3.59.63,7-.88s5.79-3.58,5.33-4.61c-.24-.53-1.2-.68-2.54-.49a4.07,4.07,0,0,1-4.32-2.34L274,84.9a28,28,0,0,0,9.4-8.19l5.28,3.43a4.07,4.07,0,0,1,1.63,4.63c-.4,1.3-.4,2.27.09,2.59,1,.61,3.36-1.42,5.39-4.55s2.9-6.15,2-6.76c-.49-.32-1.38.07-2.4,1a4.06,4.06,0,0,1-4.9.39L285.16,74a27.65,27.65,0,0,0,3.51-12h6.2a4.07,4.07,0,0,1,3.9,3c.37,1.3.9,2.11,1.48,2.11,1.13,0,2-3,2-6.74s-.91-6.74-2-6.74c-.58,0-1.11.81-1.48,2.11a4.07,4.07,0,0,1-3.9,3h-6.2A27.62,27.62,0,0,0,285.8,48l5.24-3a4.08,4.08,0,0,1,4.87.65c1,.94,1.84,1.38,2.34,1.09,1-.57.26-3.64-1.6-6.86s-4.16-5.38-5.14-4.82c-.51.29-.56,1.26-.23,2.57a4.05,4.05,0,0,1-1.87,4.54l-5.23,3A28.07,28.07,0,0,0,275,36.37l2.65-5.21a4.07,4.07,0,0,1,4.44-2.11c1.33.26,2.29.16,2.56-.36.51-1-1.76-3.19-5.08-4.88s-6.42-2.25-6.94-1.25c-.26.52.22,1.36,1.21,2.28a4.07,4.07,0,0,1,.91,4.83l-2.66,5.21a27.65,27.65,0,0,0-11.23-2.36l-1.32,0L259,26.89a4.06,4.06,0,0,1,2.57-4.18c1.25-.51,2-1.12,1.95-1.7-.12-1.12-3.22-1.71-6.92-1.32s-6.61,1.61-6.49,2.73c.06.58.92,1,2.25,1.25a4.08,4.08,0,0,1,3.39,3.56l.6,5.66a27.91,27.91,0,0,0-11.84,5L241,33.5a4.07,4.07,0,0,1-.12-4.91c.78-1.1,1.08-2,.71-2.48-.71-.88-3.63.31-6.52,2.66s-4.67,4.95-4,5.83c.37.45,1.33.35,2.58-.18a4.06,4.06,0,0,1,4.78,1.14L242,39.94a27.82,27.82,0,0,0-7.16,10.66l-5.36-1.74a4.07,4.07,0,0,1-2.78-4c.05-1.35-.2-2.29-.75-2.47-1.08-.35-2.88,2.24-4,5.78s-1.21,6.7-.14,7c.55.18,1.31-.43,2.06-1.55A4.07,4.07,0,0,1,228.44,52l5.41,1.76a27.86,27.86,0,0,0-.11,12.79L228.17,68a4.05,4.05,0,0,1-4.54-1.88c-.7-1.16-1.42-1.81-2-1.66-1.09.29-1.19,3.44-.23,7s2.63,6.28,3.72,6c.56-.16.86-1.08.88-2.43a4.06,4.06,0,0,1,3-3.9l5.64-1.51a27.66,27.66,0,0,0,6.86,10.67l-4,4.44a4.07,4.07,0,0,1-4.83.89c-1.21-.59-2.17-.75-2.56-.31-.76.83.88,3.53,3.64,6s5.63,3.83,6.38,3c.39-.43.14-1.37-.58-2.52a4.07,4.07,0,0,1,.38-4.9l4-4.48a27.61,27.61,0,0,0,11.46,5.19l-1,6.07a4.06,4.06,0,0,1-3.57,3.38c-1.34.16-2.23.55-2.32,1.13-.17,1.12,2.66,2.49,6.34,3.07S261.73,101.46,261.91,100.34Z" style="opacity:0.51;mix-blend-mode:overlay;fill:url(#radial-gradient)"/><path d="M639.88,16.16c0-3.13-8.37-5.66-18.7-5.66S602.47,13,602.47,16.16c0,1.62,2.26,3.08,5.87,4.11a11.3,11.3,0,0,1,8.31,10.81V52.21h9.05V31.08A11.29,11.29,0,0,1,634,20.27C637.63,19.24,639.88,17.78,639.88,16.16Z" style="fill:#c3d446"/><path d="M696.1,43.48c1.7-2.62-3.94-9.31-12.61-14.94s-17.06-8.06-18.77-5.44c-.88,1.36.21,3.82,2.68,6.65a11.29,11.29,0,0,1,1.09,13.59L657,61.05l7.6,4.94,11.5-17.72a11.29,11.29,0,0,1,12.86-4.54C692.53,44.84,695.21,44.84,696.1,43.48Z" style="fill:#c3d446"/><path d="M728.36,97c2.86-1.28,1.77-10-2.43-19.4s-9.92-16-12.78-14.78c-1.48.66-1.9,3.31-1.37,7a11.29,11.29,0,0,1-6.49,12L686,90.44l3.68,8.27L709,90.12a11.29,11.29,0,0,1,13.25,3.2C724.63,96.2,726.88,97.67,728.36,97Z" style="fill:#c3d446"/><path d="M726.27,159.47c3.09.49,6.91-7.38,8.52-17.59s.42-18.87-2.67-19.36c-1.6-.25-3.39,1.75-5,5.15a11.28,11.28,0,0,1-12,6.52l-20.86-3.3-1.42,8.94,20.87,3.3a11.3,11.3,0,0,1,9.37,9.9C723.58,156.76,724.67,159.22,726.27,159.47Z" style="fill:#c3d446"/><path d="M690.5,210.72c2.32,2.09,9.81-2.43,16.72-10.11s10.63-15.6,8.31-17.69c-1.21-1.09-3.8-.39-7,1.61A11.28,11.28,0,0,1,695,183.47l-15.7-14.13-6.06,6.73,15.7,14.13a11.3,11.3,0,0,1,2.47,13.41C689.72,207,689.29,209.63,690.5,210.72Z" style="fill:#c3d446"/><path d="M632.58,234.22c.81,3,9.56,3.3,19.53.63s17.42-7.29,16.61-10.32c-.42-1.56-3-2.39-6.73-2.45a11.29,11.29,0,0,1-10.83-8.29l-5.47-20.4L637,195.73l5.46,20.41a11.28,11.28,0,0,1-5.23,12.59C634,230.66,632.16,232.65,632.58,234.22Z" style="fill:#c3d446"/><path d="M571.21,222.38c-1,3,6.22,8,16,11.17s18.57,3.36,19.54.39c.5-1.54-1.19-3.63-4.31-5.72a11.3,11.3,0,0,1-4.56-12.85l6.53-20.09-8.62-2.8-6.52,20.09a11.3,11.3,0,0,1-11.25,7.71C574.31,220.14,571.71,220.84,571.21,222.38Z" style="fill:#c3d446"/><path d="M526.19,179c-2.43,2,.87,10.07,7.37,18.1s13.74,12.94,16.17,11c1.26-1,1-3.69-.49-7.15a11.29,11.29,0,0,1,3.16-13.26l16.42-13.29-5.7-7-16.41,13.3a11.3,11.3,0,0,1-13.63.34C530,178.84,527.45,178,526.19,179Z" style="fill:#c3d446"/><path d="M512,118.15c-3.11.33-4.75,8.92-3.67,19.19s4.47,18.34,7.58,18c1.62-.17,2.83-2.56,3.48-6.26a11.28,11.28,0,0,1,9.88-9.39l21-2.21-1-9-21,2.21a11.28,11.28,0,0,1-11.61-7.14C515.34,120.07,513.66,118,512,118.15Z" style="fill:#c3d446"/><path d="M533.34,59.39c-2.79-1.42-8.85,4.89-13.54,14.09s-6.23,17.82-3.45,19.24c1.45.74,3.77-.61,6.33-3.36a11.29,11.29,0,0,1,13.4-2.5l18.82,9.59L559,88.38l-18.83-9.59a11.27,11.27,0,0,1-5.85-12.31C535.06,62.8,534.78,60.12,533.34,59.39Z" style="fill:#c3d446"/><path d="M583.2,21.7c-1.57-2.71-10.09-.72-19,4.45S549.23,37.7,550.8,40.41c.81,1.4,3.49,1.54,7.14.62a11.28,11.28,0,0,1,12.59,5.21L581.1,64.53,588.94,60l-10.56-18.3a11.28,11.28,0,0,1,1.79-13.51C582.78,25.5,584,23.11,583.2,21.7Z" style="fill:#c3d446"/><circle cx="621.18" cy="125.37" r="77.22" style="fill:#818d2e"/><circle cx="597.06" cy="85.17" r="19.38" style="fill:#c3d446"/><circle cx="629.35" cy="97.32" r="9.86" transform="translate(353.61 671.37) rotate(-73.13)" style="fill:#c3d446"/><path d="M622.1,115.84a6.2,6.2,0,1,1-6.2-6.2A6.21,6.21,0,0,1,622.1,115.84Z" style="fill:#c3d446"/><circle cx="648.4" cy="156.97" r="19.05" style="fill:#c3d446"/><circle cx="677.02" cy="127.83" r="7.86" transform="translate(442.39 775.64) rotate(-80.78)" style="fill:#c3d446"/><circle cx="580.24" cy="160.27" r="7.86" style="fill:#c3d446"/><path d="M732.12,122.52c-1.6-.25-3.39,1.75-5,5.15a11.28,11.28,0,0,1-12,6.52l-17-2.7c.16-2,.26-4.06.26-6.12a77.07,77.07,0,0,0-5.32-28.17L709,90.12a11.29,11.29,0,0,1,13.25,3.2c2.41,2.88,4.66,4.35,6.14,3.69,2.86-1.28,1.77-10-2.43-19.4s-9.92-16-12.78-14.78c-1.48.66-1.9,3.31-1.37,7a11.29,11.29,0,0,1-6.49,12l-16,7.12a77.6,77.6,0,0,0-22.72-26l9.51-14.65a11.29,11.29,0,0,1,12.86-4.54c3.59,1.11,6.27,1.11,7.16-.25,1.7-2.62-3.94-9.31-12.61-14.94s-17.06-8.06-18.77-5.44c-.88,1.36.21,3.82,2.68,6.65a11.29,11.29,0,0,1,1.09,13.59L659,58a76.72,76.72,0,0,0-33.25-9.74V31.08A11.29,11.29,0,0,1,634,20.27c3.61-1,5.86-2.49,5.86-4.11,0-3.13-8.37-5.66-18.7-5.66S602.47,13,602.47,16.16c0,1.62,2.26,3.08,5.87,4.11a11.3,11.3,0,0,1,8.31,10.81V48.29a76.83,76.83,0,0,0-29.88,8l-8.39-14.53a11.28,11.28,0,0,1,1.79-13.51c2.61-2.7,3.84-5.09,3-6.5-1.57-2.71-10.09-.72-19,4.45S549.23,37.7,550.8,40.41c.81,1.4,3.49,1.54,7.14.62a11.3,11.3,0,0,1,12.6,5.21l8.38,14.51a77.64,77.64,0,0,0-24.26,25.41l-14.47-7.37a11.27,11.27,0,0,1-5.85-12.31c.72-3.68.44-6.36-1-7.09-2.79-1.42-8.85,4.89-13.54,14.09s-6.23,17.82-3.45,19.24c1.45.74,3.77-.61,6.33-3.36a11.29,11.29,0,0,1,13.4-2.5l14.44,7.36A76.87,76.87,0,0,0,544,125.37c0,1.23,0,2.45.09,3.67l-15.69,1.65a11.28,11.28,0,0,1-11.61-7.14c-1.41-3.48-3.09-5.57-4.71-5.4-3.11.33-4.75,8.92-3.67,19.19s4.47,18.34,7.58,18c1.62-.17,2.83-2.56,3.48-6.26a11.28,11.28,0,0,1,9.88-9.39L545,138a76.82,76.82,0,0,0,13.79,32.82l-12.09,9.8a11.3,11.3,0,0,1-13.63.34c-3.07-2.16-5.63-3-6.89-2-2.43,2,.87,10.07,7.37,18.1s13.74,12.94,16.17,11c1.26-1,1-3.69-.49-7.15a11.29,11.29,0,0,1,3.16-13.26l12.16-9.84a77.31,77.31,0,0,0,29.58,19.86l-4.83,14.86a11.3,11.3,0,0,1-11.25,7.71c-3.75-.14-6.35.56-6.85,2.1-1,3,6.22,8,16,11.17s18.57,3.36,19.54.39c.5-1.54-1.19-3.63-4.31-5.72a11.3,11.3,0,0,1-4.56-12.85l4.87-15a77.15,77.15,0,0,0,35.48.3l4.14,15.47a11.28,11.28,0,0,1-5.23,12.59c-3.22,1.93-5,3.92-4.6,5.49.81,3,9.56,3.3,19.53.63s17.42-7.29,16.61-10.32c-.42-1.56-3-2.39-6.73-2.45a11.29,11.29,0,0,1-10.83-8.29L647,198.16a77.28,77.28,0,0,0,29.62-19L688.9,190.2a11.3,11.3,0,0,1,2.47,13.41c-1.65,3.37-2.08,6-.87,7.11,2.32,2.09,9.81-2.43,16.72-10.11s10.63-15.6,8.31-17.69c-1.21-1.09-3.8-.39-7,1.61A11.28,11.28,0,0,1,695,183.47l-12.45-11.21a76.88,76.88,0,0,0,14.4-31.79l16.85,2.67a11.28,11.28,0,0,1,9.37,9.89c.45,3.73,1.54,6.19,3.14,6.44,3.09.49,6.91-7.38,8.52-17.59S735.21,123,732.12,122.52Z" style="opacity:0.51;mix-blend-mode:overlay;fill:url(#radial-gradient-2)"/><circle cx="619.5" cy="123.59" r="99.28" style="mix-blend-mode:screen;fill:url(#radial-gradient-3)"/><path d="M829.1,88.5c1.15,0,2.08-3.08,2.08-6.89s-.93-6.88-2.08-6.88c-.6,0-1.14.83-1.52,2.16a4.16,4.16,0,0,1-4,3.06h-7.78v3.33h7.78a4.14,4.14,0,0,1,4,3.06C828,87.67,828.5,88.5,829.1,88.5Z" style="fill:#c3d446"/><path d="M819,109.19c1,.62,3.43-1.45,5.5-4.64s3-6.28,2-6.91c-.5-.33-1.4.08-2.44,1a4.17,4.17,0,0,1-5,.4l-6.53-4.24-1.81,2.8,6.52,4.23a4.15,4.15,0,0,1,1.67,4.73C818.54,107.87,818.54,108.86,819,109.19Z" style="fill:#c3d446"/><path d="M799.34,121.06c.47,1,3.67.65,7.14-.89s5.91-3.66,5.44-4.71c-.24-.54-1.22-.7-2.59-.5a4.17,4.17,0,0,1-4.41-2.39l-3.16-7.1-3,1.35,3.17,7.11a4.15,4.15,0,0,1-1.18,4.87C799.64,119.69,799.1,120.52,799.34,121.06Z" style="fill:#c3d446"/><path d="M776.35,120.29c-.18,1.14,2.72,2.54,6.48,3.14s6.94.15,7.12-1c.09-.59-.64-1.25-1.89-1.84a4.12,4.12,0,0,1-2.4-4.4l1.21-7.68-3.29-.52-1.22,7.68a4.16,4.16,0,0,1-3.64,3.45C777.35,119.3,776.45,119.7,776.35,120.29Z" style="fill:#c3d446"/><path d="M757.49,107.13c-.77.85.9,3.61,3.72,6.15s5.74,3.91,6.51,3.06c.4-.44.14-1.4-.59-2.57a4.15,4.15,0,0,1,.39-5l5.2-5.78-2.48-2.23-5.2,5.78a4.16,4.16,0,0,1-4.93.91C758.87,106.84,757.89,106.68,757.49,107.13Z" style="fill:#c3d446"/><path d="M748.84,85.81c-1.11.3-1.21,3.52-.23,7.19s2.68,6.41,3.8,6.11c.57-.15.88-1.1.9-2.48a4.16,4.16,0,0,1,3.05-4l7.51-2L763,87.42l-7.51,2a4.17,4.17,0,0,1-4.64-1.93C750.15,86.32,749.42,85.66,748.84,85.81Z" style="fill:#c3d446"/><path d="M753.2,63.22c-1.1-.35-2.94,2.29-4.11,5.91s-1.24,6.83-.15,7.19c.57.18,1.34-.44,2.11-1.59a4.16,4.16,0,0,1,4.73-1.68l7.39,2.4,1-3.16-7.39-2.41A4.14,4.14,0,0,1,754,65.74C754,64.36,753.77,63.41,753.2,63.22Z" style="fill:#c3d446"/><path d="M769.15,46.65c-.72-.89-3.7.32-6.66,2.72s-4.76,5.05-4,6c.38.46,1.36.36,2.63-.18A4.14,4.14,0,0,1,766,56.3l4.9,6,2.59-2.09-4.9-6a4.16,4.16,0,0,1-.12-5C769.22,48.06,769.53,47.12,769.15,46.65Z" style="fill:#c3d446"/><path d="M791.56,41.45c-.12-1.15-3.28-1.75-7.06-1.36s-6.75,1.65-6.63,2.8c.06.59.94,1,2.3,1.27a4.16,4.16,0,0,1,3.46,3.64l.81,7.73,3.32-.35L787,47.45a4.14,4.14,0,0,1,2.62-4.27C790.85,42.66,791.62,42,791.56,41.45Z" style="fill:#c3d446"/><path d="M813.19,49.28c.52-1-1.8-3.25-5.19-5S801.44,42,800.92,43c-.27.53.23,1.39,1.24,2.33a4.17,4.17,0,0,1,.92,4.93l-3.53,6.93,3,1.51,3.53-6.92a4.14,4.14,0,0,1,4.53-2.16C811.93,49.92,812.92,49.81,813.19,49.28Z" style="fill:#c3d446"/><path d="M827.06,67.63c1-.57.26-3.71-1.64-7s-4.25-5.5-5.25-4.92c-.51.3-.56,1.29-.23,2.63A4.14,4.14,0,0,1,818,63l-6.74,3.89L813,69.75l6.74-3.89a4.15,4.15,0,0,1,5,.66C825.66,67.48,826.54,67.93,827.06,67.63Z" style="fill:#c3d446"/><circle cx="788.9" cy="81.61" r="28.42" transform="translate(173.36 581.74) rotate(-45)" style="fill:#818d2e"/><path d="M803.7,79.87a7.14,7.14,0,1,1,7.13-7.13A7.13,7.13,0,0,1,803.7,79.87Z" style="fill:#c3d446"/><circle cx="799.23" cy="84.62" r="3.63" style="fill:#c3d446"/><circle cx="792.41" cy="79.67" r="2.28" style="fill:#c3d446"/><path d="M777.27,98.64a7,7,0,1,1,7-7A7,7,0,0,1,777.27,98.64Z" style="fill:#c3d446"/><path d="M788,105.06a2.89,2.89,0,1,1,2.89-2.89A2.9,2.9,0,0,1,788,105.06Z" style="fill:#c3d446"/><circle cx="776.06" cy="66.55" r="2.89" style="fill:#c3d446"/><path d="M790,122.45c.09-.59-.64-1.25-1.89-1.84a4.12,4.12,0,0,1-2.4-4.4l1-6.27c.74,0,1.49.09,2.25.09a28.33,28.33,0,0,0,10.37-2l2.61,5.86a4.15,4.15,0,0,1-1.18,4.87c-1.06.89-1.6,1.72-1.36,2.26.47,1,3.67.65,7.14-.89s5.91-3.66,5.44-4.71c-.24-.54-1.22-.7-2.59-.5a4.17,4.17,0,0,1-4.41-2.39l-2.62-5.89a28.57,28.57,0,0,0,9.59-8.36l5.39,3.5a4.15,4.15,0,0,1,1.67,4.73c-.41,1.32-.41,2.31.09,2.64,1,.62,3.43-1.45,5.5-4.64s3-6.28,2-6.91c-.5-.33-1.4.08-2.44,1a4.17,4.17,0,0,1-5,.4l-5.41-3.52a28.17,28.17,0,0,0,3.58-12.23h6.34a4.14,4.14,0,0,1,4,3.06c.38,1.33.92,2.16,1.52,2.16,1.15,0,2.08-3.08,2.08-6.89s-.93-6.88-2.08-6.88c-.6,0-1.14.83-1.52,2.16a4.16,4.16,0,0,1-4,3.06h-6.34a28.39,28.39,0,0,0-2.92-11l5.35-3.09a4.15,4.15,0,0,1,5,.66c1,1,1.87,1.41,2.39,1.11,1-.57.26-3.71-1.64-7s-4.25-5.5-5.25-4.92c-.51.3-.56,1.29-.23,2.63A4.14,4.14,0,0,1,818,63l-5.34,3.09a28.54,28.54,0,0,0-9.36-8.93l2.72-5.32a4.14,4.14,0,0,1,4.53-2.16c1.35.27,2.34.16,2.61-.37.52-1-1.8-3.25-5.19-5S801.44,42,800.92,43c-.27.53.23,1.39,1.24,2.33a4.17,4.17,0,0,1,.92,4.93l-2.71,5.32a28.33,28.33,0,0,0-11.47-2.42c-.45,0-.9,0-1.35,0l-.6-5.78a4.14,4.14,0,0,1,2.62-4.27c1.28-.52,2-1.14,2-1.73-.12-1.15-3.28-1.75-7.06-1.36s-6.75,1.65-6.63,2.8c.06.59.94,1,2.3,1.27a4.16,4.16,0,0,1,3.46,3.64l.61,5.78a28.24,28.24,0,0,0-12.08,5.07l-3.61-4.45a4.16,4.16,0,0,1-.12-5c.79-1.13,1.1-2.07.72-2.54-.72-.89-3.7.32-6.66,2.72s-4.76,5.05-4,6c.38.46,1.36.36,2.63-.18A4.14,4.14,0,0,1,766,56.3l3.63,4.47a28.4,28.4,0,0,0-7.31,10.89l-5.47-1.78A4.14,4.14,0,0,1,754,65.74c0-1.38-.2-2.33-.77-2.52-1.1-.35-2.94,2.29-4.11,5.91s-1.24,6.83-.15,7.19c.57.18,1.34-.44,2.11-1.59a4.16,4.16,0,0,1,4.73-1.68l5.52,1.8a28.25,28.25,0,0,0-.11,13.05l-5.69,1.53a4.17,4.17,0,0,1-4.64-1.93c-.71-1.18-1.44-1.84-2-1.69-1.11.3-1.21,3.52-.23,7.19s2.68,6.41,3.8,6.11c.57-.15.88-1.1.9-2.48a4.16,4.16,0,0,1,3.05-4l5.75-1.54a28.54,28.54,0,0,0,7,10.9L765,106.54a4.16,4.16,0,0,1-4.93.91c-1.24-.61-2.22-.77-2.62-.32-.77.85.9,3.61,3.72,6.15s5.74,3.91,6.51,3.06c.4-.44.14-1.4-.59-2.57a4.15,4.15,0,0,1,.39-5l4.12-4.58a28.35,28.35,0,0,0,11.71,5.3l-1,6.2a4.16,4.16,0,0,1-3.64,3.45c-1.37.16-2.27.56-2.37,1.15-.18,1.14,2.72,2.54,6.48,3.14S789.77,123.58,790,122.45Z" style="opacity:0.51;mix-blend-mode:overlay;fill:url(#radial-gradient-4)"/><path d="M182.24,185c2.07,0,3.75-5.54,3.75-12.38s-1.68-12.38-3.75-12.38c-1.07,0-2,1.49-2.72,3.88a7.46,7.46,0,0,1-7.15,5.5h-14v6h14a7.46,7.46,0,0,1,7.15,5.5C180.2,183.5,181.17,185,182.24,185Z" style="fill:#c3d446"/><path d="M164.17,222.19c1.73,1.13,6.16-2.61,9.88-8.34s5.34-11.3,3.6-12.42c-.9-.59-2.52.14-4.4,1.77a7.45,7.45,0,0,1-9,.72l-11.73-7.62-3.26,5L161,209a7.47,7.47,0,0,1,3,8.5C163.27,219.83,163.27,221.61,164.17,222.19Z" style="fill:#c3d446"/><path d="M128.74,243.55c.84,1.89,6.59,1.16,12.83-1.62s10.63-6.56,9.79-8.45c-.44-1-2.19-1.26-4.66-.91a7.47,7.47,0,0,1-7.93-4.3l-5.69-12.77-5.47,2.44,5.69,12.77a7.48,7.48,0,0,1-2.12,8.77C129.28,241.07,128.3,242.56,128.74,243.55Z" style="fill:#c3d446"/><path d="M87.4,242.16c-.32,2.05,4.89,4.57,11.64,5.64s12.49.28,12.81-1.77c.17-1.06-1.15-2.24-3.4-3.29a7.47,7.47,0,0,1-4.32-7.92L106.32,221l-5.92-.94-2.19,13.81a7.46,7.46,0,0,1-6.55,6.2C89.19,240.38,87.57,241.1,87.4,242.16Z" style="fill:#c3d446"/><path d="M53.48,218.49C52.1,220,55.1,225,60.18,229.55s10.32,7,11.7,5.5c.72-.8.26-2.51-1.06-4.62a7.46,7.46,0,0,1,.7-9l9.35-10.39-4.45-4-9.36,10.39a7.46,7.46,0,0,1-8.87,1.63C56,218,54.2,217.69,53.48,218.49Z" style="fill:#c3d446"/><path d="M37.93,180.16c-2,.53-2.18,6.32-.41,12.92s4.82,11.53,6.82,11c1-.28,1.59-2,1.63-4.45a7.47,7.47,0,0,1,5.48-7.17L65,188.83l-1.56-5.78-13.5,3.61a7.46,7.46,0,0,1-8.33-3.46C40.29,181.07,39,179.88,37.93,180.16Z" style="fill:#c3d446"/><path d="M45.77,139.54c-2-.64-5.28,4.11-7.39,10.62s-2.23,12.29-.26,12.93c1,.33,2.4-.79,3.79-2.85a7.46,7.46,0,0,1,8.5-3l13.29,4.32,1.86-5.7-13.3-4.32a7.48,7.48,0,0,1-5.1-7.44C47.25,141.59,46.79,139.87,45.77,139.54Z" style="fill:#c3d446"/><path d="M74.46,109.75c-1.3-1.61-6.67.57-12,4.87s-8.56,9.1-7.26,10.71c.67.83,2.44.64,4.73-.33a7.47,7.47,0,0,1,8.77,2.09L77.52,138l4.66-3.77-8.8-10.87a7.49,7.49,0,0,1-.23-9C74.58,112.27,75.13,110.58,74.46,109.75Z" style="fill:#c3d446"/><path d="M114.75,100.38c-.22-2-5.91-3.14-12.7-2.43s-12.14,3-11.92,5c.11,1.07,1.69,1.87,4.14,2.3a7.47,7.47,0,0,1,6.22,6.54l1.46,13.9,6-.62-1.46-13.91a7.47,7.47,0,0,1,4.72-7.68C113.48,102.57,114.86,101.45,114.75,100.38Z" style="fill:#c3d446"/><path d="M153.64,114.47c.94-1.84-3.24-5.85-9.33-9s-11.79-4.13-12.73-2.29c-.49,1,.4,2.5,2.22,4.19a7.48,7.48,0,0,1,1.66,8.87l-6.35,12.46,5.34,2.72L140.8,119a7.45,7.45,0,0,1,8.14-3.87C151.38,115.61,153.15,115.43,153.64,114.47Z" style="fill:#c3d446"/><path d="M178.58,147.47c1.79-1,.47-6.67-3-12.59S168,125,166.2,126c-.93.54-1,2.31-.42,4.73a7.44,7.44,0,0,1-3.44,8.33l-12.11,7,3,5.19,12.11-7a7.48,7.48,0,0,1,8.94,1.19C176.07,147.2,177.65,148,178.58,147.47Z" style="fill:#c3d446"/><circle cx="109.97" cy="172.61" r="51.1" transform="translate(-83.64 238.96) rotate(-76.42)" style="fill:#818d2e"/><circle cx="136.58" cy="156.65" r="12.83" transform="translate(-70.76 142.45) rotate(-45)" style="fill:#c3d446"/><circle cx="128.53" cy="178.02" r="6.52" style="fill:#c3d446"/><path d="M116.28,173.22a4.11,4.11,0,1,1,4.1-4.1A4.1,4.1,0,0,1,116.28,173.22Z" style="fill:#c3d446"/><circle cx="89.06" cy="190.63" r="12.61" transform="translate(-108.71 118.81) rotate(-45)" style="fill:#c3d446"/><circle cx="108.34" cy="209.57" r="5.2" style="fill:#c3d446"/><circle cx="86.87" cy="145.52" r="5.2" style="fill:#c3d446"/><path d="M111.85,246c.17-1.06-1.15-2.24-3.4-3.29a7.47,7.47,0,0,1-4.32-7.92l1.79-11.28c1.34.1,2.68.17,4,.17a51.06,51.06,0,0,0,18.64-3.52l4.69,10.52a7.48,7.48,0,0,1-2.12,8.77c-1.9,1.59-2.88,3.08-2.44,4.07.84,1.89,6.59,1.16,12.83-1.62s10.63-6.56,9.79-8.45c-.44-1-2.19-1.26-4.66-.91a7.47,7.47,0,0,1-7.93-4.3l-4.71-10.59a51.31,51.31,0,0,0,17.24-15L161,209a7.47,7.47,0,0,1,3,8.5c-.73,2.38-.73,4.16.17,4.74,1.73,1.13,6.16-2.61,9.88-8.34s5.34-11.3,3.6-12.42c-.9-.59-2.52.14-4.4,1.77a7.45,7.45,0,0,1-9,.72l-9.72-6.31a50.87,50.87,0,0,0,6.44-22h11.39a7.46,7.46,0,0,1,7.15,5.5c.68,2.39,1.65,3.88,2.72,3.88,2.07,0,3.75-5.54,3.75-12.38s-1.68-12.38-3.75-12.38c-1.07,0-2,1.49-2.72,3.88a7.46,7.46,0,0,1-7.15,5.5H161a50.78,50.78,0,0,0-5.26-19.77l9.62-5.56a7.48,7.48,0,0,1,8.94,1.19c1.79,1.73,3.37,2.54,4.3,2,1.79-1,.47-6.67-3-12.59S168,125,166.2,126c-.93.54-1,2.31-.42,4.73a7.44,7.44,0,0,1-3.44,8.33l-9.61,5.55a51.28,51.28,0,0,0-16.81-16L140.8,119a7.45,7.45,0,0,1,8.14-3.87c2.44.47,4.21.29,4.7-.67.94-1.84-3.24-5.85-9.33-9s-11.79-4.13-12.73-2.29c-.49,1,.4,2.5,2.22,4.19a7.48,7.48,0,0,1,1.66,8.87l-4.87,9.56A50.84,50.84,0,0,0,110,121.51q-1.22,0-2.43.06l-1.09-10.39a7.47,7.47,0,0,1,4.72-7.68c2.31-.93,3.69-2,3.58-3.12-.22-2-5.91-3.14-12.7-2.43s-12.14,3-11.92,5c.11,1.07,1.69,1.87,4.14,2.3a7.47,7.47,0,0,1,6.22,6.54l1.09,10.39a50.83,50.83,0,0,0-21.72,9.13l-6.48-8a7.49,7.49,0,0,1-.23-9c1.43-2,2-3.72,1.31-4.55-1.3-1.61-6.67.57-12,4.87s-8.56,9.1-7.26,10.71c.67.83,2.44.64,4.73-.33a7.47,7.47,0,0,1,8.77,2.09l6.52,8A51,51,0,0,0,62.1,154.71l-9.84-3.19a7.48,7.48,0,0,1-5.1-7.44c.09-2.49-.37-4.21-1.39-4.54-2-.64-5.28,4.11-7.39,10.62s-2.23,12.29-.26,12.93c1,.33,2.4-.79,3.79-2.85a7.46,7.46,0,0,1,8.5-3l9.93,3.22a50.82,50.82,0,0,0-1.47,12.17,51.38,51.38,0,0,0,1.27,11.31L49.9,186.66a7.46,7.46,0,0,1-8.33-3.46c-1.28-2.13-2.6-3.32-3.64-3-2,.53-2.18,6.32-.41,12.92s4.82,11.53,6.82,11c1-.28,1.59-2,1.63-4.45a7.47,7.47,0,0,1,5.48-7.17l10.35-2.77a51,51,0,0,0,12.6,19.6l-7.34,8.15a7.46,7.46,0,0,1-8.87,1.63c-2.23-1.09-4-1.37-4.71-.57C52.1,220,55.1,225,60.18,229.55s10.32,7,11.7,5.5c.72-.8.26-2.51-1.06-4.62a7.46,7.46,0,0,1,.7-9l7.41-8.24a51,51,0,0,0,21,9.53l-1.77,11.15a7.46,7.46,0,0,1-6.55,6.2c-2.47.3-4.09,1-4.26,2.08-.32,2.05,4.89,4.57,11.64,5.64S111.53,248.08,111.85,246Z" style="opacity:0.51;mix-blend-mode:overlay;fill:url(#radial-gradient-5)"/><path d="M479.33,379.31c0-1.1-2.94-2-6.56-2s-6.55.89-6.55,2c0,.57.79,1.08,2.06,1.44a4,4,0,0,1,2.91,3.78v7.4h3.17v-7.4a4,4,0,0,1,2.91-3.78C478.54,380.39,479.33,379.88,479.33,379.31Z" style="fill:#b0a03a"/><path d="M499,388.88c.59-.92-1.38-3.26-4.42-5.24s-6-2.82-6.57-1.9c-.31.48.07,1.34.94,2.33a4,4,0,0,1,.38,4.76l-4,6.2,2.66,1.73,4-6.21a3.94,3.94,0,0,1,4.5-1.58C497.77,389.35,498.71,389.35,499,388.88Z" style="fill:#b0a03a"/><path d="M510.32,407.63c1-.45.62-3.49-.85-6.8s-3.48-5.62-4.48-5.18c-.52.24-.67,1.17-.48,2.47a4,4,0,0,1-2.27,4.2l-6.77,3,1.29,2.89,6.77-3a4,4,0,0,1,4.64,1.12C509,407.34,509.8,407.86,510.32,407.63Z" style="fill:#b0a03a"/><path d="M509.59,429.5c1.08.18,2.41-2.58,3-6.16s.15-6.61-.93-6.78c-.57-.09-1.19.61-1.75,1.81a4,4,0,0,1-4.19,2.28l-7.31-1.16-.5,3.14,7.31,1.15a4,4,0,0,1,3.28,3.47C508.64,428.56,509,429.42,509.59,429.5Z" style="fill:#b0a03a"/><path d="M497.06,447.46c.81.73,3.43-.86,5.85-3.55s3.73-5.46,2.91-6.19c-.42-.38-1.33-.14-2.44.56a4,4,0,0,1-4.76-.37l-5.5-5L491,435.32l5.49,4.95a4,4,0,0,1,.87,4.69C496.78,446.15,496.63,447.08,497.06,447.46Z" style="fill:#b0a03a"/><path d="M476.77,455.69c.28,1.05,3.35,1.15,6.84.22s6.1-2.56,5.82-3.62c-.15-.54-1.05-.83-2.36-.86a3.93,3.93,0,0,1-3.79-2.9l-1.92-7.15-3.06.83,1.91,7.14a4,4,0,0,1-1.83,4.41C477.25,454.44,476.62,455.14,476.77,455.69Z" style="fill:#b0a03a"/><path d="M455.27,451.54c-.33,1,2.18,2.79,5.62,3.91s6.51,1.18,6.85.14c.17-.54-.42-1.27-1.51-2a3.94,3.94,0,0,1-1.6-4.5l2.28-7-3-1-2.29,7a3.94,3.94,0,0,1-3.94,2.7C456.36,450.76,455.45,451,455.27,451.54Z" style="fill:#b0a03a"/><path d="M439.5,436.35c-.85.69.31,3.53,2.59,6.34s4.81,4.54,5.66,3.85c.44-.36.34-1.3-.17-2.51a3.94,3.94,0,0,1,1.11-4.64l5.75-4.66-2-2.46-5.75,4.66a4,4,0,0,1-4.77.12C440.84,436.29,440,436,439.5,436.35Z" style="fill:#b0a03a"/><path d="M434.55,415c-1.09.12-1.67,3.13-1.29,6.72s1.57,6.43,2.66,6.31c.56-.06,1-.9,1.22-2.19a3.94,3.94,0,0,1,3.46-3.29l7.36-.78-.34-3.15-7.36.77a3.94,3.94,0,0,1-4.06-2.5C435.71,415.7,435.11,415,434.55,415Z" style="fill:#b0a03a"/><path d="M442,394.45c-1-.5-3.1,1.71-4.74,4.94s-2.19,6.24-1.21,6.73c.5.26,1.32-.21,2.21-1.17a4,4,0,0,1,4.7-.88l6.59,3.36,1.44-2.82-6.59-3.36a4,4,0,0,1-2.05-4.32C442.61,395.64,442.51,394.71,442,394.45Z" style="fill:#b0a03a"/><path d="M459.47,381.25c-.55-.95-3.53-.25-6.66,1.56s-5.23,4-4.69,5c.29.49,1.23.54,2.5.22a4,4,0,0,1,4.42,1.82l3.7,6.41,2.74-1.58-3.7-6.41a4,4,0,0,1,.63-4.74C459.33,382.58,459.76,381.74,459.47,381.25Z" style="fill:#b0a03a"/><circle cx="472.77" cy="417.56" r="27.05" transform="translate(-156.79 456.6) rotate(-45)" style="fill:#696022"/><path d="M471.12,403.48a6.79,6.79,0,1,1-6.79-6.79A6.79,6.79,0,0,1,471.12,403.48Z" style="fill:#b0a03a"/><path d="M479.09,407.74a3.45,3.45,0,1,1-3.45-3.46A3.45,3.45,0,0,1,479.09,407.74Z" style="fill:#b0a03a"/><path d="M473.1,414.22a2.17,2.17,0,1,1-2.17-2.17A2.17,2.17,0,0,1,473.1,414.22Z" style="fill:#b0a03a"/><circle cx="482.31" cy="428.63" r="6.67" style="fill:#b0a03a"/><path d="M495.09,418.42a2.76,2.76,0,1,1-2.75-2.75A2.76,2.76,0,0,1,495.09,418.42Z" style="fill:#b0a03a"/><circle cx="458.44" cy="429.78" r="2.75" style="fill:#b0a03a"/><path d="M511.64,416.56c-.57-.09-1.19.61-1.75,1.81a4,4,0,0,1-4.19,2.28l-6-.95c0-.7.09-1.42.09-2.14a27,27,0,0,0-1.86-9.87l5.57-2.48a4,4,0,0,1,4.64,1.12c.84,1,1.63,1.53,2.15,1.3,1-.45.62-3.49-.85-6.8s-3.48-5.62-4.48-5.18c-.52.24-.67,1.17-.48,2.47a4,4,0,0,1-2.27,4.2l-5.61,2.49a27,27,0,0,0-8-9.12l3.34-5.14a3.94,3.94,0,0,1,4.5-1.58c1.26.38,2.2.38,2.51-.09.59-.92-1.38-3.26-4.42-5.24s-6-2.82-6.57-1.9c-.31.48.07,1.34.94,2.33a4,4,0,0,1,.38,4.76L486,394a27,27,0,0,0-11.64-3.41v-6a4,4,0,0,1,2.91-3.78c1.27-.36,2.06-.87,2.06-1.44,0-1.1-2.94-2-6.56-2s-6.55.89-6.55,2c0,.57.79,1.08,2.06,1.44a4,4,0,0,1,2.91,3.78v6a26.93,26.93,0,0,0-10.47,2.79l-2.94-5.09a4,4,0,0,1,.63-4.74c.92-.94,1.35-1.78,1.06-2.27-.55-.95-3.53-.25-6.66,1.56s-5.23,4-4.69,5c.29.49,1.23.54,2.5.22a4,4,0,0,1,4.42,1.82l2.93,5.09a27.06,27.06,0,0,0-8.49,8.9l-5.07-2.58a4,4,0,0,1-2.05-4.32c.25-1.29.15-2.22-.35-2.48-1-.5-3.1,1.71-4.74,4.94s-2.19,6.24-1.21,6.73c.5.26,1.32-.21,2.21-1.17a4,4,0,0,1,4.7-.88l5.06,2.58a26.86,26.86,0,0,0-2.3,10.91q0,.65,0,1.29l-5.5.57a3.94,3.94,0,0,1-4.06-2.5c-.49-1.22-1.09-1.95-1.65-1.89-1.09.12-1.67,3.13-1.29,6.72s1.57,6.43,2.66,6.31c.56-.06,1-.9,1.22-2.19a3.94,3.94,0,0,1,3.46-3.29l5.5-.58a26.87,26.87,0,0,0,4.83,11.5l-4.24,3.43a4,4,0,0,1-4.77.12c-1.08-.76-2-1.05-2.42-.7-.85.69.31,3.53,2.59,6.34s4.81,4.54,5.66,3.85c.44-.36.34-1.3-.17-2.51a3.94,3.94,0,0,1,1.11-4.64l4.25-3.45a27.14,27.14,0,0,0,10.36,7l-1.69,5.2a3.94,3.94,0,0,1-3.94,2.7c-1.31,0-2.22.2-2.4.74-.33,1,2.18,2.79,5.62,3.91s6.51,1.18,6.85.14c.17-.54-.42-1.27-1.51-2a3.94,3.94,0,0,1-1.6-4.5l1.71-5.25a27.21,27.21,0,0,0,6.43.78,26.89,26.89,0,0,0,6-.68l1.45,5.42a4,4,0,0,1-1.83,4.41c-1.13.68-1.76,1.38-1.61,1.93.28,1.05,3.35,1.15,6.84.22s6.1-2.56,5.82-3.62c-.15-.54-1.05-.83-2.36-.86a3.93,3.93,0,0,1-3.79-2.9l-1.47-5.47a27,27,0,0,0,10.37-6.67l4.31,3.88a4,4,0,0,1,.87,4.69c-.58,1.19-.73,2.12-.3,2.5.81.73,3.43-.86,5.85-3.55s3.73-5.46,2.91-6.19c-.42-.38-1.33-.14-2.44.56a4,4,0,0,1-4.76-.37L494.26,434a27,27,0,0,0,5-11.14l5.9.93a4,4,0,0,1,3.28,3.47c.16,1.31.54,2.17,1.11,2.25,1.08.18,2.41-2.58,3-6.16S512.72,416.73,511.64,416.56Z" style="opacity:0.51;mix-blend-mode:overlay;fill:url(#radial-gradient-6)"/><circle cx="472.19" cy="416.94" r="34.77" transform="translate(-143.55 284.03) rotate(-29.26)" style="mix-blend-mode:screen;fill:url(#radial-gradient-7)"/><path d="M354.31,234.46c0-.64-1.69-1.15-3.79-1.15s-3.78.51-3.78,1.15c0,.32.45.62,1.18.83a2.29,2.29,0,0,1,1.69,2.19v4.28h1.83v-4.28a2.29,2.29,0,0,1,1.69-2.19C353.86,235.08,354.31,234.78,354.31,234.46Z" style="fill:#b0a03a"/><path d="M365.7,240c.35-.53-.8-1.89-2.55-3s-3.46-1.63-3.8-1.1c-.18.28,0,.78.54,1.35a2.29,2.29,0,0,1,.22,2.75l-2.33,3.59,1.54,1,2.33-3.59a2.29,2.29,0,0,1,2.6-.92C365,240.26,365.52,240.27,365.7,240Z" style="fill:#b0a03a"/><path d="M372.24,250.83c.58-.25.36-2-.5-3.92s-2-3.26-2.58-3c-.3.13-.39.67-.28,1.42a2.29,2.29,0,0,1-1.32,2.43l-3.91,1.74.75,1.68,3.91-1.74a2.27,2.27,0,0,1,2.68.65C371.48,250.67,371.94,251,372.24,250.83Z" style="fill:#b0a03a"/><path d="M371.81,263.49c.63.1,1.4-1.5,1.73-3.57s.09-3.82-.54-3.92c-.32-.05-.69.36-1,1.05a2.28,2.28,0,0,1-2.42,1.32l-4.23-.67-.29,1.81,4.23.67a2.29,2.29,0,0,1,1.9,2C371.27,262.94,371.49,263.44,371.81,263.49Z" style="fill:#b0a03a"/><path d="M364.57,273.87c.47.42,2-.49,3.39-2.05s2.15-3.16,1.68-3.58c-.25-.22-.77-.08-1.42.32a2.27,2.27,0,0,1-2.75-.21l-3.18-2.86-1.23,1.36,3.18,2.86a2.29,2.29,0,0,1,.5,2.72C364.41,273.11,364.32,273.65,364.57,273.87Z" style="fill:#b0a03a"/><path d="M352.84,278.63c.16.61,1.93.67,4,.13s3.53-1.48,3.37-2.09c-.09-.32-.61-.49-1.37-.5a2.28,2.28,0,0,1-2.19-1.68l-1.11-4.13-1.77.47,1.11,4.14a2.3,2.3,0,0,1-1.06,2.55C353.11,277.91,352.75,278.31,352.84,278.63Z" style="fill:#b0a03a"/><path d="M340.4,276.23c-.19.6,1.26,1.62,3.25,2.26s3.76.68,4,.08c.1-.31-.24-.73-.87-1.16a2.3,2.3,0,0,1-.93-2.6l1.33-4.07-1.75-.57-1.32,4.07a2.3,2.3,0,0,1-2.28,1.57C341,275.78,340.5,275.92,340.4,276.23Z" style="fill:#b0a03a"/><path d="M331.28,267.45c-.49.4.18,2,1.5,3.67s2.78,2.62,3.27,2.22c.26-.21.2-.75-.1-1.45a2.31,2.31,0,0,1,.64-2.69l3.33-2.69-1.15-1.42-3.33,2.69a2.28,2.28,0,0,1-2.76.07C332.06,267.41,331.54,267.24,331.28,267.45Z" style="fill:#b0a03a"/><path d="M328.42,255.12c-.63.06-1,1.8-.75,3.88s.91,3.72,1.54,3.65c.33,0,.57-.52.7-1.27a2.29,2.29,0,0,1,2-1.9l4.26-.45-.19-1.82-4.26.45a2.3,2.3,0,0,1-2.35-1.45C329.09,255.51,328.74,255.08,328.42,255.12Z" style="fill:#b0a03a"/><path d="M332.73,243.21c-.56-.28-1.79,1-2.74,2.86s-1.26,3.61-.7,3.89c.29.15.76-.12,1.28-.68a2.29,2.29,0,0,1,2.72-.5l3.81,1.94.83-1.63-3.81-2a2.28,2.28,0,0,1-1.19-2.49C333.08,243.9,333,243.36,332.73,243.21Z" style="fill:#b0a03a"/><path d="M342.83,235.58c-.32-.55-2-.15-3.85.9s-3,2.34-2.71,2.89c.16.28.71.31,1.44.13a2.3,2.3,0,0,1,2.56,1.05l2.14,3.71,1.58-.92-2.14-3.71a2.29,2.29,0,0,1,.37-2.74C342.75,236.35,343,235.86,342.83,235.58Z" style="fill:#b0a03a"/><circle cx="350.52" cy="256.58" r="15.64" style="fill:#696022"/><path d="M349.57,248.44a3.93,3.93,0,1,1-3.93-3.93A3.93,3.93,0,0,1,349.57,248.44Z" style="fill:#b0a03a"/><path d="M354.18,250.9a2,2,0,1,1-2-2A2,2,0,0,1,354.18,250.9Z" style="fill:#b0a03a"/><circle cx="349.46" cy="254.65" r="1.26" style="fill:#b0a03a"/><circle cx="356.04" cy="262.98" r="3.86" style="fill:#b0a03a"/><circle cx="361.84" cy="257.08" r="1.59" style="fill:#b0a03a"/><path d="M343.82,263.65a1.59,1.59,0,1,1-1.59-1.59A1.59,1.59,0,0,1,343.82,263.65Z" style="fill:#b0a03a"/><path d="M373,256c-.32-.05-.69.36-1,1.05a2.28,2.28,0,0,1-2.42,1.32l-3.46-.55c0-.41.06-.82.06-1.24a15.67,15.67,0,0,0-1.08-5.71l3.22-1.43a2.27,2.27,0,0,1,2.68.65c.49.58.95.88,1.25.74.58-.25.36-2-.5-3.92s-2-3.26-2.58-3c-.3.13-.39.67-.28,1.42a2.29,2.29,0,0,1-1.32,2.43l-3.24,1.45a15.7,15.7,0,0,0-4.6-5.28l1.93-3a2.29,2.29,0,0,1,2.6-.92c.73.22,1.27.23,1.45,0,.35-.53-.8-1.89-2.55-3s-3.46-1.63-3.8-1.1c-.18.28,0,.78.54,1.35a2.29,2.29,0,0,1,.22,2.75l-1.93,3a15.59,15.59,0,0,0-6.74-2v-3.49a2.29,2.29,0,0,1,1.69-2.19c.73-.21,1.18-.51,1.18-.83,0-.64-1.69-1.15-3.79-1.15s-3.78.51-3.78,1.15c0,.32.45.62,1.18.83a2.29,2.29,0,0,1,1.69,2.19V241a15.48,15.48,0,0,0-6.06,1.61l-1.7-3a2.29,2.29,0,0,1,.37-2.74c.53-.54.78-1,.61-1.31-.32-.55-2-.15-3.85.9s-3,2.34-2.71,2.89c.16.28.71.31,1.44.13a2.3,2.3,0,0,1,2.56,1.05l1.69,2.94a15.7,15.7,0,0,0-4.91,5.15l-2.93-1.5a2.28,2.28,0,0,1-1.19-2.49c.15-.75.09-1.29-.2-1.44-.56-.28-1.79,1-2.74,2.86s-1.26,3.61-.7,3.89c.29.15.76-.12,1.28-.68a2.29,2.29,0,0,1,2.72-.5l2.92,1.49a15.61,15.61,0,0,0-1.33,6.31c0,.25,0,.5,0,.74l-3.18.34a2.3,2.3,0,0,1-2.35-1.45c-.28-.7-.63-1.13-.95-1.09-.63.06-1,1.8-.75,3.88s.91,3.72,1.54,3.65c.33,0,.57-.52.7-1.27a2.29,2.29,0,0,1,2-1.9l3.19-.33a15.52,15.52,0,0,0,2.79,6.65l-2.45,2a2.3,2.3,0,0,1-2.76.07c-.62-.44-1.14-.61-1.4-.4-.49.4.18,2,1.5,3.67s2.78,2.62,3.27,2.22c.26-.21.2-.75-.1-1.45a2.31,2.31,0,0,1,.64-2.69l2.47-2a15.58,15.58,0,0,0,6,4l-1,3a2.3,2.3,0,0,1-2.28,1.57c-.76,0-1.29.11-1.39.42-.19.6,1.26,1.62,3.25,2.26s3.76.68,4,.08c.1-.31-.24-.73-.87-1.16a2.3,2.3,0,0,1-.93-2.6l1-3a15.62,15.62,0,0,0,7.19.06l.84,3.14a2.3,2.3,0,0,1-1.06,2.55c-.66.39-1,.79-.93,1.11.16.61,1.93.67,4,.13s3.53-1.48,3.37-2.09c-.09-.32-.61-.49-1.37-.5a2.28,2.28,0,0,1-2.19-1.68l-.85-3.17a15.64,15.64,0,0,0,6-3.85l2.49,2.24a2.29,2.29,0,0,1,.5,2.72c-.33.68-.42,1.22-.17,1.44.47.42,2-.49,3.39-2.05s2.15-3.16,1.68-3.58c-.25-.22-.77-.08-1.42.32a2.27,2.27,0,0,1-2.75-.21L363,266.08a15.58,15.58,0,0,0,2.92-6.44l3.41.54a2.29,2.29,0,0,1,1.9,2c.09.76.31,1.26.63,1.31.63.1,1.4-1.5,1.73-3.57S373.63,256.1,373,256Z" style="opacity:0.51;mix-blend-mode:overlay;fill:url(#radial-gradient-8)"/><circle cx="350.18" cy="256.22" r="20.11" style="mix-blend-mode:screen;fill:url(#radial-gradient-9)"/><ellipse cx="460.22" cy="1037.43" rx="390" ry="16.45" style="fill:#231f20;opacity:0.2"/><path d="M314.63,657.79h0a16.87,16.87,0,0,0,7-22.69L273.1,540.76a16.84,16.84,0,0,0-22.78-7.31h0a16.87,16.87,0,0,0-7,22.69l48.55,94.33A16.83,16.83,0,0,0,314.63,657.79Z" style="fill:#fff"/><path d="M298.19,654.19h0c-7.59-5.22-10.64-14-6.85-19.61l43.28-64.3c3.84-5.7,13.23-6,20.9-.78h0c7.59,5.21,10.65,14,6.85,19.6L319.1,653.4C315.26,659.11,305.87,659.46,298.19,654.19Z" style="fill:#fff"/><rect x="262.76" y="140.18" width="202.49" height="191.64" style="fill:#fff"/><rect x="359.19" y="331.81" width="9.63" height="277.72" style="fill:#9e8d8d"/><path d="M415.77,246.28c1.47,0,2.66-3.94,2.66-8.79s-1.19-8.78-2.66-8.78c-.76,0-1.45,1.06-1.93,2.75a5.32,5.32,0,0,1-5.08,3.91h-9.92v4.25h9.92a5.31,5.31,0,0,1,5.08,3.9C414.32,245.22,415,246.28,415.77,246.28Z" style="fill:#c3d446"/><path d="M402.94,272.68c1.23.8,4.37-1.85,7-5.92s3.79-8,2.56-8.82c-.64-.41-1.79.1-3.12,1.26a5.29,5.29,0,0,1-6.38.51l-8.33-5.4-2.31,3.56,8.32,5.41a5.28,5.28,0,0,1,2.13,6C402.3,271,402.3,272.26,402.94,272.68Z" style="fill:#c3d446"/><path d="M377.8,287.83c.6,1.34,4.68.83,9.11-1.14s7.54-4.66,6.94-6c-.31-.7-1.56-.9-3.3-.65a5.29,5.29,0,0,1-5.63-3.05l-4-9.06L377,269.66l4,9.06a5.3,5.3,0,0,1-1.5,6.23C378.18,286.08,377.49,287.14,377.8,287.83Z" style="fill:#c3d446"/><path d="M348.46,286.85c-.23,1.45,3.47,3.24,8.26,4s8.87.2,9.1-1.25c.12-.75-.82-1.6-2.42-2.34a5.28,5.28,0,0,1-3.06-5.62l1.55-9.8-4.2-.67-1.55,9.8a5.31,5.31,0,0,1-4.65,4.4C349.74,285.59,348.58,286.1,348.46,286.85Z" style="fill:#c3d446"/><path d="M324.39,270.05c-1,1.09,1.15,4.61,4.75,7.85s7.33,5,8.31,3.9c.51-.56.18-1.78-.75-3.28a5.29,5.29,0,0,1,.49-6.38l6.64-7.37-3.16-2.85L334,269.3a5.31,5.31,0,0,1-6.3,1.16C326.15,269.68,324.9,269.48,324.39,270.05Z" style="fill:#c3d446"/><path d="M313.36,242.85c-1.42.38-1.55,4.48-.3,9.17s3.43,8.18,4.85,7.8c.73-.2,1.12-1.4,1.15-3.16a5.31,5.31,0,0,1,3.89-5.09l9.58-2.56-1.1-4.11-9.58,2.57a5.31,5.31,0,0,1-5.91-2.46C315,243.5,314.1,242.65,313.36,242.85Z" style="fill:#c3d446"/><path d="M318.92,214c-1.4-.46-3.75,2.91-5.25,7.53s-1.58,8.72-.18,9.17c.72.24,1.7-.56,2.69-2a5.3,5.3,0,0,1,6-2.14l9.44,3.06,1.31-4-9.44-3.07a5.31,5.31,0,0,1-3.62-5.28C320,215.48,319.64,214.26,318.92,214Z" style="fill:#c3d446"/><path d="M339.28,192.88c-.93-1.14-4.73.41-8.5,3.46s-6.08,6.46-5.16,7.6c.48.59,1.74.46,3.36-.23a5.29,5.29,0,0,1,6.23,1.48l6.24,7.71,3.31-2.67-6.25-7.71a5.33,5.33,0,0,1-.16-6.4C339.37,194.67,339.76,193.47,339.28,192.88Z" style="fill:#c3d446"/><path d="M367.87,186.24c-.15-1.46-4.19-2.24-9-1.73s-8.62,2.1-8.46,3.56c.08.76,1.2,1.33,2.94,1.64a5.3,5.3,0,0,1,4.41,4.63l1,9.87,4.23-.44-1-9.87a5.28,5.28,0,0,1,3.35-5.45C367,187.79,368,187,367.87,186.24Z" style="fill:#c3d446"/><path d="M395.47,196.24c.66-1.31-2.3-4.16-6.62-6.36s-8.37-2.93-9-1.62c-.34.68.29,1.77,1.58,3a5.32,5.32,0,0,1,1.18,6.3l-4.51,8.84,3.79,1.93,4.5-8.84a5.3,5.3,0,0,1,5.79-2.75C393.87,197.05,395.12,196.92,395.47,196.24Z" style="fill:#c3d446"/><path d="M413.17,219.65c1.27-.73.33-4.73-2.09-8.93s-5.43-7-6.7-6.28c-.66.38-.72,1.64-.29,3.35a5.3,5.3,0,0,1-2.45,5.92l-8.59,5,2.13,3.68,8.59-5a5.32,5.32,0,0,1,6.35.84C411.38,219.46,412.51,220,413.17,219.65Z" style="fill:#c3d446"/><circle cx="364.48" cy="237.49" r="36.27" style="fill:#818d2e"/><circle cx="383.36" cy="226.16" r="9.1" transform="translate(98.55 568.22) rotate(-80.76)" style="fill:#c3d446"/><path d="M377.65,246a4.63,4.63,0,1,1,4.63-4.63A4.63,4.63,0,0,1,377.65,246Z" style="fill:#c3d446"/><circle cx="368.96" cy="235.01" r="2.91" transform="translate(10.64 485.95) rotate(-67.5)" style="fill:#c3d446"/><circle cx="349.64" cy="250.28" r="8.95" transform="translate(-68.89 151.7) rotate(-22.34)" style="fill:#c3d446"/><path d="M363.32,267.41a3.69,3.69,0,1,1,3.69-3.69A3.69,3.69,0,0,1,363.32,267.41Z" style="fill:#c3d446"/><path d="M348.09,222a3.69,3.69,0,1,1,3.69-3.69A3.69,3.69,0,0,1,348.09,222Z" style="fill:#c3d446"/><path d="M365.82,289.6c.12-.75-.82-1.6-2.42-2.34a5.28,5.28,0,0,1-3.06-5.62l1.26-8c.95.08,1.91.13,2.88.13a36.32,36.32,0,0,0,13.23-2.5l3.32,7.46a5.3,5.3,0,0,1-1.5,6.23c-1.35,1.13-2,2.19-1.73,2.88.6,1.34,4.68.83,9.11-1.14s7.54-4.66,6.94-6c-.31-.7-1.56-.9-3.3-.65a5.29,5.29,0,0,1-5.63-3.05l-3.35-7.51a36.34,36.34,0,0,0,12.24-10.67l6.88,4.47a5.28,5.28,0,0,1,2.13,6c-.52,1.69-.52,2.95.12,3.37,1.23.8,4.37-1.85,7-5.92s3.79-8,2.56-8.82c-.64-.41-1.79.1-3.12,1.26a5.29,5.29,0,0,1-6.38.51l-6.9-4.48a36.07,36.07,0,0,0,4.57-15.61h8.08a5.31,5.31,0,0,1,5.08,3.9c.48,1.7,1.17,2.76,1.93,2.76,1.47,0,2.66-3.94,2.66-8.79s-1.19-8.78-2.66-8.78c-.76,0-1.45,1.06-1.93,2.75a5.32,5.32,0,0,1-5.08,3.91h-8.08a36,36,0,0,0-3.74-14l6.83-3.94a5.32,5.32,0,0,1,6.35.84c1.26,1.23,2.39,1.8,3.05,1.42,1.27-.73.33-4.73-2.09-8.93s-5.43-7-6.7-6.28c-.66.38-.72,1.64-.29,3.35a5.3,5.3,0,0,1-2.45,5.92l-6.81,3.93a36.52,36.52,0,0,0-11.94-11.39l3.46-6.79a5.3,5.3,0,0,1,5.79-2.75c1.73.34,3,.21,3.33-.47.66-1.31-2.3-4.16-6.62-6.36s-8.37-2.93-9-1.62c-.34.68.29,1.77,1.58,3a5.32,5.32,0,0,1,1.18,6.3l-3.46,6.78a36.07,36.07,0,0,0-14.63-3.08c-.58,0-1.15,0-1.72,0L362,193.9a5.28,5.28,0,0,1,3.35-5.45c1.64-.66,2.62-1.46,2.54-2.21-.15-1.46-4.19-2.24-9-1.73s-8.62,2.1-8.46,3.56c.08.76,1.2,1.33,2.94,1.64a5.3,5.3,0,0,1,4.41,4.63l.78,7.38a36,36,0,0,0-15.42,6.48l-4.6-5.68a5.33,5.33,0,0,1-.16-6.4c1-1.45,1.41-2.65.93-3.24-.93-1.14-4.73.41-8.5,3.46s-6.08,6.46-5.16,7.6c.48.59,1.74.46,3.36-.23a5.29,5.29,0,0,1,6.23,1.48l4.62,5.71a36.3,36.3,0,0,0-9.32,13.89l-7-2.27a5.31,5.31,0,0,1-3.62-5.28c.07-1.76-.26-3-1-3.21-1.4-.46-3.75,2.91-5.25,7.53s-1.58,8.72-.18,9.17c.72.24,1.7-.56,2.69-2a5.3,5.3,0,0,1,6-2.14l7.05,2.29a35.94,35.94,0,0,0-.14,16.66l-7.27,1.95a5.31,5.31,0,0,1-5.91-2.46c-.91-1.51-1.84-2.36-2.58-2.16-1.42.38-1.55,4.48-.3,9.17s3.43,8.18,4.85,7.8c.73-.2,1.12-1.4,1.15-3.16a5.31,5.31,0,0,1,3.89-5.09l7.34-2a36.39,36.39,0,0,0,8.95,13.91L334,269.3a5.31,5.31,0,0,1-6.3,1.16c-1.58-.78-2.83-1-3.34-.41-1,1.09,1.15,4.61,4.75,7.85s7.33,5,8.31,3.9c.51-.56.18-1.78-.75-3.28a5.29,5.29,0,0,1,.49-6.38l5.26-5.84a36.22,36.22,0,0,0,14.94,6.76L356.14,281a5.31,5.31,0,0,1-4.65,4.4c-1.75.22-2.91.73-3,1.48-.23,1.45,3.47,3.24,8.26,4S365.59,291.05,365.82,289.6Z" style="opacity:0.51;mix-blend-mode:overlay;fill:url(#radial-gradient-10)"/><path d="M364,317.66a82,82,0,1,1,82-82A82.06,82.06,0,0,1,364,317.66Zm0-150.48a68.52,68.52,0,1,0,68.51,68.51A68.59,68.59,0,0,0,364,167.18Z" style="fill:#dd2b36"/><rect x="287.01" y="230.58" width="153.24" height="13.45" transform="translate(-61.29 326.65) rotate(-45)" style="fill:#dd2b36"/><path d="M384.49,557.67l-.15,2.39-.33,5.48-.7,11.54A11.19,11.19,0,0,1,372,587.53l-16.1-.09a12.61,12.61,0,0,1-12.59-13.33l.38-6.16a10.61,10.61,0,0,1,.26-1.78,11,11,0,0,1,3.14-5.52A11.18,11.18,0,0,1,355,557.5Z" style="fill:#4285c7"/><path d="M299.25,823.6c-9.25,80.78-8.5,143.5-12.87,170.18-2.41,14.69-19.88,18-20,18.37v0H241.89l-.5-314.38,46.3,10c.57,1.23,1.11,2.46,1.65,3.68a172,172,0,0,1,6.57,17.71C306.85,764.68,302.58,794.5,299.25,823.6Z" style="fill:#fff"/><path d="M293.11,1038.85H240.46l1.43-26.68,28.79,0c10.52,0,19.34,8.79,21.76,20.63A31.87,31.87,0,0,1,293.11,1038.85Z" style="fill:#382d3d"/><path d="M287.69,577.38V707.77l-94.77,7.63s9.58-72.93-4.18-103.68a108.68,108.68,0,0,1-9.69-42.4l.07-39.13,18.5-12,11.55-6.09h37.18a188.56,188.56,0,0,1,18.88,18.15C275.71,542.23,287.69,557.09,287.69,577.38Z" style="fill:#fff"/><rect x="201.72" y="547.17" width="95.86" height="53.52" rx="24.9" style="fill:#fff"/><path d="M281.3,894.07l-66.43,106.15-22-17.7c-16.88-33.77,8.68-50.64,27.14-101.07,7.17-19.59,45.34-40.31,58.72-25.23h0C287.86,866.46,288.93,882.47,281.3,894.07Z" style="fill:#fff"/><path d="M251.92,707.77,284,864.58l-45.11,12.28c-14.83-34-82.25-88.4-42.46-169.09Z" style="fill:#fff"/><path d="M178.76,669.49h0a16.87,16.87,0,0,1-15.91-17.64l4.4-106a16.84,16.84,0,0,1,17.59-16.21h0a16.87,16.87,0,0,1,15.91,17.63l-4.4,106A16.84,16.84,0,0,1,178.76,669.49Z" style="fill:#fff"/><path d="M146.13,746.11h0c-8.68-3.06-13.9-10.72-11.7-17.15l25.12-73.33c2.23-6.5,11.2-9.28,20-6.17h0c8.68,3.07,13.9,10.72,11.7,17.15l-25.12,73.33C163.89,746.44,154.91,749.22,146.13,746.11Z" style="fill:#fff"/><path d="M248.66,516.08l-.21-.08Z" style="fill:#fff"/><polygon points="247.92 749.87 282.03 749.87 264.37 767.27 247.92 749.87" style="fill:#ebd6e3"/><path d="M223.05,1038.86l-38.73-31.21,2-5.89,6.59-19.24,24.63,19.84c9,7.25,12.06,20.16,8.12,31.09A26.71,26.71,0,0,1,223.05,1038.86Z" style="fill:#382d3d"/><rect x="93.77" y="733.85" width="86.23" height="121.86" transform="translate(931.66 657.9) rotate(90)" style="fill:#382d3d"/><path d="M130.68,737l-4.14,15.57a11.19,11.19,0,0,0,7.29,13.53l18.49,6,7.58-28.51a11.19,11.19,0,0,0-7.28-13.54l-5.87-1.91A12.61,12.61,0,0,0,130.68,737Z" style="fill:#4285c7"/><path d="M246.35,516.79s2,7.6-18.2,7.6c-18.52,0-23.34-7.6-23.34-7.6V469.17h41.54Z" style="fill:#ff8f6e"/><path d="M216.62,478.14h29.73a0,0,0,0,1,0,0v25.25a0,0,0,0,1,0,0h-5.74a24,24,0,0,1-24-24v-1.25A0,0,0,0,1,216.62,478.14Z" style="fill:#382d3d"/><path d="M203.09,445.76h.47a4.86,4.86,0,0,1,4.86,4.86V469a0,0,0,0,1,0,0h-4a6.17,6.17,0,0,1-6.17-6.17V450.62A4.86,4.86,0,0,1,203.09,445.76Z" style="fill:#ff8f6e"/><rect x="208.43" y="409.2" width="58.09" height="90.59" rx="28.96" style="fill:#ff8f6e"/><path d="M222.05,440.48l3,.62c1.79.42,4.18.92,6.37,1.66a10.84,10.84,0,0,1,1.56.64,12.57,12.57,0,0,1,1.43.86,6.29,6.29,0,0,0,2.77.84,12.51,12.51,0,0,0,3.42-.13h0a.32.32,0,0,0,.25-.39h0a6.66,6.66,0,0,0-1.87-3.16,5.58,5.58,0,0,0-3-1.61c-.59-.1-1.36-.18-1.93-.23l-2-.21a39.3,39.3,0,0,0-10.06.64.24.24,0,0,0-.19.29A.25.25,0,0,0,222.05,440.48Z" style="fill:#382d3d"/><path d="M255.36,444.36a8.38,8.38,0,0,0,2.22.17,7.41,7.41,0,0,0,1.78-.32,4.31,4.31,0,0,0,1.49-.95c.23-.15.4-.27.61-.38.4-.14.49-.21.83-.3a16.79,16.79,0,0,1,1.71-.31c1.07-.14,1.84-.16,1.84-.16a.23.23,0,0,0,.15-.41,8.57,8.57,0,0,0-1.62-1.14,7.68,7.68,0,0,0-1.95-.8,9.87,9.87,0,0,0-1.25-.25,6.68,6.68,0,0,0-1.49.05,4.63,4.63,0,0,0-2.39.73,5.5,5.5,0,0,0-2.18,3.73A.32.32,0,0,0,255.36,444.36Z" style="fill:#382d3d"/><path d="M233.13,459a6.33,6.33,0,0,0,6.73-3.08l-11.49-2.59A6.33,6.33,0,0,0,233.13,459Z" style="fill:#382d3d"/><path d="M260.43,458.87c1.48-.54,2.09-2.76,1.68-5.39l-6.44,2.35C257.05,458.11,258.94,459.41,260.43,458.87Z" style="fill:#382d3d"/><path d="M252.61,483.31c-3.09,1.4-7.61,1.83-10.19-.06C242.42,483.25,246.72,493.23,252.61,483.31Z" style="fill:#cf5e4e"/><path d="M257,477.23c.06-4.93-5.19-5.33-9.74-4.77-5.3.65-10.47,5.19-10.47,5.19l14.79,1.25Z" style="fill:#cf5e4e"/><path d="M238.06,480.22a2.84,2.84,0,0,1,.07-5.6Z" style="fill:#cf5e4e"/><rect x="203.33" y="593.02" width="38.89" height="22.23" style="fill:#ebd6e3"/><rect x="222.25" y="586.12" width="4.8" height="8.67" style="fill:#382d3d"/><path d="M236.1,393.94a44.79,44.79,0,0,0-5.73-1c-1.3-.14-2.62-.22-4-.24-25.52-.5-46.4,20.87-46.4,46.39v57.65a45.51,45.51,0,1,0,91,0V438.2A45.52,45.52,0,0,0,236.1,393.94Zm6.64,103.6c-15.08,0-32.48-17.1-32.48-38.21s17.4-38.23,32.48-38.23a16.94,16.94,0,0,1,8.65,2.25,16.22,16.22,0,0,1,2.65,1.92c7.35,6.3,10.84,19.19,10.84,34.06C264.88,480.44,257.84,497.54,242.74,497.54Z" style="fill:#fff"/><path d="M254,425.27a16.22,16.22,0,0,0-2.65-1.92c0-6.82-3.68-17.73-21-30.39a44.79,44.79,0,0,1,5.73,1C252.17,407.05,254.61,418.38,254,425.27Z" style="fill:#ebd6e3"/><path d="M214.37,476.77s27-15.21,39.43-15.21,12.32,17.4,12.26,18.61-3,22.14-20.47,22.14S214.37,489.12,214.37,476.77Z" style="fill:#4285c7"/><rect x="218.59" y="524" width="2.94" height="20.48" transform="translate(-354.18 470.32) rotate(-61.26)" style="fill:#ebd6e3"/><rect x="208.38" y="529.09" width="2.94" height="17.02" transform="translate(-359.06 440.66) rotate(-59.01)" style="fill:#ebd6e3"/><rect x="235.41" y="484.78" width="2.86" height="8.06" transform="translate(-301.86 419.36) rotate(-56.8)" style="fill:#2c629e"/><rect x="235.13" y="491.14" width="2.86" height="7.22" transform="translate(-309.22 441.25) rotate(-58.85)" style="fill:#2c629e"/><rect x="286.22" y="600.21" width="2.94" height="39.15" style="fill:#ebd6e3"/><rect x="182.65" y="639.27" width="30.32" height="2.94" transform="translate(-461.44 763.48) rotate(-83.39)" style="fill:#ebd6e3"/><rect x="166.78" y="654.64" width="13.49" height="2.94" transform="translate(-169.79 70.68) rotate(-15.58)" style="fill:#ebd6e3"/><rect x="162.58" y="662.76" width="13.49" height="2.94" transform="translate(-172.15 69.87) rotate(-15.58)" style="fill:#ebd6e3"/><rect x="223.79" y="673.32" width="28.13" height="2.94" transform="translate(-376.87 308.68) rotate(-39.81)" style="fill:#ebd6e3"/><rect x="217.42" y="691.34" width="28.13" height="2.94" transform="translate(-390.02 309.03) rotate(-39.83)" style="fill:#ebd6e3"/><path d="M243.58,954.2,241,952.79l41.81-76.41a18.16,18.16,0,0,0,1.79-12.78L260.87,758.9l2.86-.65L287.48,863a21.16,21.16,0,0,1-2.08,14.84Z" style="fill:#ebd6e3"/><rect x="234.75" y="865.35" width="16.25" height="2.94" transform="translate(-349.97 189.4) rotate(-25.54)" style="fill:#ebd6e3"/><rect x="234.1" y="853.51" width="16.25" height="2.94" transform="translate(-344.96 187.98) rotate(-25.54)" style="fill:#ebd6e3"/><path d="M706.36,1007a117,117,0,0,1-23.46-2.25l1.46-6.56c.44.1,43.92,9.39,71.82-13C772,972.46,780,951.92,780,924.09c0-42.29-36.8-66.43-83.38-97-25.17-16.51-53.69-35.23-78.7-59.21-28.78-27.6-48.64-58.07-60.7-93.13-6.25-18.19-15.55-29.59-27.64-33.89-17.75-6.3-36,4.89-36.21,5l-3.57-5.7c.85-.53,21.13-13,42-5.65,14.15,5,24.85,17.8,31.81,38,26.29,76.44,85,114.94,136.73,148.9,46.37,30.43,86.41,56.71,86.41,102.63,0,30-8.86,52.3-26.35,66.33C743.58,1003.86,722.36,1007,706.36,1007Z" style="fill:#382d3d"/><path d="M595.54,853s3.71-3.53,28.28,14S652,984.85,652,984.85l-14.84,14L628,997.1a21.78,21.78,0,0,1-16.15-13.26l-38.12-94.41C566.18,872.64,577.73,853.37,595.54,853Z" style="fill:#fff"/><path d="M650.87,982.57l18.52,16.62-32.94,39.66a70.33,70.33,0,0,1-9.3-9.35c-6.11-7.94,2.61-21.5,5.09-24.48Z" style="fill:#382d3d"/><path d="M587.31,725.21l62.6,0-2.48,55.41s-13.17,88-24.48,96.59H571.18l16.13-151.92Z" style="fill:#fff"/><polygon points="587.31 725.26 587.3 725.21 587.31 725.21 587.31 725.26" style="fill:#57515a"/><path d="M714.22,872.52c-6.87,42.51-13.39,91.41-21.12,119.93-3.62,13.34-12.74,24.26-12.74,24.26l-24.81-.45-5.92-174.57-4-116.49,81.45.24S724.3,810.11,714.22,872.52Z" style="fill:#fff"/><path d="M657.45,770.64h-5.71a13.76,13.76,0,0,1-13.49-14V725.18h19.2Z" style="fill:#fff"/><rect x="655.55" y="1016.26" width="9.46" height="22.6" style="fill:#382d3d"/><path d="M672.44,1013.43a12.23,12.23,0,0,1,12,12.46v13h-24v-13A12.22,12.22,0,0,1,672.44,1013.43Z" style="fill:#382d3d"/><polygon points="647.43 780.59 630.03 763.65 663.63 763.65 647.43 780.59" style="fill:#ebd6e3"/><polygon points="587.3 725.32 587.3 725.26 587.3 725.26 587.3 725.32" style="fill:#57515a"/><path d="M567.77,561l5.33-55.58c1-10.4,9.91-18,19.9-16.95l1.66.17c10,1,17.3,10.3,16.3,20.7l-5.1,53.12-4.35,45.45c-1,10.4-9.91,18-19.9,16.94L580,624.7c-10-1-17.3-10.3-16.3-20.7Z" style="fill:#fff"/><path d="M591.37,611.44c7,9.09,6.32,22.9-3.34,28.81,0,0-49.63,35.62-76.08,29L501.14,653.6l64.36-45.13A17.94,17.94,0,0,1,591.37,611.44Z" style="fill:#fff"/><polygon points="587.31 489.02 587.34 548.22 587.39 725.46 727.12 725.44 724.65 489.13 717.54 486.1 703.82 480.25 681.8 470.85 629.84 470.85 600.16 483.53 587.31 489.02" style="fill:#fff"/><polygon points="700.61 689.46 726.54 681.87 726.54 650.02 700.61 689.46" style="fill:#382d3d"/><rect x="668.6" y="560.45" width="39.39" height="22.51" transform="translate(1376.59 1143.4) rotate(180)" style="fill:#ebd6e3"/><rect x="683.97" y="553.46" width="4.86" height="8.78" transform="translate(1372.79 1115.69) rotate(180)" style="fill:#382d3d"/><path d="M684.26,472.07s-7.34,6.8-27.94,6.8-27.94-6.8-27.94-6.8v-44h55.88Z" style="fill:#ff8f6e"/><path d="M640,466.62H628.38V440H665.6C665.6,454.71,654.14,466.62,640,466.62Z" style="fill:#382d3d"/><polygon points="700.61 642.04 729.09 606.65 727.12 578.84 700.61 642.04" style="fill:#382d3d"/><path d="M720.93,489.58l1.65-.25c10-1.56,19.12,6.29,20.47,17.54L750.26,567l5.58,46.51c1.35,11.26-5.63,21.64-15.59,23.2l-1.65.25c-10,1.57-19.12-6.28-20.47-17.54l-5.89-49.18-6.9-57.47C704,501.53,711,491.14,720.93,489.58Z" style="fill:#fff"/><path d="M624.88,355.09A35.39,35.39,0,0,1,650.47,344h1.66c20-.06,36.3,16.76,36.37,37.57l0,16.25h-1.68l.06,19.8c.06,18.25-12.39,34.08-29.67,37.33a63.07,63.07,0,0,1-18,.78c-14-1.42-24.75-13.75-24.8-28.42l-.14-45.49a38.74,38.74,0,0,1,3.13-15.45A37.51,37.51,0,0,1,624.88,355.09Z" style="fill:#ff8f6e"/><path d="M650.71,398.65a17.19,17.19,0,0,0-6.08,1.14,2.21,2.21,0,0,1-1.76-4.06,21.4,21.4,0,0,1,7.84-1.51,23.7,23.7,0,0,1,8,1.48C659.88,396.16,654.13,398.65,650.71,398.65Z" style="fill:#382d3d"/><path d="M623.22,400.51a2.22,2.22,0,0,1-1.27-.4,5.73,5.73,0,0,0-2.9-.92c-1.54,0-6.44-2-5.45-2.7a9.45,9.45,0,0,1,10.9,0,2.21,2.21,0,0,1,.53,3.08A2.23,2.23,0,0,1,623.22,400.51Z" style="fill:#382d3d"/><path d="M651.49,415.61c-3.2.59-6.13-.16-7.74-3.05l13.9-2.54C657.17,413.3,654.69,415,651.49,415.61Z" style="fill:#382d3d"/><path d="M619.06,415.48c1.84.45,3.7-.39,5.05-3.29l-8-2C616,413.42,617.23,415,619.06,415.48Z" style="fill:#382d3d"/><path d="M689.54,394.07h0a8.09,8.09,0,0,1,8,8.22l.06,17.06a8.12,8.12,0,0,1-7.92,8.28l-8,0-.07-25.21A8.18,8.18,0,0,1,689.54,394.07Z" style="fill:#ff8f6e"/><path d="M644.19,437.28a9.11,9.11,0,0,1-8.9,9.3l-4.59,0a9.1,9.1,0,0,1-9-9.25l0-6.74,22.44-.07Z" style="fill:#ff8f6e"/><path d="M632.36,438.16a3.14,3.14,0,0,1,3.08,3.18l0,5.79a3.07,3.07,0,1,1-6.14,0l0-5.79A3.12,3.12,0,0,1,632.36,438.16Z" style="fill:#8f5252"/><path d="M633.21,442.56a11.64,11.64,0,0,1-11.44-11.81l22.81-.08A11.64,11.64,0,0,1,633.21,442.56Z" style="fill:#fffcfc"/><path d="M647.35,429.85v.82l-15.59.05,0-7.41,9.26,0A6.47,6.47,0,0,1,647.35,429.85Z" style="fill:#8f5252"/><path d="M623.6,423.37l6.3,0,0,7.4-11.81,0v-1.67A5.62,5.62,0,0,1,623.6,423.37Z" style="fill:#8f5252"/><path d="M520.42,671.85l-14,8.44A11.34,11.34,0,0,1,491.23,677l-11.1-16.26,25.58-15.46a11.32,11.32,0,0,1,15.22,3.25l3.53,5.16A12.77,12.77,0,0,1,520.42,671.85Z" style="fill:#4285c7"/><path d="M646.76,342A45.82,45.82,0,0,1,653,341c1.43-.16,2.87-.24,4.32-.27,27.86-.54,50.66,22.79,50.66,50.66V454.3a49.69,49.69,0,0,1-99.37,0V390.36A49.68,49.68,0,0,1,646.76,342Zm-7.25,113.11c16.47,0,35.47-18.67,35.47-41.72s-19-41.74-35.47-41.74a18.45,18.45,0,0,0-9.45,2.46,17.51,17.51,0,0,0-2.89,2.09c-8,6.89-11.84,21-11.84,37.19C615.33,436.47,623,455.14,639.51,455.14Z" style="fill:#fff"/><path d="M627.17,376.23a17.51,17.51,0,0,1,2.89-2.09c.06-7.45,4-19.37,23-33.18a45.82,45.82,0,0,0-6.25,1.07C629.22,356.34,626.55,368.71,627.17,376.23Z" style="fill:#ebd6e3"/><path d="M670.49,432.47S641,415.86,627.43,415.86s-13.45,19-13.38,20.32,3.15,23.06,22.23,23.06S670.49,446,670.49,432.47Z" style="fill:#4285c7"/><rect x="661.31" y="494.45" width="21.28" height="2.97" transform="translate(-155.63 383.79) rotate(-28.71)" style="fill:#ebd6e3"/><rect x="672.44" y="497.94" width="17.68" height="2.97" transform="matrix(0.86, -0.51, 0.51, 0.86, -159.9, 422.05)" style="fill:#ebd6e3"/><rect x="643.07" y="438.39" width="8.76" height="2.97" transform="translate(-124.71 311.65) rotate(-24.76)" style="fill:#2c629e"/><rect x="639.34" y="448.1" width="12.81" height="2.98" transform="translate(-134.35 346.75) rotate(-27.34)" style="fill:#2c629e"/><rect x="585.87" y="534.95" width="2.98" height="83.03" style="fill:#ebd6e3"/><rect x="657.15" y="637.59" width="2.97" height="46.71" transform="translate(-260.94 819.13) rotate(-54.86)" style="fill:#ebd6e3"/><path d="M677.35,700.46c-2.51-.67-17.44-12.63-22-16.28l1.87-2.31c9.06,7.32,19.35,15.2,20.88,15.72Z" style="fill:#ebd6e3"/><rect x="686.81" y="870.98" width="2.97" height="24.18" transform="translate(-418.19 1054.06) rotate(-60.85)" style="fill:#ebd6e3"/><rect x="690.15" y="894.1" width="2.98" height="17.07" transform="translate(-440.89 1005.05) rotate(-57.71)" style="fill:#ebd6e3"/><rect x="621.92" y="918.4" width="2.97" height="15.23" transform="translate(-489.46 1013.67) rotate(-60.55)" style="fill:#ebd6e3"/><rect x="614.61" y="924.79" width="2.97" height="20.99" transform="translate(-503.41 967.24) rotate(-58.26)" style="fill:#ebd6e3"/><path d="M692.36,1031.22h-143a3.82,3.82,0,0,0-3.82,3.82h0a3.81,3.81,0,0,0,3.82,3.81h143a3.81,3.81,0,0,0,3.82-3.81h0A3.82,3.82,0,0,0,692.36,1031.22Z" style="fill:#382d3d"/><path d="M575.71,990.79h-7.47c-9.6,0-17.37,10.76-17.37,24s7.77,24,17.37,24h7.47Z" style="fill:#382d3d"/><ellipse cx="575.71" cy="1014.82" rx="17.37" ry="24.03" style="fill:#382d3d"/><path d="M568.76,1016h71.12V832.22H553.64l10.15,179.1A5,5,0,0,0,568.76,1016Z" style="fill:#a7c1e0"/><rect x="623.36" y="725.59" width="6.21" height="104.6" style="fill:#382d3d"/><rect x="689.97" y="725.59" width="6.21" height="104.6" style="fill:#382d3d"/><path d="M693.69,945l6.39-112.81h-60.2V1016H685a5,5,0,0,0,5-4.64l2.83-49.89Z" style="fill:#cee2fd"/><polygon points="693.68 945.03 692.76 961.43 692.76 961.43 693.68 945.03 693.68 945.03" style="fill:#cee2fd"/><path d="M704.06,821.36H634.35v12.08h69.71a6,6,0,0,0,6.28-5.73v-.62A6,6,0,0,0,704.06,821.36Z" style="fill:#a7c1e0"/><path d="M636.36,821.36H551a6,6,0,0,0-6.28,5.73v.62a6,6,0,0,0,6.28,5.73h85.34a6,6,0,0,0,6.28-5.73v-.62A6,6,0,0,0,636.36,821.36Z" style="fill:#cee2fd"/><path d="M692.24,806.38H595.51v15H700.08v-6.72A8.06,8.06,0,0,0,692.24,806.38Z" style="fill:#4285c7"/><path d="M632.05,806.38H561.48a8.06,8.06,0,0,0-7.84,8.26v6.72h86.24v-6.72A8.06,8.06,0,0,0,632.05,806.38Z" style="fill:#2c629e"/><path d="M676.11,786.6H621.55v19.78h60.09v-8.87C681.64,791.48,679.16,786.6,676.11,786.6Z" style="fill:#4285c7"/><path d="M633.59,786.6H575.74c-3,0-5.53,4.88-5.53,10.91v8.87h68.91v-8.87C639.12,791.48,636.64,786.6,633.59,786.6Z" style="fill:#2c629e"/><path d="M577.93,795.32h3.93a4,4,0,0,1,4,4v7.05a0,0,0,0,1,0,0H573.92a0,0,0,0,1,0,0v-7.05A4,4,0,0,1,577.93,795.32Z" style="fill:#382d3d"/><path d="M651.59,990.79h-7.48c-9.59,0-17.37,10.76-17.37,24s7.78,24,17.37,24h7.48Z" style="fill:#382d3d"/><ellipse cx="651.59" cy="1014.82" rx="17.37" ry="24.03" style="fill:#57465e"/><ellipse cx="652.39" cy="1014.82" rx="10.5" ry="17.5" style="fill:#4285c7"/><path d="M553.85,816.12H700.61a2.71,2.71,0,0,1,2.71,2.71v2.53a0,0,0,0,1,0,0H551.14a0,0,0,0,1,0,0v-2.53A2.71,2.71,0,0,1,553.85,816.12Z" style="fill:#57465e"/><path d="M553.06,816.12h88.19a1.92,1.92,0,0,1,1.92,1.92v3.32a0,0,0,0,1,0,0h-92a0,0,0,0,1,0,0V818A1.92,1.92,0,0,1,553.06,816.12Z" style="fill:#382d3d"/><path d="M588.6,779.84H662a2.28,2.28,0,0,1,2.28,2.28v4.47a0,0,0,0,1,0,0h-78a0,0,0,0,1,0,0v-4.47A2.28,2.28,0,0,1,588.6,779.84Z" style="fill:#382d3d"/><polygon points="680.52 1038.86 673.65 1038.86 673.65 1015.96 683.96 1015.96 680.52 1038.86" style="fill:#382d3d"/><polygon points="649.26 847.29 649.26 833.44 658.3 833.44 649.26 847.29" style="fill:#c2d9f5"/><polygon points="662.89 847.29 662.89 833.44 671.93 833.44 662.89 847.29" style="fill:#c2d9f5"/><polygon points="676.51 847.29 676.51 833.44 685.56 833.44 676.51 847.29" style="fill:#c2d9f5"/><polygon points="690.14 847.29 690.14 833.44 699.19 833.44 690.14 847.29" style="fill:#c2d9f5"/><polygon points="639.88 955.17 560.61 955.17 560.39 951.39 639.88 951.39 639.88 955.17" style="fill:#7e9bbd"/><polygon points="639.88 951.39 639.88 955.17 693.11 955.17 693.33 951.39 639.88 951.39" style="fill:#a7c1e0"/><path d="M701,725.59h-81a6.77,6.77,0,0,1-6.77-6.76h0a6.77,6.77,0,0,1,6.77-6.77h81a6.77,6.77,0,0,1,6.77,6.77h0A6.77,6.77,0,0,1,701,725.59Z" style="fill:#a7c1e0"/><path d="M740.26,604c9.86,5.4,17.66,4.27,11.56,25.42,0,0-49.75,72.82-76.13,77l-16.21-8.89,51-68.8C715.71,619.56,731.33,599.1,740.26,604Z" style="fill:#fff"/><path d="M678.84,714.75l-10.6,12.4a11.35,11.35,0,0,1-15.48,1.72l-15.65-12,19.41-22.72A11.32,11.32,0,0,1,672,692.49l5,3.79A12.76,12.76,0,0,1,678.84,714.75Z" style="fill:#4285c7"/><rect x="331.13" y="708.99" width="111.82" height="6.84" transform="translate(-320.89 317.24) rotate(-32.32)" style="fill:#cee2fd"/><rect x="422.62" y="679.44" width="10.09" height="16.69" transform="translate(-301.44 335.15) rotate(-32.32)" style="fill:#4285c7"/><path d="M425.58,652.61h70.68a13.14,13.14,0,0,1,13.14,13.14v9.12a0,0,0,0,1,0,0H425.58a3.61,3.61,0,0,1-3.61-3.61v-15A3.61,3.61,0,0,1,425.58,652.61Z" transform="translate(-282.69 351.74) rotate(-32.32)" style="fill:#382d3d"/><rect x="336.78" y="736.21" width="14.43" height="6.84" transform="translate(-342.11 298.45) rotate(-32.32)" style="fill:#382d3d"/></g></g></svg>