<svg xmlns="http://www.w3.org/2000/svg" viewBox="0 0 993.73 551.9"><title>Asset 1</title><g style="isolation:isolate"><g id="Layer_2" data-name="Layer 2"><g id="shadow"><g style="opacity:0.6000000000000001"><path d="M460.08,446.12c-27.11.08-54.22.76-81.28,3.89-10.2,1.18-20.19,3.78-30.42,4.82-20.43,2.09-40.49,6-61,7.8-16.5,1.45-33.08,2.3-49.54,4.14A167.83,167.83,0,0,1,190,465.25c-11.34-2.11-22.73-3.3-33.87-6.68-12.47-3.79-26-6.5-39-6.4-18.53.13-36.57.15-54.3,6.84-6.22,2.35-13.84,6.21-18.56,11.14C33.46,481.43,32,509.58,42.8,521.28,61,541,99.82,548.7,125.32,549.07c28,.39,55.1-1.76,83.08-3,26-1.18,52-2.86,78-2.8,53.2.12,106.41,0,159.52-3.69,49.89-3.48,99.91-2.28,149.91-2.28,51.28,0,102.21.41,153.12,7.5,22.18,3.09,44.77,4.17,67.07,6.33,20,1.94,39.15,0,59-1.82a136.7,136.7,0,0,0,48.45-13.51c12-6,33.42-24.5,37.1-38.75,10.32-39.93-145.48-39-169.41-38.88-26.76.1-53.73,1-80.47-.05-11.25-.44-22.34-2.73-33.31-5.24s-22-1.86-33-2.91c-46.24-4.37-92.59-3.73-139-3.73C490.29,446.21,475.18,446.07,460.08,446.12Z" style="fill:#f7f7f7"/></g></g><g id="object"><polygon points="220.82 19.89 222.34 3.63 215.42 2.67 211.91 13.58 208.84 11.61 209.24 25.69 216.3 27.65 220.82 19.89" style="fill:#f4d0c1"/><polygon points="117.96 101.67 190.46 74.38 208.58 23.69 217.71 27.02 216.37 89.92 148.52 139.28 117.96 101.67" style="fill:#bcbec0"/><polygon points="505.39 158.95 504.6 167.08 489.64 170.44 482.21 163.13 483.42 153.71 491.43 154.29 491.95 152.25 494.77 150.91 505.39 158.95" style="fill:#e4d2b8"/><polygon points="856.73 285.45 859.93 359.57 850.56 485.6 836.54 486.59 819.51 372.13 795.95 275.27 856.73 285.45" style="fill:#3b455a"/><polygon points="837.04 492.5 852.74 499 859.78 490.88 851.66 483.84 836.51 484.92 837.04 492.5" style="fill:#2a313f"/><polygon points="757.5 259.22 754.43 315.25 763.56 481.83 777.59 482.53 798.63 373.28 817.18 253.46 757.5 259.22" style="fill:#3b455a"/><polygon points="777.22 488.45 761.66 495.28 754.45 487.31 762.42 480.1 777.59 480.86 777.22 488.45" style="fill:#2a313f"/><path d="M839.11,94.18l-43.8-4.7S771,92.09,754.42,150c-9.2,32.19-12,82.91-12.67,121.58,1,5.52,7,29.68,32.45,25.58,43.64-7,66.86-14.08,85.87-10.56,16.18,3.52,14.82-18.76,13-35.77l-6.45-52.63Z" style="fill:#305399"/><path d="M830.65,39.66c-11-2.44-22.4-4.62-33.45-2.43-2.42.48-5,1.32-6.33,3.41a9.73,9.73,0,0,0-1,2.67c-2.78,10.37-6.32,25.73.5,35.28A17,17,0,0,0,795.27,83a24.29,24.29,0,0,0,8.17,3.21A44.26,44.26,0,0,1,801,93.77c2.53,3.81,14.32,4.26,16.5.61q.18-4.74.37-9.48A24,24,0,0,0,822,82.76a26.68,26.68,0,0,0,10.29-14c2.09-6.14,5-12,7-18.22.7-2.28,1.25-4.88,0-6.94s-4-2.94-6.51-3.49Z" style="fill:#c1755d"/><path d="M793.91,45.58c5.46-3.5,13.64-5,18.77-4.64,15.51,1.12,21.2,12.51,22,26.77C839,62.28,847,55.45,847.48,48.46c.4-5.72-.39-13.52-3.6-18.46-3-4.62-10.66-7.16-15.22-9.84l-12.9-7.57a8.61,8.61,0,0,0-2.83-1.24,8.83,8.83,0,0,0-3.63.4l-30.48,7.88c-2,.51-4.17,1.24-4.89,3.13a6.39,6.39,0,0,0,.08,3.62c1.15,5.27,3.37,10.66,3.91,16,.63,3.1,2.48,19,8,17.17,1.62-2.64,1.86-5.89,3.11-8.71A12.71,12.71,0,0,1,793.91,45.58Z" style="fill:#2e3644"/><path d="M646.33,466.38c1.5-1.64,3.24-2.54,5.21-2.23a5.88,5.88,0,0,1,4.38,3.3,10.85,10.85,0,0,1,.75,3.75c.55,6.61.5,22.31-8.31,24.57-3.7,1-6.76-1.68-7.75-5C639.12,485.76,641.33,471.89,646.33,466.38Z" style="fill:#2a313f"/><path d="M643.2,366.64l.46,40.33c-.54,17.91,2.26,35.92,1.72,53.84-.12,4.12-1.19,8.46-.16,12.54s4.26,4.7,7.6,2.68c4.46-2.71,3.74-9,4.48-13.65,2-12.69,4.44-25.31,6.57-38,1-6.21-1.11-14.92-.64-21.21l6.52-33.79Z" style="fill:#efc4b1"/><polygon points="689.27 301.48 671.72 379.44 667.99 453.07 640.16 452.45 632.6 246.49 686.55 247.47 689.27 301.48" style="fill:#3b455a"/><path d="M606.52,464.92c1.56-1.56,3.34-2.36,5.29-1.93a6,6,0,0,1,4.23,3.56,11.62,11.62,0,0,1,.59,3.8c.26,6.65-.46,22.36-9.34,24.1-3.73.73-6.67-2.08-7.51-5.47C598.51,483.89,601.3,470.13,606.52,464.92Z" style="fill:#2a313f"/><path d="M621.19,372.3l-2.36,40.26c-.19,11.19-1.68,22.29-2.84,33.41-1.08,10.32.6,21.07-4.8,30.46-1.69,2.95-5.11,4.91-7.5,1.33-1.84-2.76-.75-7.35-1.1-10.48-1.44-12.77-3.24-25.49-4.77-38.25-.76-6.25,1.81-14.85,1.64-21.15l-4.92-34.06Z" style="fill:#efc4b1"/><polygon points="585.97 296.71 583.71 372.39 595.58 448.93 623.89 449.78 622.64 366.94 637.63 298.25 642.65 253.29 597.73 247.99 585.97 296.71" style="fill:#3b455a"/><polygon points="621.51 93.1 669.9 91.94 697.96 144.13 687.99 193.01 686.21 251.5 617.18 252.44 594.46 248.75 600.5 186.25 597.04 102.77 621.51 93.1" style="fill:#d7e8f4"/><polygon points="613.88 127.48 596.41 181.05 570.33 190.41 498.98 171.19 508.57 156.35 571.32 158.4 597.13 105.1 613.88 127.48" style="fill:#d7e8f4"/><path d="M624.54,52.55c7.29-21.21,35.3-13.27,41.07,5.62,3.76,12.32-5.75,28.31-18.52,31.85-.05.48-.09.94-.1,1.32a41.88,41.88,0,0,1-.54,5.9c-.11.74-11.28-1.41-12.53-1.65a1.77,1.77,0,0,1-1.16-.57c-.45-.7.29-2.77.37-3.55s.19-1.84.29-2.76c-6.3-3.07-10.27-9.62-11.38-16.28S622.34,58.92,624.54,52.55Z" style="fill:#efc4b1"/><path d="M642.81,33.38a11.08,11.08,0,0,1,2.52,5.69,8.88,8.88,0,0,1,.22,3.69c-1,4.82-5.81,4.56-9.51,6.12a24.6,24.6,0,0,0-11,9.49c-4,6.36-2.2,14.53-.58,21.54.57,2.47,1.72,6.15-.19,8.35s-6.45,1.89-8.78.74c-2.13-1-3.88-3-6.22-3.39s-5.82.67-7-1.6a16.17,16.17,0,0,0-.75-2c-1.37-2-4.77.33-6.7-1-1.19-.84-1.18-2.65-.78-4.08s1.08-2.88.8-4.34c-.24-1.25-1.14-2.24-1.7-3.37a6.65,6.65,0,0,1,.92-7.07c3.05-3.53,9-2.86,12.22-6.18,1.7-1.73,2.36-4.22,3-6.58s1.4-4.85,3.22-6.45c2.24-2,5.49-1.64,7.71-4,1.3-1.37,2.17-3.16,3.63-4.36,1.93-1.58,5.69-2.8,8.09-3.6A10.52,10.52,0,0,1,642.81,33.38Z" style="fill:#2e3644"/><path d="M660.52,67.23c.13,7-3.34,14.53-.12,20.67s11.33,7.32,18.23,7.65c1.13,0,15.69,1.31,15.75,1,1.09-4.86,2.21-9.82,4.76-14.09s6.79-7.81,11.65-8.11c-1.4-.25-2.11-2-1.95-3.41a23.93,23.93,0,0,1,1.35-4.15A9.77,9.77,0,0,0,707.64,57c-5.15-4.8-14.48-2.81-18.9-8.32-2.73-3.42-2.41-8.37-3.84-12.54-2.77-8.07-11.6-9.76-18.21-13.4-7-3.85-13.53-6-21.57-4.61-10,1.66-17.38,11.81-13.53,21.36,4.93,12.25,24.64,11.19,28.34,23.63A15.82,15.82,0,0,1,660.52,67.23Z" style="fill:#2e3644"/><polygon points="655.59 92.82 640.57 114.04 633.51 113.46 621.75 91.94 655.59 92.82" style="fill:#e3e3e4"/><polygon points="267.17 476.63 266.07 485.2 282.1 495.97 291.77 488.51 284.31 478.84 268.27 468.06 267.17 476.63" style="fill:#2a313f"/><polygon points="266.63 473.76 278.99 364.48 264.11 242.14 267.46 216.12 333.92 213.59 336.32 255.95 325.16 364.65 283.19 479.34 266.63 473.76" style="fill:#3b455a"/><polygon points="382.68 225.84 382.86 336.12 360.66 478.08 344.68 477.92 335.9 346.64 315.35 215.24 382.68 225.84" style="fill:#3b455a"/><polygon points="344.71 484.66 361.9 493.47 370.62 484.91 362.07 476.19 344.79 476.02 344.71 484.66" style="fill:#2a313f"/><path d="M257.24,263.34c.15-4.77.41-8.76.45-10.19.34-12.82,1.49-25.61,3.09-38.33,1.44-11.41,3.25-39.73,5.21-51.06,1.61-9.36,7.22-32.72,11.28-41.41,10.09-21.59,7-23.58,51.3-30,19.43-2.81,24,9.3,39.91,23.22,1.56,1.37,1.48,9.55,1.84,11.72.64,3.81,1.33,7.61,2.11,11.4.62,3,1.3,6,2.07,8.9h0s13.34,60.67,22.16,73.56,27,30.91-3.44,41.91a110,110,0,0,1-16.46,4.29s-24.92-2.77-37.73-2.67A216.81,216.81,0,0,0,303.76,268c-7.76,1.3-15.68,3.18-22.62,6.81-6.63,3.46-11.41,8.55-18.13,12.13a3.47,3.47,0,0,1-2.05.59C257.1,287,256.92,273.4,257.24,263.34Z" style="fill:#305399"/><path d="M328.62,98.45c-2.23,1.1-7.51,1.5-13-.66a2.86,2.86,0,0,1-1.84-2.69,74.34,74.34,0,0,1,.8-10c-4.13-1.45-8.9-3.63-9.62-7.95a12.39,12.39,0,0,1,.24-4.11q1.47-8.43,2.92-16.85a15,15,0,0,1,1.75-5.61c1.85-2.92,5.45-4.2,8.86-4.79,8.7-1.51,18.18.38,24.92,6.07a13.47,13.47,0,0,1,4.21,5.55c1.22,3.42.31,7.18-.61,10.68l-2.55,9.71c-1,3.72-2.39,8-6,9.34-1.9.74-4.15.53-5.87,1.62C329.8,90.69,330.21,95.21,328.62,98.45Z" style="fill:#f4d0c1"/><path d="M378.83,42.42a37.54,37.54,0,0,1,2.81-4c2.23-2.75,5-5.11,6.77-8.16s2.43-7.19.27-10c-1.39-1.82-3.64-2.72-5.84-3.37a42.44,42.44,0,0,0-22.31-.41c-6.95,1.77-13.17,4.7-20.17,2.09-6.57-2.46-11.32-1.46-18.19,1-7.44,2.66-17.42,3.28-24.15,7a19.81,19.81,0,0,0-6.8,6.7,29.91,29.91,0,0,0-.08,31.64,42.37,42.37,0,0,0,4.65,5.87c3.51,3.8,7.71,8.5,12.53,9.91.12-4.32-3.82-17.93-.5-21.47C313.08,53.61,325,55.57,331.5,57,338.62,58.46,345,63.5,352,64.58c5.08.77,11.56-1.72,15.88-4.34C373.23,57,375.71,47.55,378.83,42.42Z" style="fill:#2e3644"/><polygon points="291.77 100.66 264.11 124.89 233.26 189.73 272.23 236.1 278.94 210.17 291.77 100.66" style="fill:#305399"/><polygon points="112.08 286.61 49.92 267.69 68.54 373.64 66.51 466.09 66.34 466.71 66.49 466.72 66.49 466.92 78.56 467.38 78.57 467.37 79.02 467.4 101.17 383.88 110.4 295.73 110.4 295.73 112.08 286.61" style="fill:#305399"/><polygon points="78.18 471.61 65.7 472.01 63.12 482.7 63.44 482.78 63.36 482.79 84.65 493.82 94.5 494.35 95.11 483.09 92.36 481.3 78.18 471.61" style="fill:#2a313f"/><polygon points="160.01 285.9 152.13 469.59 140.11 470.82 122.39 372.89 95.81 275.87 160.01 285.9" style="fill:#305399"/><polygon points="152.34 473.83 168.82 481.98 167.75 489.59 138.98 486.92 140.04 475.97 152.34 473.83" style="fill:#2a313f"/><path d="M34.57,319.57c-2.16-31,22.74-130.28,22.74-130.28h0A175.74,175.74,0,0,0,63,161c.76-6.75,18.75-83.72,17.41-83.78,13.9.62,40.57-3.41,51.12,6.15.3.28.59.56.87.86,8.27,8.91,13,27.29,17.06,38.58a305.48,305.48,0,0,1,12.71,45.52c2.66,13.53,4.41,27.23,5.75,40.95,1.16,11.79.84,23.56,1.57,35.17.81,12.86,5.06,26.7,8.3,39.14a217.7,217.7,0,0,0,12.71,36.65c-13.6,6.48-28.9,8.56-44,9s-30.15-.54-45.21.12c-12.73.55-25.59,2.3-38.14.1-10-1.75-19.27-5.91-28.63-9.91Z" style="fill:#bcbec0"/><path d="M127,43.46c6.42,2.95,13.25,10.83,13,18.35-.09,3.62-2,6.48-2,10.36.08,7.65-11.29,16-4,23.16,3.76,3.68,9.48,4.27,14.73,4.64a3.74,3.74,0,0,0,1.88-.18,2.68,2.68,0,0,0,1.34-2.64,10.84,10.84,0,0,0-.83-3c-3.62-10.37,1.06-22.71,1.35-33.39S150,38.65,141.11,32c-5.8,1.95-10.09,4.55-12.81,10Z" style="fill:#2e3644"/><path d="M124.36,89c7.19-1.12,13.17-6.61,16.34-13.16s3.91-14,3.73-21.28c-.56-24.2-30.55-25-42.1-7.38C92.27,62.52,103.46,92.22,124.36,89Z" style="fill:#f4d0c1"/><rect x="708.63" y="231.9" width="238.25" height="153.74" style="fill:#fff"/><polygon points="915.14 179.85 827.76 179.85 740.37 179.85 702.34 224.65 827.76 224.65 953.17 224.65 915.14 179.85" style="fill:#fff"/><rect x="702.34" y="224.65" width="250.83" height="16.15" style="fill:#cccdce"/><polygon points="780.67 195 774.51 202.25 874.24 202.25 868.08 195 780.67 195" style="fill:#9d9d9e"/><polygon points="708.63 240.8 946.88 263.01 946.88 240.8 708.63 240.8" style="fill:#eaeaea"/><polygon points="725.78 279.58 927.34 273.34 922.86 279.58 930.77 287.11 924.27 298.28 930.77 304.63 925.97 308.87 935.54 324.69 921.73 336.08 928.51 343.08 727.65 348.7 731.89 341 725.78 341 732.17 323.84 721.72 315.59 727.93 307 725.39 302.6 730.48 295 721.72 284.57 725.78 279.58" style="fill:#f7f7f7"/><path d="M767.85,313.27c-1.17-12.76-13.18-27.8-27.24-24.16a2.58,2.58,0,0,0-1.9,1.68,2.93,2.93,0,0,0-.37,2.31q4.9,21.12,8.22,42.56a3.23,3.23,0,0,0,3.21,2.72c4.51,1.5,10.45-4.39,12.84-7.44A25.11,25.11,0,0,0,767.85,313.27Zm-8.2,11.45a18.88,18.88,0,0,1-3.49,4.55,16.63,16.63,0,0,1-3.27,2.45c-.37.11-.69.21-1,.31q-3-18.9-7.22-37.58c9-.29,16.38,10.93,17.22,19A19.27,19.27,0,0,1,759.65,324.72Z" style="fill:#3b455a"/><path d="M788.28,291.89a11,11,0,0,0-12.3,4c-5.08,6.45-5.13,16.25-3.31,23.87,1.75,7.36,6.35,16.1,14.73,17.07,12.05,1.41,13.49-11.63,13.6-20.6a39.17,39.17,0,0,0-2.68-14.91A16.33,16.33,0,0,0,788.28,291.89Zm-1,38.81c-14-3.46-12.17-39.64,2-32.35,4.65,2.39,5.44,10.44,5.71,15C795.36,318.85,795.72,332.78,787.28,330.7Z" style="fill:#3b455a"/><path d="M826.41,292.83l-.09,1.07a2.8,2.8,0,0,0,.1,1l.09,20.38q-1.26-2.81-2.63-5.57c-3.29-6.69-6.47-13.71-11.7-19.12-1.82-1.89-5-.28-5,2.21q.24,19.9,1.29,39.8c.2,3.8,6.14,3.68,5.93-.14q-.79-15.27-1.13-30.54c2.08,3.53,3.81,7.32,5.57,10.9a92.45,92.45,0,0,1,7.88,21.52c.73,3.35,5.82,2.33,5.81-.92l-.18-40.72C832.32,288.8,826.7,289.1,826.41,292.83Z" style="fill:#3b455a"/><path d="M865.56,328.58q-5.13-20.11-12.21-39.62a3,3,0,0,0-5.71.13,238.73,238.73,0,0,0-9.08,42c-.46,3.75,5.29,5.23,5.75,1.45.59-4.78,1.34-9.53,2.21-14.25a89.36,89.36,0,0,1,10-.5q1.8,6.21,3.41,12.47C860.82,334,866.51,332.28,865.56,328.58Zm-17.84-16.32c.91-4.26,1.92-8.49,3.06-12.7,1.38,4.09,2.68,8.21,3.94,12.34C852.38,311.92,850.05,312.05,847.72,312.26Z" style="fill:#3b455a"/><path d="M886.79,285.68q-13,1.89-25.86,4.73c-3.72.83-2,6.51,1.71,5.69s7.31-1.56,11-2.26q.3,18,1.57,36c.27,3.8,6.2,3.68,5.93-.13q-1.3-18.45-1.59-36.94c2.46-.42,4.92-.82,7.39-1.18C890.65,291.06,890.56,285.13,886.79,285.68Z" style="fill:#3b455a"/><path d="M914.44,326.84l-14.06.61-.29-13a62,62,0,0,1,6.95,0,3,3,0,0,0,2.9-3,3,3,0,0,0-3-2.9,61.81,61.81,0,0,0-6.94,0l-.37-16.63c4.1.05,8.19.19,12.28.46,3.81.25,3.65-5.68-.14-5.93q-6-.4-12.1-.49c-5.25-.07-6,2.84-5.94,7.42l.27,12.54q.27,11.91.53,23.81v.38c0,1.74.7,3.56,2.89,3.46l17.18-.75C918.38,332.6,918.26,326.67,914.44,326.84Z" style="fill:#3b455a"/><polygon points="742.75 211.72 743.22 219.77 753.22 231.51 759.24 225.47 754.44 214.8 756.85 210.89 752.87 206.55 742.75 211.72" style="fill:#c1755d"/><polygon points="795.32 89.48 779.13 94.41 720 156.35 716.49 176.76 744.75 223.42 752.38 206.32 740.42 171.83 759.42 158.46 784.76 101.45 795.32 89.48" style="fill:#305399"/><path d="M551.38,86.54c-26-5.5-60.9,4.57-71.68,26.37-5-23.79-43.55-42.92-70.11-44.06-70.1-3-103.54,72.58-80.83,129.14,12.22,30.44,31.82,58.18,53.8,83.64,18.42,21.32,67,67.75,67.17,67.64.15.15,58.78-32.73,81.94-48.8,27.64-19.19,53.54-41.19,73-67.63C640.76,183.72,620,101,551.38,86.54Z" style="fill:#f4bdb8"/><g style="opacity:0.12;mix-blend-mode:multiply"><path d="M589,236.46a383.71,383.71,0,0,1-66.43,50.77c-23.11,13.88-49.56,25.17-77.28,26.56a94.38,94.38,0,0,1-37.73-5.6c19.93,20.14,41.73,40.91,41.85,40.83.15.16,58.78-32.73,81.93-48.8C559,281,584.86,259,604.3,232.6A89.21,89.21,0,0,0,618,204.42,281.28,281.28,0,0,1,589,236.46Z" style="fill:#000100"/></g><path d="M637,260.46a14.5,14.5,0,0,0-28.8-3.44h0l-17.1,60.61a53.81,53.81,0,0,1-26.91,33.09L516.08,375.8l35.36-41.5a12.52,12.52,0,0,0,1.6-1.88h0a13.32,13.32,0,0,0-9.32-20.85,13.31,13.31,0,0,0-9.06,2.19h0L486.76,348a90.76,90.76,0,0,0-37.32,62.86L446,439a34.73,34.73,0,0,0,50.85,34.85,35.84,35.84,0,0,0,4.75-3.05L600,407.6a52.28,52.28,0,0,0,23.68-37.71L637,260.46Z" style="fill:#fff"/><path d="M289.64,218.2a14.5,14.5,0,0,1,28.78,3.56v0l2.08,62.94a53.79,53.79,0,0,0,18.19,38.57l40.72,35.89L355,310.41a13.79,13.79,0,0,1-1.1-2.21v0h0a13.31,13.31,0,0,1,22.31-13.71h0l38.31,44.71a90.69,90.69,0,0,1,21.16,70l-3.42,28.14a34.74,34.74,0,0,1-57.72,21.64,34.17,34.17,0,0,1-3.88-4.1l-80.41-84.91a52.32,52.32,0,0,1-13.95-42.29L289.63,218.2Z" style="fill:#fff"/><polygon points="631.5 261.28 638.61 265.3 635.59 280.33 625.89 284.15 617.78 279.21 621.57 272.13 619.91 270.83 619.84 267.71 631.5 261.28" style="fill:#e4d2b8"/><polygon points="671.98 102.91 688.55 130.9 687.78 199.79 644.51 268.61 629.02 260.62 663.12 199.78 656.87 152.42 671.98 102.91" style="fill:#d7e8f4"/><polygon points="835.19 98.6 876.9 83.6 903.07 21.63 917.49 22.56 900.41 90.68 885.25 107.93 833.85 133.71 835.19 98.6" style="fill:#2b292a"/><polygon points="914.4 22.36 918.12 15.2 915.53 0 907.27 2.11 905.94 13.73 901.87 15.85 903.07 21.63 914.4 22.36" style="fill:#c1755d"/><circle cx="909.99" cy="96.62" r="83.74" transform="translate(198.21 671.76) rotate(-45)" style="fill:#bcbec0"/><circle cx="909.99" cy="96.62" r="71.07" transform="translate(198.21 671.76) rotate(-45)" style="fill:#cccdce"/><path d="M947.07,35.9a71.07,71.07,0,0,1-96.89,99,71.07,71.07,0,1,0,96.89-99Z" style="fill:#9d9d9e"/><path d="M851.39,103.23A62.73,62.73,0,0,1,963.78,64.79a62.74,62.74,0,1,0-104,69.69A62.45,62.45,0,0,1,851.39,103.23Z" style="fill:#f7f7f7"/><path d="M915.78,50.74l0,9.06a19.1,19.1,0,0,1,8.92,3.58,27.75,27.75,0,0,1,6.62,8.35l-9,5q-4.08-7.38-10.64-7.37A9.78,9.78,0,0,0,905,71.82a7.77,7.77,0,0,0-2.67,6,7.41,7.41,0,0,0,2.18,5.45q2.13,2.13,8.6,5a85.74,85.74,0,0,1,9.25,4.77,24.53,24.53,0,0,1,5.51,4.31A19.36,19.36,0,0,1,933.07,111a21.79,21.79,0,0,1-4.69,13.87,22.81,22.81,0,0,1-12.46,8.06l0,9.56h-8.08l0-9.28Q898.78,131.74,894,127t-7-14.68l10.16-2.14q2.08,7,5.1,10a13.12,13.12,0,0,0,16.86-.44,11.11,11.11,0,0,0,3.36-8.37,9.87,9.87,0,0,0-2.83-7.34,26.16,26.16,0,0,0-4.24-3,71.79,71.79,0,0,0-7.14-3.66q-9-4-11.79-7.37A18.5,18.5,0,0,1,893,71.75a16.78,16.78,0,0,1,3.06-5.2,19,19,0,0,1,5-4,26.82,26.82,0,0,1,6.69-2.69V50.76Z" style="fill:#a9a9aa"/><path d="M260.34,254.72a38.55,38.55,0,0,0-21.17-20.39c.05-1.36.08-2.72.08-4.06A103.82,103.82,0,1,0,175.8,326c.56-.24,1.12-.48,1.69-.74l4.7,3.73c4.56,3.61,9.08,7.05,11.37,8.78,1.6,1.21,2.95,2.23,3.9,2.93.67.5,1.24.92,1.78,1.27a6.82,6.82,0,0,0,4,1.26h0a7.52,7.52,0,0,0,1.21-.08H205l.42-.25c1.13-.43,2.4-1.36,5.07-3.32l2.66-2,1.07-.8,3.85-2.89c5.33-4,12.56-9.62,16.68-13.29,11-9.77,18.95-19.23,24.4-28.91C265.37,280.68,265.81,266.85,260.34,254.72Z" style="fill:#fff"/><path d="M136.12,327.3a96.66,96.66,0,1,1,37.77-7.62A96.49,96.49,0,0,1,136.12,327.3Zm0-184.3a87.27,87.27,0,1,0,61.7,25.56A86.69,86.69,0,0,0,136.12,143Z" style="fill:#587bc9"/><rect x="131.23" y="138.12" width="9.77" height="184.3" style="fill:#587bc9"/><rect x="49.34" y="195.26" width="175.1" height="9.77" style="fill:#587bc9"/><rect x="46.46" y="251.18" width="178.15" height="9.77" style="fill:#587bc9"/><path d="M131.8,326.29c-.54-.38-13.39-9.39-26.33-26.05a130.53,130.53,0,0,1-18-31,111.33,111.33,0,0,1-8.25-41.94,104.45,104.45,0,0,1,8.28-41.09,112.19,112.19,0,0,1,18.15-29.06c13-15.23,26-22.79,26.53-23.1l4.88,8.46a105.76,105.76,0,0,0-24.22,21.26,102.52,102.52,0,0,0-16.44,26.46A94.89,94.89,0,0,0,89,227.28a101.75,101.75,0,0,0,7.54,38.28,120.58,120.58,0,0,0,16.7,28.69,125.52,125.52,0,0,0,24.19,24Z" style="fill:#587bc9"/><path d="M141.72,326.29l-5.58-8A126.32,126.32,0,0,0,160.53,294a119.88,119.88,0,0,0,16.57-28.61,101.54,101.54,0,0,0,7.47-38.1A94.76,94.76,0,0,0,177.06,190a102.29,102.29,0,0,0-16.58-26.53,104.4,104.4,0,0,0-24-21l4.88-8.46c.55.31,13.51,7.87,26.53,23.1a112.19,112.19,0,0,1,18.15,29.06,104.46,104.46,0,0,1,8.29,41.09,111.52,111.52,0,0,1-8.25,41.94,130.57,130.57,0,0,1-18,31C155.11,316.9,142.26,325.91,141.72,326.29Z" style="fill:#587bc9"/><path d="M228.71,238.72c-9.47-.83-21.42,4.25-24.31,12.46-2.8-8.23-17.31-13.36-26.78-12.62-25,2-33.62,30.24-23.12,49.33,5.66,10.28,13.81,19.28,22.71,27.37,7.46,6.77,26.7,21.15,26.76,21.1s19.45-14.15,27-20.86c9-8,17.23-16.93,23-27.15C264.63,269.35,253.7,240.9,228.71,238.72Z" style="fill:#f4bdb8"/><g style="opacity:0.12;mix-blend-mode:multiply"><path d="M248.52,290.31a137.22,137.22,0,0,1-21.38,20.89c-7.61,5.92-16.51,11.07-26.29,12.76a33.5,33.5,0,0,1-13.63-.36c7.94,6.29,16.58,12.72,16.62,12.69s19.45-14.15,27-20.86c9-8,17.23-16.93,23-27.15a32,32,0,0,0,3.66-10.6A99.78,99.78,0,0,1,248.52,290.31Z" style="fill:#000100"/></g><path d="M38.25,255.27c.9,3.58,7.15,11.1,11.09,11.67,9.09,1.33,2-8.47.26-12.41a24.09,24.09,0,0,0,4.53-.77c1.35-.43-7.29-10.49-9-11-4.15-1.34-5.78.9-9.36,2.84C36.66,248.76,37.43,252,38.25,255.27Z" style="fill:#f4d0c1"/><polygon points="79.12 85.69 0 185.96 34.48 249.82 50.44 245.5 33.36 191.71 55.14 163.65 98.59 129.88 79.12 85.69" style="fill:#bcbec0"/><path d="M88.19,93c3.69-1.16,7.34-2.43,10.13-5.66,4.5-5.2,5.62-14.8,7.63-21.18,2.12-6.73,4.65-14,10.6-17.79,3.89-2.47,7.88-2.4,12.24-1.75,3,.45,2.91,1.59,5.69.42,2.13-.9,4.39-4.28,5.19-6.35,1.35-3.48.54-7.52-1.37-10.72a17.52,17.52,0,0,0-12.43-8.85c-19.32-3.67-35.79,5.39-44.41,23.42-4.15,8.67-3.9,19.13-8.17,27.42-2.63,5.12-6.7,8.14-9.06,13.67-6.15,14.33-17.59,32.07-19.55,47.63a2.18,2.18,0,0,0,.26,1.67c.74.92,2.2.2,3.11-.56L64,121.08a29.29,29.29,0,0,0,5.71-5.74c3.79-5.58,3.66-13.64,8.84-18C81.33,95,84.78,94,88.19,93Z" style="fill:#2e3644"/><polygon points="285.41 238.31 299.58 246.44 303.32 240.53 294.85 232.81 297.91 230.84 284.94 225.37 280.22 230.98 285.41 238.31" style="fill:#f4d0c1"/></g></g></g></svg>